<svg xmlns="http://www.w3.org/2000/svg" width="508.623" height="457.931" viewBox="0 0 508.623 457.931">
  <g id="Groupe_131" data-name="Groupe 131" transform="translate(-317.542 -345.727)">
    <path id="Tracé_252" data-name="Tracé 252" d="M443.756,675.72c-65.915-45.384-67.716-131.11,0-181.537s37.46-123.906,126.788-125.347,83.565,80.683,177.214,73.479,17.289,105.176,53.308,148.4S756.4,714.621,707.417,675.72,509.672,721.1,443.756,675.72Z" transform="matrix(0.921, 0.391, -0.391, 0.921, 224.618, -147.58)" fill="rgba(177,206,242,0.53)"/>
    <g id="Groupe_130" data-name="Groupe 130" transform="translate(483.716 421.152)">
      <path id="Tracé_8" data-name="Tracé 8" d="M3872.64,1025.448h1.83a107.8,107.8,0,0,1,3.9-20.09c7.979-26.934,4.489-30.418,17.957-47.254s14.464-51.749,14.464-51.749,6.484-39.652,0-57.107-6.984-34.912-22.693-53.368c0,0-2.991,24.689-6.733,35.911s-7.293,21.946-4.521,48.877,4.5,29.178,5.131,36.162-.362,36.415,1.132,41.275-8.729,38.525-9.476,52.989C3873.407,1015.438,3873,1020.393,3872.64,1025.448Z" transform="translate(-3797.176 -770.19)" fill="#215e4b"/>
      <path id="Tracé_9" data-name="Tracé 9" d="M3886.271,1323.771a29.173,29.173,0,0,1,15.178-15.526c20.948-9.35,35.079-9.143,44.806-31.588s9.727-53.117,13.092-59.476c0,0-8.977-1.5-17.957,14.589s-15.067,28.054-20.25,37.408-12.666,6.733-19.025,13.842c-5.329,5.956-10.249,19.813-12.12,26.846a27.659,27.659,0,0,1-2.656,6.54c-1.059,1.871-2.305,4.147-3.055,5.767a8.947,8.947,0,0,0-.493,1.6h2.48Z" transform="translate(-3805.072 -1068.513)" fill="#3c8f7c"/>
      <path id="Tracé_10" data-name="Tracé 10" d="M3688.125,856.731c-1.5,19.2,10.722,17.706,11.221,29.925s16.459,32.919,23.852,47.631c3.846,7.652,5.265,19.352,5.743,28.819h5.942c-2.3-23.963-12.021-40.641-17.832-54.007-7.479-17.207-8.6-25.063-2.244-38.528s-2.991-48.255,6.062-63.763,4.413-39.853,2.332-49.2.213-15.71,2.081-25.571-2.081-24.182-2.081-24.182c-.336,12.219-9.639,28.927-16.372,39.652s-19.451,39.9-17.954,53.117.747,14.215.747,14.215C3684.882,832.54,3689.622,837.528,3688.125,856.731Z" transform="translate(-3666.035 -707.85)" fill="#215e4b"/>
      <path id="Tracé_11" data-name="Tracé 11" d="M3671.793,1308.164c.765,2.291,3.213,8.145,5.454,15.6h3.642c-1.658-9.494-4.518-20.51-9.348-26.826-9.727-12.718-29.178-18.2-31.422-27.433s.248-36.909-13.964-52.37c0,0,2,17.213,0,21.824s-18.952,26.058-8.977,44.012,32.42,15.709,39.4,19.7S3670.547,1304.423,3671.793,1308.164Z" transform="translate(-3614.058 -1068.51)" fill="#3c8f7c"/>
      <path id="Tracé_12" data-name="Tracé 12" d="M3758.385,1063.745c-.248,18.453,14.215,25.437,13.964,35.662s2.991,21.2,5.735,29.426c1.736,5.209.776,19.714.467,33.325h4.013c1.01-10,2.119-24.436,1.754-30.833-.5-8.729,3.49-15.71,3.99-30.923s3.741-28.927-2.991-48.13-5.486-42.144-33.666-63.343c0,0-4.988,22.445-1.246,34.664S3758.633,1045.29,3758.385,1063.745Z" transform="translate(-3709.627 -906.9)" fill="#3c8f7c"/>
      <path id="Tracé_13" data-name="Tracé 13" d="M3758.392,1063.752c-.248,18.456,14.215,25.437,13.964,35.662s2.991,21.2,5.735,29.426c1.736,5.209.776,19.714.467,33.325h1.667c.225-2.843.443-4.629.443-4.629l.832-34.413s-1.664-26.934-4.655-48.88-25.186-85.3-25.186-85.3-4.988,22.445-1.246,34.664S3758.64,1045.3,3758.392,1063.752Z" transform="translate(-3709.634 -906.908)" fill="#327f6b"/>
      <path id="Tracé_14" data-name="Tracé 14" d="M3775.3,1528.55h-38.625a4.1,4.1,0,0,0-3.978,5.046l14.081,59.374a4.088,4.088,0,0,0,3.978,3.149h46.4a4.092,4.092,0,0,0,3.978-3.149l14.081-59.374a4.1,4.1,0,0,0-3.978-5.046Z" transform="translate(-3697.992 -1289.039)" fill="#db4949"/>
    </g>
    <g id="Groupe_129" data-name="Groupe 129" transform="translate(354 151.817)">
      <path id="Tracé_2" data-name="Tracé 2" d="M550.975,1944.771H133.081c-.824,0-1.491-1.477-1.491-3.3h0c0-1.824.667-3.3,1.491-3.3H550.975c.824,0,1.491,1.477,1.491,3.3h0C552.465,1943.295,551.8,1944.771,550.975,1944.771Z" transform="translate(-92.496 -1362.356)" fill="#95a6db"/>
      <g id="Groupe_128" data-name="Groupe 128" transform="translate(132.517 258.624)">
        <g id="Groupe_126" data-name="Groupe 126" transform="translate(214.01 255.398)">
          <g id="Groupe_123" data-name="Groupe 123" transform="translate(0 29.433)">
            <path id="Tracé_250" data-name="Tracé 250" d="M3131.16,793.959a16.18,16.18,0,1,1,16.179-16.18A16.2,16.2,0,0,1,3131.16,793.959Zm0-27.9a11.723,11.723,0,1,0,11.723,11.723A11.736,11.736,0,0,0,3131.16,766.056Z" transform="translate(-3114.98 -761.6)" fill="#ffee03"/>
          </g>
          <circle id="Ellipse_2" data-name="Ellipse 2" cx="9.237" cy="9.237" r="9.237" transform="translate(7.674)" fill="#ffee03"/>
        </g>
        <g id="Groupe_72" data-name="Groupe 72" transform="translate(0 48.723)">
          <g id="Groupe_56" data-name="Groupe 56" transform="translate(0 93.756)">
            <path id="Tracé_99" data-name="Tracé 99" d="M1039.01,1812.81l11.557,36.851c.309.983.823,1.572,1.373,1.572h0c1.019,0,1.8-1.967,1.637-4.138l-2.516-34.284Z" transform="translate(-862.846 -1675.343)" fill="#4364cc"/>
            <path id="Tracé_100" data-name="Tracé 100" d="M645.7,1812.81l-11.557,36.851c-.309.983-.823,1.572-1.373,1.572h0c-1.019,0-1.8-1.967-1.637-4.138l2.516-34.284Z" transform="translate(-576.129 -1675.343)" fill="#4364cc"/>
            <path id="Tracé_101" data-name="Tracé 101" d="M460.637,1812.81l-11.557,36.851c-.309.983-.823,1.572-1.373,1.572h0c-1.019,0-1.8-1.967-1.637-4.138l2.516-34.284Z" transform="translate(-446.049 -1675.343)" fill="#4364cc"/>
            <path id="Tracé_102" data-name="Tracé 102" d="M718.1,1607.193H821.865a12.947,12.947,0,0,0,12.947-12.947v-65.818a10.069,10.069,0,0,0-10.068-10.068H718.1Z" transform="translate(-637.276 -1468.371)" fill="#768fdb"/>
            <path id="Tracé_103" data-name="Tracé 103" d="M631.1,1607.193H734.865a12.947,12.947,0,0,0,12.947-12.947v-65.818a10.069,10.069,0,0,0-10.068-10.068H631.1Z" transform="translate(-576.123 -1468.371)" fill="#4364cc"/>
            <path id="Tracé_104" data-name="Tracé 104" d="M555.1,1422.562h86.056v-63.1a9.35,9.35,0,0,0-9.349-9.349H555.1Z" transform="translate(-522.702 -1350.107)" fill="#768fdb"/>
            <path id="Tracé_105" data-name="Tracé 105" d="M523.92,1588.87H660.9a11.8,11.8,0,0,1,11.8,11.8v13.613H523.92Z" transform="translate(-500.785 -1517.933)" fill="#95adf5"/>
            <rect id="Rectangle_2" data-name="Rectangle 2" width="148.783" height="45.488" transform="translate(23.135 93.4)" fill="#768fdb"/>
            <path id="Tracé_106" data-name="Tracé 106" d="M454.34,1422.555h29.935V1350.1H464a9.662,9.662,0,0,0-9.661,9.664v62.79Z" transform="translate(-451.877 -1350.1)" fill="#4364cc"/>
          </g>
          <g id="Groupe_71" data-name="Groupe 71" transform="translate(48.599)">
            <path id="Tracé_107" data-name="Tracé 107" d="M692.178,1048.914a14.394,14.394,0,1,1-14.394-14.394A14.393,14.393,0,0,1,692.178,1048.914Z" transform="translate(-647.419 -1034.52)" fill="#201d40"/>
            <path id="Tracé_108" data-name="Tracé 108" d="M726.042,1112.925c6.783-6.569,13.907-34.13-4.932-42.457-17.825-7.882-40.318,3.137-41.177,22.065a32.581,32.581,0,0,0,13.6,28.114Z" transform="translate(-659.021 -1057.978)" fill="#2c2858"/>
            <path id="Tracé_109" data-name="Tracé 109" d="M1112.13,1750.513l5.68,7.944s5.074,6.465,11.12,3.432,3.366-12.751,3.366-12.751l-6.949-9.147Z" transform="translate(-962.842 -1530.401)" fill="#f37a50"/>
            <g id="Groupe_59" data-name="Groupe 59" transform="translate(154.734 213.207)">
              <g id="Groupe_58" data-name="Groupe 58">
                <g id="Groupe_57" data-name="Groupe 57">
                  <path id="Tracé_110" data-name="Tracé 110" d="M1144.946,1756.646a45.479,45.479,0,0,0,12.742-2.317c3.711-1.266,13.414-4.944,15.591,1.7.324.992.172,2.38-1.649,4.489-2.689,3.116-6.794,6.548-16.423,9.531-11.551,3.577-12.481,5.624-16.893,6.714-4.572,1.129-6.084-5.247-7.855-10.431h0c.805,1.093,3.212,3.788,11.8,2.216C1144.83,1768.072,1137.51,1760.012,1144.946,1756.646Z" transform="translate(-1130.46 -1752.169)" fill="#2c2858"/>
                </g>
              </g>
            </g>
            <path id="Tracé_111" data-name="Tracé 111" d="M950.2,1862.032v5.389s.365,8.212,7.053,9.26,10.155-8.414,10.155-8.414l-.247-8.488Z" transform="translate(-849.02 -1614.602)" fill="#f37a50"/>
            <g id="Groupe_60" data-name="Groupe 60" transform="translate(45.203 72.171)">
              <path id="Tracé_112" data-name="Tracé 112" d="M841.716,1415.57c-3.262-.03-9.944,11.928-9.376,12.917,7.906,8.767,38.788,9.67,38.788,9.67l3.711-3.806S856.487,1425.932,841.716,1415.57Z" transform="translate(-811.355 -1374.534)" fill="#c4204a"/>
              <path id="Tracé_113" data-name="Tracé 113" d="M762.862,1291.085c3,9.032,16.649,39.2,19.908,40.312l9.376-12.917s-14.2-31.679-16.643-36.4C771.282,1273.889,757.933,1276.349,762.862,1291.085Z" transform="translate(-761.785 -1277.444)" fill="#c4204a"/>
            </g>
            <path id="Tracé_114" data-name="Tracé 114" d="M731.593,1200.709s1.3,11.664,1.845,15.951l-15.229,3.877a254.263,254.263,0,0,1-2.109-29.507Z" transform="translate(-684.469 -1144.532)" fill="#f37a50"/>
            <g id="Groupe_66" data-name="Groupe 66" transform="translate(26.79 11.806)">
              <path id="Tracé_115" data-name="Tracé 115" d="M714.3,1108.869c-.752,14.005,7.558,25.838,18.556,26.429s20.529-10.285,21.278-24.293-7.558-25.838-18.556-26.429S715.05,1094.864,714.3,1108.869Z" transform="translate(-709.96 -1081.495)" fill="#f37a50"/>
              <path id="Tracé_116" data-name="Tracé 116" d="M828.792,1175.038a1.915,1.915,0,1,0,1.554-2.216A1.916,1.916,0,0,0,828.792,1175.038Z" transform="translate(-790.451 -1143.52)"/>
              <path id="Tracé_117" data-name="Tracé 117" d="M776.676,1172.155a2.074,2.074,0,1,0,1.685-2.4A2.072,2.072,0,0,0,776.676,1172.155Z" transform="translate(-753.817 -1141.362)"/>
              <g id="Groupe_61" data-name="Groupe 61" transform="translate(20.305 25.31)">
                <path id="Tracé_118" data-name="Tracé 118" d="M769,1162.636a.721.721,0,0,0,.416-.235c1.634-1.854,4.45-1.474,4.48-1.471a.721.721,0,0,0,.211-1.426c-.146-.021-3.613-.508-5.772,1.943a.722.722,0,0,0,.665,1.188Z" transform="translate(-768.152 -1159.452)" fill="#2c2858"/>
              </g>
              <g id="Groupe_62" data-name="Groupe 62" transform="translate(38.489 26.371)">
                <path id="Tracé_119" data-name="Tracé 119" d="M834.008,1166.7a.63.63,0,0,0,.223-.08.725.725,0,0,0,.285-.98,5.063,5.063,0,0,0-4.468-2.611.721.721,0,0,0,.059,1.441,3.618,3.618,0,0,1,3.143,1.866A.722.722,0,0,0,834.008,1166.7Z" transform="translate(-829.358 -1163.025)" fill="#2c2858"/>
              </g>
              <path id="Tracé_120" data-name="Tracé 120" d="M812.422,1192.175a18.907,18.907,0,0,0,2.05,3.559.757.757,0,0,1-.048,1.04c-1.185,1.147-3.791,1.607-5.359,1.786a.2.2,0,0,1-.107-.386,9.784,9.784,0,0,0,3.045-1.967.911.911,0,0,0,.232-.787c-.119-.654-.348-1.984-.452-3.06A.339.339,0,0,1,812.422,1192.175Z" transform="translate(-776.446 -1157.014)" fill="#de623c"/>
              <g id="Groupe_63" data-name="Groupe 63" transform="translate(20.646 41.298)">
                <path id="Tracé_121" data-name="Tracé 121" d="M775.553,1219.7c-5-1.485-6.165-5.208-6.221-5.407a.8.8,0,0,1,1.527-.454c.065.211,1.625,4.947,9.4,4.869a.8.8,0,0,1,.018,1.592A15.881,15.881,0,0,1,775.553,1219.7Z" transform="translate(-769.299 -1213.269)" fill="#de623c"/>
              </g>
              <path id="Tracé_122" data-name="Tracé 122" d="M708.513,1101.589c12.745,2,35.256-6.587,38.568-12.576-.086-8.4-11.569-16.025-19.763-14.575S706.2,1090.359,708.513,1101.589Z" transform="translate(-705.734 -1074.26)" fill="#2c2858"/>
              <g id="Groupe_65" data-name="Groupe 65" transform="translate(0 23.641)">
                <path id="Tracé_123" data-name="Tracé 123" d="M709.062,1156.62c1.919,2.683,1.7,6.129-.5,7.7s-5.532.668-7.451-2.014-1.7-6.129.5-7.7S707.143,1153.937,709.062,1156.62Z" transform="translate(-699.806 -1153.834)" fill="#f37a50"/>
                <g id="Groupe_64" data-name="Groupe 64" transform="translate(3.575 2.757)">
                  <path id="Tracé_124" data-name="Tracé 124" d="M714.133,1169.344a.705.705,0,0,0,.3-.131,3.258,3.258,0,0,0,1.379-3.761,3.471,3.471,0,0,0-3.277-2.335.721.721,0,0,0,.045,1.441,2.055,2.055,0,0,1,1.872,1.367,1.849,1.849,0,0,1-.873,2.13.721.721,0,0,0,.553,1.289Z" transform="translate(-711.839 -1163.115)" fill="#de623c"/>
                </g>
              </g>
            </g>
            <path id="Tracé_125" data-name="Tracé 125" d="M787.59,1533.914l64.882-2.772s3.2-16.194.793-22.615-62.021-5.1-62.021-5.1Z" transform="translate(-734.72 -1364.043)" fill="#3f964f"/>
            <path id="Tracé_126" data-name="Tracé 126" d="M704.451,1466.35c-1.759,4.064-8.61,16.156-7.947,25.96.683,10.119,7.822,18.928,19.905,18.735,0,0,22.772-12.944,17.843-39.46C734.249,1471.582,722.327,1466.926,704.451,1466.35Z" transform="translate(-670.663 -1338.057)" fill="#0e6a41"/>
            <path id="Tracé_127" data-name="Tracé 127" d="M723.533,1535.473l57.151,5.392s19.605-8.274,19.492-15.3-57.7-26.251-57.7-26.251C708.708,1489.462,697.448,1531.382,723.533,1535.473Z" transform="translate(-679.591 -1360.177)" fill="#0e6a41"/>
            <path id="Tracé_128" data-name="Tracé 128" d="M950.946,1585.976l-1.147,80.616s-14.266,6.013-19.266.048c-2.359-27.362-13.595-51.6-1.052-68.281C946.279,1576.018,950.946,1585.976,950.946,1585.976Z" transform="translate(-830.357 -1420.588)" fill="#0e6a41"/>
            <path id="Tracé_129" data-name="Tracé 129" d="M986.187,1519.388l47.561,65.316s-10.615,14.186-18.028,12.525c-12.787-16.183-38.663-35.155-38.83-55.521C976.668,1514.436,986.187,1519.388,986.187,1519.388Z" transform="translate(-867.779 -1375.091)" fill="#3f964f"/>
            <path id="Tracé_130" data-name="Tracé 130" d="M692.092,1272.7l16.007-.178c7.344,8.541,14.8,15.882,16.12,21.714,1.735,7.683,1.411,49.175,1.411,49.175-13.467,4.929-28.518.538-38.331-3.108,2.463-20.422-13.94-43.375-4.4-58.913C685.292,1277.514,688.465,1275.669,692.092,1272.7Z" transform="translate(-659.018 -1201.812)" fill="#e62552"/>
            <g id="Groupe_69" data-name="Groupe 69" transform="translate(99.259 252.115)">
              <g id="Groupe_68" data-name="Groupe 68">
                <g id="Groupe_67" data-name="Groupe 67">
                  <path id="Tracé_131" data-name="Tracé 131" d="M963.282,1883.683A45.546,45.546,0,0,0,975,1889.208c3.755,1.129,13.788,3.779,11.7,10.449-.312,1-1.242,2.035-3.951,2.692-4,.971-9.335,1.373-18.9-1.8-11.477-3.806-13.426-2.686-17.647-4.364-4.376-1.741-1.9-7.808-.324-13.054h0c.021,1.358.41,4.947,8.313,8.666C956.541,1892.91,955.275,1882.093,963.282,1883.683Z" transform="translate(-943.734 -1883.13)" fill="#2c2858"/>
                </g>
              </g>
            </g>
            <g id="Groupe_70" data-name="Groupe 70" transform="translate(37.065 109.422)">
              <path id="Tracé_132" data-name="Tracé 132" d="M827.6,1438.4h51.848l10.235-32.54a2.334,2.334,0,0,0-2.225-3.033H840.5a2.334,2.334,0,0,0-2.225,1.634Z" transform="translate(-799.908 -1402.83)" fill="#2c2858"/>
              <path id="Tracé_133" data-name="Tracé 133" d="M840.84,1438.4h49.623a3.032,3.032,0,0,0,2.894-2.124l9.566-30.416a2.334,2.334,0,0,0-2.225-3.033H853.74a2.334,2.334,0,0,0-2.225,1.634Z" transform="translate(-809.215 -1402.83)" fill="#494c7f"/>
              <path id="Tracé_134" data-name="Tracé 134" d="M943.215,1458.188a3.452,3.452,0,1,0,4.341-2.7A3.621,3.621,0,0,0,943.215,1458.188Z" transform="translate(-881.063 -1439.759)" fill="#555994"/>
              <path id="Tracé_135" data-name="Tracé 135" d="M738.071,1506.35h27.944v4.739H734.39v-1.058A3.682,3.682,0,0,1,738.071,1506.35Z" transform="translate(-734.39 -1475.595)" fill="#2c2858"/>
            </g>
            <path id="Tracé_136" data-name="Tracé 136" d="M767.971,1497.223c-3.711-.033-8.589.674-8.473-1.248s2.026-2.629,2.258-4.941c.2-2.047-6.679-1.521-11.031,5.244l-1.283-.71-3.681,6.266,2.329.862c3.936,4.733,15.8,7.154,22.775,3.461C777.926,1502.416,771.681,1497.253,767.971,1497.223Z" transform="translate(-705.317 -1354.667)" fill="#f37a50"/>
            <path id="Tracé_137" data-name="Tracé 137" d="M627.9,1289.52c-4.572,10.053-21.417,32.888-17.745,45.523,2.573,8.847,40.678,21.792,40.678,21.792l3.622-9.228-26.48-19.7s15.455-30.134,17.059-35.835C647.84,1282.1,635.086,1273.709,627.9,1289.52Z" transform="translate(-609.632 -1207.573)" fill="#c4204a"/>
            <path id="Tracé_138" data-name="Tracé 138" d="M717.58,1253.66l.368,6.3h16.646v-5.03S723.453,1254.471,717.58,1253.66Z" transform="translate(-685.51 -1188.555)" fill="#e62552"/>
          </g>
          <path id="Tracé_139" data-name="Tracé 139" d="M541.35,1607.193h61.941a12.947,12.947,0,0,0,12.947-12.947v-65.818a10.069,10.069,0,0,0-10.068-10.068H541.35Z" transform="translate(-513.037 -1374.615)" fill="#768fdb"/>
          <path id="Tracé_140" data-name="Tracé 140" d="M454.34,1607.193h61.941a12.947,12.947,0,0,0,12.947-12.947v-65.818a10.069,10.069,0,0,0-10.068-10.068H454.34Z" transform="translate(-451.877 -1374.615)" fill="#4364cc"/>
        </g>
        <g id="Groupe_127" data-name="Groupe 127" transform="translate(111.494 31.938)">
          <g id="Groupe_117" data-name="Groupe 117" transform="matrix(0.829, -0.559, 0.559, 0.829, 0, 96.443)">
            <path id="Tracé_240" data-name="Tracé 240" d="M128.934,35.34a2.08,2.08,0,0,1,0-4.159,33.511,33.511,0,0,0,8.31-.983,2.078,2.078,0,1,1,1.037,4.026,37.575,37.575,0,0,1-9.346,1.117Zm-8.865-.793a2.017,2.017,0,0,1-.351-.03,78.942,78.942,0,0,1-8.913-2.083,2.08,2.08,0,0,1,1.171-3.993,74.052,74.052,0,0,0,8.437,1.973,2.081,2.081,0,0,1-.344,4.133Zm25.793-3.856a2.081,2.081,0,0,1-1.171-3.8,22.566,22.566,0,0,0,5.226-4.973,2.079,2.079,0,0,1,3.3,2.525,26.663,26.663,0,0,1-6.191,5.888A2.076,2.076,0,0,1,145.863,30.691ZM2.079,30.23A2.08,2.08,0,0,1,.386,26.944a60.293,60.293,0,0,1,5.948-7.056A2.08,2.08,0,1,1,9.31,22.794,56.265,56.265,0,0,0,3.773,29.36,2.081,2.081,0,0,1,2.079,30.23Zm100.88-.6a2.035,2.035,0,0,1-.754-.143C99.5,28.43,96.7,27.224,93.889,25.9a2.081,2.081,0,1,1,1.774-3.764c2.727,1.283,5.437,2.454,8.054,3.473a2.081,2.081,0,0,1-.758,4.02ZM86.822,22.06a2.072,2.072,0,0,1-.992-.253c-2.6-1.411-5.229-2.932-7.811-4.513a2.078,2.078,0,0,1,2.172-3.544c2.522,1.545,5.089,3.027,7.626,4.406a2.077,2.077,0,0,1-1,3.9Zm-72.38-4.611a2.08,2.08,0,0,1-1.3-3.708,73.293,73.293,0,0,1,7.513-5.253,2.08,2.08,0,1,1,2.163,3.553A69.572,69.572,0,0,0,15.736,17,2.1,2.1,0,0,1,14.441,17.449Zm57.178-4.694a2.091,2.091,0,0,1-1.174-.362c-.921-.63-1.842-1.272-2.739-1.913a36.041,36.041,0,0,0-4.528-2.751,2.079,2.079,0,0,1,1.883-3.708,39.461,39.461,0,0,1,5.06,3.072C71,7.717,71.9,8.343,72.8,8.958a2.08,2.08,0,0,1-1.177,3.8ZM29.646,8.242a2.08,2.08,0,0,1-.823-3.99A55.213,55.213,0,0,1,37.594,1.3a2.079,2.079,0,1,1,.98,4.04,51.043,51.043,0,0,0-8.1,2.733A2.066,2.066,0,0,1,29.646,8.242ZM55.752,4.971a2.058,2.058,0,0,1-.443-.048,34.558,34.558,0,0,0-8.348-.749A2.079,2.079,0,0,1,46.833.019,38.551,38.551,0,0,1,56.191.86a2.08,2.08,0,0,1-.44,4.112Z" fill="#fff"/>
          </g>
          <g id="Groupe_116" data-name="Groupe 116" transform="translate(61.458 50.354) rotate(-31)">
            <path id="Tracé_236" data-name="Tracé 236" d="M6.735,0,0,11.028,57.974,50.583Z" transform="translate(39.792 8.972)" fill="#bdcdff"/>
            <path id="Tracé_237" data-name="Tracé 237" d="M0,0,3.509,12.65,61.37,24.492Z" transform="translate(33.818 33.239)" fill="#bdcdff"/>
            <path id="Tracé_238" data-name="Tracé 238" d="M97.767,45.214,0,11.89,33.815,0Z" transform="translate(0 14.341)" fill="#fff"/>
            <path id="Tracé_239" data-name="Tracé 239" d="M0,8.972,51.24,59.555,21.251,0Z" transform="translate(46.527)" fill="#fff"/>
          </g>
        </g>
        <g id="Groupe_125" data-name="Groupe 125">
          <g id="Groupe_122" data-name="Groupe 122" transform="translate(0 18.806)">
            <path id="Tracé_249" data-name="Tracé 249" d="M1985.24,408.229a16.18,16.18,0,1,1,16.18-16.18A16.2,16.2,0,0,1,1985.24,408.229Zm0-27.9a11.723,11.723,0,1,0,11.723,11.723A11.736,11.736,0,0,0,1985.24,380.326Z" transform="translate(-1969.06 -375.87)" fill="#fff"/>
          </g>
          <path id="Tracé_251" data-name="Tracé 251" d="M2101.913,321.807a9.237,9.237,0,1,1-9.237-9.237A9.237,9.237,0,0,1,2101.913,321.807Z" transform="translate(-2049.459 -312.57)" fill="#fff"/>
        </g>
      </g>
    </g>
  </g>
</svg>
