<svg xmlns="http://www.w3.org/2000/svg" width="1299" height="584" viewBox="0 0 1299 584">
  <g id="discussion" transform="translate(0 0.326)">
    <g id="Groupe_30" data-name="Groupe 30">
      <rect id="Rectangle_1" data-name="Rectangle 1" width="1299" height="584" transform="translate(0 -0.326)" fill="none"/>
      <path id="Tracé_1" data-name="Tracé 1" d="M502.7,1064.57c-.575-5.084-1.258-10.281-3.619-14.817-2.869-5.516-7.909-9.494-12.31-13.877a76.98,76.98,0,0,1-18.357-29.26c-2.939-8.49-4.4-17.534-8.452-25.55-2.472-4.894-5.843-9.272-8.653-13.982-6.636-11.134-10.249-24.29-19.25-33.605a40.386,40.386,0,0,0,9.123,31.953c2.218,2.586,4.789,4.914,6.476,7.874,3.064,5.37,2.787,11.924,3.146,18.1a79.462,79.462,0,0,0,9.505,33.266c5.9,10.845,14.428,20.5,17.586,32.441,2.367,8.948,1.663,18.987,6.706,26.741a6.85,6.85,0,0,1,1.307,2.679,5.823,5.823,0,0,1-.1,1.681c-.114.721-.225,1.442-.339,2.162-1.147,7.322-2.335,16.643,3.96,22.124,4.363,3.8,9.975,3.884,13.109-1.161,3.155-5.081,2.875-12.517,2.641-18.234C504.8,1083.586,503.779,1074.037,502.7,1064.57Z" transform="translate(-305.659 -661.056)" fill="#3c8f7c"/>
      <path id="Tracé_2" data-name="Tracé 2" d="M628.846,973.986c-2.448-8.478-6.248-16.553-8.154-25.171-1.847-8.358-1.862-17-1.868-25.559q-.009-14.069-.02-28.142a106.175,106.175,0,0,0-.975-17.472c-2.078-12.391-8.516-23.852-9.607-36.369-.473-5.414.076-10.886-.519-16.285a25.678,25.678,0,0,0-2.559-8.971,4,4,0,0,0-7.17.2c-3.128,6.779-5.113,14.1-3.849,21.365.759,4.357,2.644,8.419,4.054,12.61,6.275,18.66,2.942,39.319,7.8,58.4,1.465,5.761,3.68,11.408,3.94,17.347.616,14.212-10,27.2-9.024,41.388.8,11.636,9.164,21.266,12.674,32.388,1.967,6.225,2.387,12.87,4.491,19.048,1.637,4.8,5.44,10.632,11.352,9.172,5.612-1.383,3.916-5.962,3.665-10.337C632.223,1002.8,633.023,988.443,628.846,973.986Z" transform="translate(-420.463 -576.361)" fill="#327f6b"/>
      <path id="Tracé_3" data-name="Tracé 3" d="M700.3,1002.282c-.248-4.4-.992-8.834-.374-13.2.519-3.689,1.987-7.167,3.038-10.743,1.964-6.7,2.451-13.731,2.93-20.7q1.3-18.994,2.594-37.988c1.345-19.684,2.7-39.424,6.377-58.805,1.021-5.381,2.168-11.212-.248-16.124-.511-1.036-1.512-2.133-2.612-1.789-.782.245-1.167,1.109-1.453,1.879-8.046,21.864-11.087,45.4-20.067,66.9-2.151,5.148-4.652,10.214-5.767,15.683-1.337,6.566-.6,13.352-.429,20.052a94.621,94.621,0,0,1-3.342,28.533c-1.389,4.833-3.248,9.558-4.007,14.531-.948,6.2-.152,12.514.441,18.756a288.262,288.262,0,0,1,1.159,36.129c-.219,7.086,5.764,6.9,9.724,2.548,2.77-3.044,2.746-6.385,3.695-10.176C695.074,1025.323,701.059,1015.771,700.3,1002.282Z" transform="translate(-479.076 -596.888)" fill="#3c8f7c"/>
      <path id="Tracé_4" data-name="Tracé 4" d="M542.976,1356.44c-5.288-8.5-15.823-13.328-19.206-22.755-.861-2.4-1.2-4.979-2.247-7.3-2.335-5.154-7.64-8.066-12.855-10.439a1.1,1.1,0,0,0-1.558.992h0a3.766,3.766,0,0,0,1.634,3.184,21.145,21.145,0,0,1,8.431,11.5c1.611,5.524.913,11.577,2.915,16.97,1.681,4.526,5.142,8.23,6.768,12.777,1.485,4.159,1.331,8.7,2.028,13.06s2.635,8.986,6.639,10.833C550.012,1391.942,546.39,1361.929,542.976,1356.44Z" transform="translate(-359.116 -931.834)" fill="#327f6b"/>
      <path id="Tracé_5" data-name="Tracé 5" d="M772.68,1307.488c-.225,4.109.4,8.417-1.205,12.2-1.027,2.422-2.878,4.38-4.4,6.528-5.332,7.544-7.267,18.231-15.462,22.477a2.791,2.791,0,0,1-1.742.42,2.675,2.675,0,0,1-1.728-1.751c-2.008-4.681.245-9.955,1.579-14.869a3.656,3.656,0,0,0,.02-2.609c-.452-.87-1.48-1.246-2.183-1.929-1.4-1.363-1.269-3.616-.989-5.551a126.4,126.4,0,0,1,2.921-14.35,25.05,25.05,0,0,1,3.073-7.675c1.7-2.53,4.164-4.418,6.473-6.406a76.718,76.718,0,0,0,22.393-33.056c.948-2.758,1.792-5.67,3.747-7.83s5.443-3.271,7.827-1.6c1.7,1.194-5.247,12.362-6.059,13.7-2.314,3.826-2.343,7.156-3.651,11.408C780.1,1287.01,773.293,1296.331,772.68,1307.488Z" transform="translate(-528.568 -885.687)" fill="#3c8f7c"/>
      <path id="Tracé_6" data-name="Tracé 6" d="M730.06,1222.625c1.515-3.919,3.044-7.888,3.543-12.062.554-4.64-.181-9.383.61-13.988,1.018-5.918,4.471-11.125,6.178-16.883,1.234-4.159,1.538-8.527,2.279-12.8,2.119-12.222,7.865-24.164,6.216-36.456-.359-2.673-1.567-5.79-4.22-6.248-2.4-.411-4.591,1.783-5.215,4.144s-.158,4.85.012,7.287a30.08,30.08,0,0,1-5.387,19.293c-3.773,5.341-9.251,9.362-12.648,14.951-4.167,6.855-4.734,15.225-6.858,22.965-4.229,15.391-14.831,28.819-16.766,44.666-.771,6.307.712,13.97,6.531,16.489C721.168,1261.27,726.248,1232.486,730.06,1222.625Z" transform="translate(-494.025 -796.073)" fill="#327f6b"/>
      <path id="Tracé_7" data-name="Tracé 7" d="M604.32,1528.55H565.693a4.1,4.1,0,0,0-3.978,5.046L575.8,1592.97a4.089,4.089,0,0,0,3.978,3.149h46.4a4.091,4.091,0,0,0,3.978-3.149l14.081-59.374a4.1,4.1,0,0,0-3.978-5.046Z" transform="translate(-397.705 -1082.462)" fill="#db4949"/>
      <g id="Groupe_1" data-name="Groupe 1" transform="translate(1054.716 206.577)">
        <path id="Tracé_8" data-name="Tracé 8" d="M3872.64,1025.448h1.83a107.8,107.8,0,0,1,3.9-20.09c7.979-26.934,4.489-30.418,17.957-47.254s14.464-51.749,14.464-51.749,6.484-39.652,0-57.107-6.984-34.912-22.693-53.368c0,0-2.991,24.689-6.733,35.911s-7.293,21.946-4.521,48.877,4.5,29.178,5.131,36.162-.362,36.415,1.132,41.275-8.729,38.525-9.476,52.989C3873.407,1015.438,3873,1020.393,3872.64,1025.448Z" transform="translate(-3797.176 -770.19)" fill="#215e4b"/>
        <path id="Tracé_9" data-name="Tracé 9" d="M3886.271,1323.771a29.173,29.173,0,0,1,15.178-15.526c20.948-9.35,35.079-9.143,44.806-31.588s9.727-53.117,13.092-59.476c0,0-8.977-1.5-17.957,14.589s-15.067,28.054-20.25,37.408-12.666,6.733-19.025,13.842c-5.329,5.956-10.249,19.813-12.12,26.846a27.659,27.659,0,0,1-2.656,6.54c-1.059,1.871-2.305,4.147-3.055,5.767a8.947,8.947,0,0,0-.493,1.6h2.48Z" transform="translate(-3805.072 -1068.513)" fill="#3c8f7c"/>
        <path id="Tracé_10" data-name="Tracé 10" d="M3688.125,856.731c-1.5,19.2,10.722,17.706,11.221,29.925s16.459,32.919,23.852,47.631c3.846,7.652,5.265,19.352,5.743,28.819h5.942c-2.3-23.963-12.021-40.641-17.832-54.007-7.479-17.207-8.6-25.063-2.244-38.528s-2.991-48.255,6.062-63.763,4.413-39.853,2.332-49.2.213-15.71,2.081-25.571-2.081-24.182-2.081-24.182c-.336,12.219-9.639,28.927-16.372,39.652s-19.451,39.9-17.954,53.117.747,14.215.747,14.215C3684.882,832.54,3689.622,837.528,3688.125,856.731Z" transform="translate(-3666.035 -707.85)" fill="#215e4b"/>
        <path id="Tracé_11" data-name="Tracé 11" d="M3671.793,1308.164c.765,2.291,3.213,8.145,5.454,15.6h3.642c-1.658-9.494-4.518-20.51-9.348-26.826-9.727-12.718-29.178-18.2-31.422-27.433s.248-36.909-13.964-52.37c0,0,2,17.213,0,21.824s-18.952,26.058-8.977,44.012,32.42,15.709,39.4,19.7S3670.547,1304.423,3671.793,1308.164Z" transform="translate(-3614.058 -1068.51)" fill="#3c8f7c"/>
        <path id="Tracé_12" data-name="Tracé 12" d="M3758.385,1063.745c-.248,18.453,14.215,25.437,13.964,35.662s2.991,21.2,5.735,29.426c1.736,5.209.776,19.714.467,33.325h4.013c1.01-10,2.119-24.436,1.754-30.833-.5-8.729,3.49-15.71,3.99-30.923s3.741-28.927-2.991-48.13-5.486-42.144-33.666-63.343c0,0-4.988,22.445-1.246,34.664S3758.633,1045.29,3758.385,1063.745Z" transform="translate(-3709.627 -906.9)" fill="#3c8f7c"/>
        <path id="Tracé_13" data-name="Tracé 13" d="M3758.392,1063.752c-.248,18.456,14.215,25.437,13.964,35.662s2.991,21.2,5.735,29.426c1.736,5.209.776,19.714.467,33.325h1.667c.225-2.843.443-4.629.443-4.629l.832-34.413s-1.664-26.934-4.655-48.88-25.186-85.3-25.186-85.3-4.988,22.445-1.246,34.664S3758.64,1045.3,3758.392,1063.752Z" transform="translate(-3709.634 -906.908)" fill="#327f6b"/>
        <path id="Tracé_14" data-name="Tracé 14" d="M3775.3,1528.55h-38.625a4.1,4.1,0,0,0-3.978,5.046l14.081,59.374a4.088,4.088,0,0,0,3.978,3.149h46.4a4.092,4.092,0,0,0,3.978-3.149l14.081-59.374a4.1,4.1,0,0,0-3.978-5.046Z" transform="translate(-3697.992 -1289.039)" fill="#db4949"/>
      </g>
      <path id="Tracé_21" data-name="Tracé 21" d="M2176.8,361.259c20.632.442,37.147,11.1,36.887,23.809-.129,6.355-4.428,12.017-11.272,16.036l7.992,18.916-17.323-14.942a56.7,56.7,0,0,1-17.219,2.2c-20.631-.442-37.147-11.1-36.887-23.809S2156.168,360.818,2176.8,361.259Z" transform="translate(-1450.451 -201.624)" fill="#b91c1c"/>
      <path id="Tracé_22" data-name="Tracé 22" d="M1876.615,453.173c-19.434-.364-35.381,9.043-35.617,21.014-.118,5.985,3.713,11.476,10,15.519l-8.237,17.5,16.87-13.408a53.452,53.452,0,0,0,16.123,2.722c19.434.364,35.381-9.043,35.617-21.012S1896.049,453.537,1876.615,453.173Z" transform="translate(-1313.73 -278.434)" fill="#f7cc7f"/>
      <path id="Tracé_23" data-name="Tracé 23" d="M3116.243,506.44c18.511.022,33.516,8.123,33.511,18.094,0,4.985-3.755,9.495-9.822,12.754L3147.44,552l-15.8-11.446a57.6,57.6,0,0,1-15.405,2c-18.511-.022-33.516-8.123-33.511-18.094S3097.732,506.42,3116.243,506.44Z" transform="translate(-2156.671 -340.21)" fill="#fbdfb3"/>
      <path id="Tracé_24" data-name="Tracé 24" d="M1213.2,407.11c-17.816.024-32.256,8.938-32.253,19.911,0,5.486,3.613,10.45,9.453,14.037l-7.226,16.188,15.212-12.6a48.97,48.97,0,0,0,14.824,2.2c17.816-.024,32.256-8.938,32.253-19.911S1231.019,407.086,1213.2,407.11Z" transform="translate(-853.305 -245.459)" fill="#96d9c9"/>
      <g id="Groupe_22" data-name="Groupe 22" transform="translate(203.993 275.281)">
        <path id="Tracé_46" data-name="Tracé 46" d="M729.359,1518.285H723.98l11.463-99.645h5.379Z" transform="translate(-716.689 -1279.909)" fill="#0e2e35"/>
        <path id="Tracé_47" data-name="Tracé 47" d="M922.646,1518.285h5.379l-11.466-99.645H911.18Z" transform="translate(-849.257 -1279.909)" fill="#0e2e35"/>
        <path id="Tracé_48" data-name="Tracé 48" d="M1051.919,1518.285h-5.379L1058,1418.64h5.379Z" transform="translate(-945.114 -1279.909)" fill="#0e2e35"/>
        <path id="Tracé_49" data-name="Tracé 49" d="M1245.206,1518.285h5.379l-11.466-99.645h-5.379Z" transform="translate(-1077.682 -1279.909)" fill="#0e2e35"/>
        <path id="Tracé_50" data-name="Tracé 50" d="M801.73,1092.831H728.365a17.658,17.658,0,0,1-17.163-15.569L699.079,958.839a13.8,13.8,0,0,1,13.976-15.569H786.42a17.66,17.66,0,0,1,17.163,15.569l12.123,118.422A13.8,13.8,0,0,1,801.73,1092.831Z" transform="translate(-698.996 -943.27)" fill="#e25a44"/>
        <path id="Tracé_51" data-name="Tracé 51" d="M871.54,1092.831H798.175a17.658,17.658,0,0,1-17.163-15.569L768.889,958.839a13.8,13.8,0,0,1,13.976-15.569H856.23a17.66,17.66,0,0,1,17.163,15.569l12.123,118.422A13.8,13.8,0,0,1,871.54,1092.831Z" transform="translate(-748.433 -943.27)" fill="#f47458"/>
        <path id="Tracé_52" data-name="Tracé 52" d="M862.962,1403.658H758.975a16.544,16.544,0,0,1-16.083-14.589h0a12.932,12.932,0,0,1,13.1-14.589H859.977a16.544,16.544,0,0,1,16.083,14.589h0A12.935,12.935,0,0,1,862.962,1403.658Z" transform="translate(-730.027 -1248.637)" fill="#e25a44"/>
        <path id="Tracé_53" data-name="Tracé 53" d="M951.922,1403.658H847.935a16.544,16.544,0,0,1-16.083-14.589h0a12.931,12.931,0,0,1,13.1-14.589H948.937a16.544,16.544,0,0,1,16.083,14.589h0A12.935,12.935,0,0,1,951.922,1403.658Z" transform="translate(-793.025 -1248.637)" fill="#f47458"/>
      </g>
      <path id="Tracé_54" data-name="Tracé 54" d="M3765.291,1505.5h5.661l-12.07-104.912h-5.662Z" transform="translate(-2657.891 -991.846)" fill="#0e2e35"/>
      <path id="Tracé_55" data-name="Tracé 55" d="M3561.774,1505.5h-5.665l12.071-104.912h5.664Z" transform="translate(-2518.305 -991.846)" fill="#0e2e35"/>
      <path id="Tracé_56" data-name="Tracé 56" d="M3425.673,1505.5h5.662l-12.07-104.912H3413.6Z" transform="translate(-2417.385 -991.846)" fill="#0e2e35"/>
      <path id="Tracé_57" data-name="Tracé 57" d="M3222.162,1505.5H3216.5l12.07-104.912h5.662Z" transform="translate(-2277.806 -991.846)" fill="#0e2e35"/>
      <path id="Tracé_58" data-name="Tracé 58" d="M3433.733,1057.557h77.243a18.593,18.593,0,0,0,18.071-16.392l12.765-124.682A14.53,14.53,0,0,0,3527.1,900.09h-77.243a18.593,18.593,0,0,0-18.071,16.393l-12.765,124.682A14.53,14.53,0,0,0,3433.733,1057.557Z" transform="translate(-2421.16 -637.41)" fill="#e25a44"/>
      <path id="Tracé_59" data-name="Tracé 59" d="M3360.234,1057.557h77.243a18.593,18.593,0,0,0,18.071-16.392l12.765-124.682A14.53,14.53,0,0,0,3453.6,900.09h-77.243a18.593,18.593,0,0,0-18.071,16.393l-12.765,124.682A14.532,14.532,0,0,0,3360.234,1057.557Z" transform="translate(-2369.112 -637.41)" fill="#f47458"/>
      <path id="Tracé_60" data-name="Tracé 60" d="M3327.031,1384.8h109.486a17.425,17.425,0,0,0,16.935-15.362h0a13.617,13.617,0,0,0-13.789-15.362H3330.177a17.425,17.425,0,0,0-16.935,15.362h0A13.615,13.615,0,0,0,3327.031,1384.8Z" transform="translate(-2346.257 -958.909)" fill="#e25a44"/>
      <path id="Tracé_61" data-name="Tracé 61" d="M3233.371,1384.8h109.486a17.425,17.425,0,0,0,16.935-15.362h0A13.617,13.617,0,0,0,3346,1354.08H3236.517a17.425,17.425,0,0,0-16.935,15.362h0A13.616,13.616,0,0,0,3233.371,1384.8Z" transform="translate(-2279.931 -958.909)" fill="#f47458"/>
      <path id="Tracé_62" data-name="Tracé 62" d="M3189.272,975.283c-.508-1.474,6.654-2.638,7.039-4.124s-9.032-1.637-9.365-2.945c-.613-2.411,10.325-.47,10.115-1.6s-11.393-3.683-10.176-5.615,11.317,3.861,11.63,2.551-9.879-4.541-9.686-7.416c.1-1.538,16.717,7.725,18.648,6.9s-2.049-8.069-.508-9.137,5.9,14.709,6.954,15.237,23.5,13.442,31.5,15.511c.981-2.676,8.014-16.862,8.878-19.393,4.48,3.21,9.683,3.925,14.306,6.855-3.385,8.4-14.992,29.073-17.335,30.12-7.132,3.193-34.591-19.746-40.075-23.674s-8.641-2.673-12.356-3.922S3189.78,976.757,3189.272,975.283Z" transform="translate(-2256.768 -675.476)" fill="#f9c07e"/>
      <g id="Groupe_26" data-name="Groupe 26" transform="translate(250.921 209.718)">
        <path id="Tracé_63" data-name="Tracé 63" d="M1121.94,1111.989l.689,49.933,21.721,6.444-2.612-34.892,1.345-23.081s-16.638-4.272-17.116-3.552S1121.94,1111.989,1121.94,1111.989Z" transform="translate(-1045.438 -993.483)" fill="#ea9486"/>
        <path id="Tracé_64" data-name="Tracé 64" d="M1115.671,945.3c.972.041,3.633.928,7.529,8.262,4.973,9.365,7.512,46.481,7.512,46.481l-16.965-.773-2.787-5.9L1106.37,947.9S1115.4,945.288,1115.671,945.3Z" transform="translate(-1034.411 -879.144)" fill="#184655"/>
        <path id="Tracé_65" data-name="Tracé 65" d="M939.463,931.33c6.2.009,21.552,1.812,28.676,4.08,0,0,13.725,47.263,3.782,81.326-2.227,7.626-2.1,30.742-2.1,30.742l-71.783-3.333s10.567-57.063,7.7-66.428-2.936-42-2.936-42,.441-.067,14.443-2.481A145.69,145.69,0,0,1,939.463,931.33Z" transform="translate(-886.88 -869.251)" fill="#3c8f7c"/>
        <path id="Tracé_66" data-name="Tracé 66" d="M939.627,1300.006s38.061-5.714,48.676.268-11.326,33.337-11.326,33.337-29.23-1.92-37.854-1.868c-8.56.052-34.723,2.183-49.927-.02s-13.483-28.014-10.614-31.162S939.627,1300.006,939.627,1300.006Z" transform="translate(-871.742 -1128.59)" fill="#355389"/>
        <path id="Tracé_67" data-name="Tracé 67" d="M1102.911,1684.57s-1.611,5.729,1.681,9.388,16.614,6.954,18.409,8.939a5.688,5.688,0,0,1,1.713,3.718l-37.125.07.076-11.177,1.474-8.072Z" transform="translate(-1021.112 -1402.667)" fill="#f7a491"/>
        <path id="Tracé_68" data-name="Tracé 68" d="M1101.954,1722.205s-9.421,4.121-14.09,1.982-4.55-2.775-5.857-1.888-1.477,11.367-1.477,11.367h41.747c2.9-.152,4.3-2.326,1.894-4.08a34.392,34.392,0,0,0-4.626-2.562C1116.228,1725.258,1101.954,1722.205,1101.954,1722.205Z" transform="translate(-1016.112 -1429.111)" fill="#0e2e35"/>
        <path id="Tracé_69" data-name="Tracé 69" d="M1118.207,1309.613c3.467-5.691,12.173-13.956,23.111-8.093,10.433,5.592,7.681,23.411,3.09,34.323s-33.993,74.809-35.715,83.833l-18.073-1.731s8.653-52.093,10.757-64.683C1103.4,1341.146,1112.207,1319.465,1118.207,1309.613Z" transform="translate(-1023.258 -1129.981)" fill="#466eb6"/>
        <path id="Tracé_70" data-name="Tracé 70" d="M955.318,1626.97s1.483,17.049,4.208,21.771-.143,12.748-.286,13.851-5.737,2.676-14.63,1.731-8.749-2.991-8.031-6.295,5.452-7.556,5.738-10.7-2.726-14.478-2.726-14.478Z" transform="translate(-913.959 -1361.877)" fill="#f7a491"/>
        <path id="Tracé_71" data-name="Tracé 71" d="M942.167,1724.329c-9.158-.972-8.026-5.457-7.287-8.86.461-2.13,3.091-4.643,4.655-7.019.82.651,2.151,1.8,6.126,2.968,4.13,1.217,9.791-1.191,13.4-2.7a43.751,43.751,0,0,1,1.223,11.773C960.135,1721.626,951.324,1725.3,942.167,1724.329Z" transform="translate(-912.627 -1419.578)" fill="#0e2e35"/>
        <path id="Tracé_72" data-name="Tracé 72" d="M894.846,1329.628c1.847,13.935,11,83.308,11,83.308l-21.228,2.624s-26.1-90.548-24.765-104.4,11.11-15.015,11.11-15.015S889.955,1292.74,894.846,1329.628Z" transform="translate(-859.799 -1127.543)" fill="#466eb6"/>
        <g id="Groupe_23" data-name="Groupe 23" transform="translate(14.135)">
          <path id="Tracé_73" data-name="Tracé 73" d="M941.672,720.686s-8.574-6.38-13.343,3.236a21.71,21.71,0,0,0-3.66-.2c-1.926.435-3.9,2.087-5.659,2.939-6.269,3.035-9.639,9.625-10.544,15.847-1.1,7.553,1.792,13.366,6.7,19.27a20.329,20.329,0,0,0,5,4.646c2.408,1.442,4.491.613,6.812,1.328,1.955.6,2.475,2.6,4.894,2.084,3.391-.721,7.208-4.252,11.244-3.368s13.781-1.76,13.807-1.766c12.523-3.4,6.344-25.635,4.734-33.482C960.149,723.841,949.415,718.67,941.672,720.686Z" transform="translate(-908.235 -718.612)" fill="#13375b"/>
          <path id="Tracé_74" data-name="Tracé 74" d="M1000.956,863.683l2.414,8.154,1.287,4.553s2.183,5.192-3.82,6.172c-11.522,1.885-15.733-7.3-15.733-7.3L982.92,850.04Z" transform="translate(-961.124 -811.684)" fill="#f7a491"/>
          <path id="Tracé_75" data-name="Tracé 75" d="M983.636,858.227c4.678,8.125,13.643,12.371,19.766,13.7l-2.437-8.233L982.93,850.05Z" transform="translate(-961.131 -811.691)" fill="#f47458"/>
          <path id="Tracé_76" data-name="Tracé 76" d="M978,760.328c7.6-3.5,16.789.336,19.095,7.742a88.615,88.615,0,0,1,2.816,11.8c1.78,10.836-2.8,22.153-8.157,22.807s-21.179-4.564-23.939-19.918C966.111,773.276,970.025,764,978,760.328Z" transform="translate(-950.149 -747.228)" fill="#f7a491"/>
          <path id="Tracé_77" data-name="Tracé 77" d="M964.074,833.433a4.05,4.05,0,0,1-3.228,4.81,4.267,4.267,0,0,1-4.48-3.867,4.05,4.05,0,0,1,3.228-4.809A4.263,4.263,0,0,1,964.074,833.433Z" transform="translate(-942.284 -797.167)" fill="#f7a491"/>
        </g>
        <path id="Tracé_78" data-name="Tracé 78" d="M1017.179,861.788s-7.124,1.538-7.906,3.838-.248,5.752,2.9,8.621,10.562,1.836,12.675.56,4.185-7.235,2.521-10.775S1017.179,861.788,1017.179,861.788Z" transform="translate(-965.424 -819.84)" fill="#13375b"/>
        <path id="Tracé_79" data-name="Tracé 79" d="M1027.784,874.288s-.2,2.615.7,3.161a9.2,9.2,0,0,0,3.073,1.182,4.765,4.765,0,0,0,4.4-1.436,2.957,2.957,0,0,0,.277-.359,10.932,10.932,0,0,0,1.182-3.534,16.522,16.522,0,0,0-4.585-.753A20.367,20.367,0,0,0,1027.784,874.288Z" transform="translate(-978.746 -827.615)" fill="#f7a491"/>
        <g id="Groupe_24" data-name="Groupe 24" transform="translate(82.635 3.05)">
          <path id="Tracé_80" data-name="Tracé 80" d="M1154.422,760.815c-.844-.137-1.03-1.232-1.057-2.95-.026-1.535-1.944-4.658-3.975-7.964-3.531-5.746-7.532-12.257-6.161-16.737a5.752,5.752,0,0,1,3.344-3.572,4.443,4.443,0,0,1,4.538.19c6.289,4.188,5.679,26.513,5.65,27.462l-.155.73-.02.07c-.873,2.475-1.585,2.784-1.973,2.793C1154.535,760.832,1154.474,760.82,1154.422,760.815Zm1.027-3.68c.187-6.307-.365-23.128-5.066-26.259a3.164,3.164,0,0,0-3.263-.088,4.427,4.427,0,0,0-2.629,2.758c-1.2,3.911,2.807,10.427,6.024,15.663,2.311,3.765,4.138,6.736,4.17,8.633.009.511.035.881.064,1.15a11.229,11.229,0,0,0,.587-1.357Z" transform="translate(-1142.953 -729.064)" fill="#c8c6af"/>
        </g>
        <g id="Groupe_25" data-name="Groupe 25" transform="translate(92.568 31.381)">
          <path id="Tracé_81" data-name="Tracé 81" d="M1179.83,1090.069c1.372,0,2.481-1.43,2.478-3.193l-.353-257.549c0-1.763-1.115-3.187-2.486-3.187s-2.481,1.43-2.478,3.193l.353,257.549C1177.346,1088.645,1178.458,1090.072,1179.83,1090.069Z" transform="translate(-1176.99 -826.14)" fill="#c8c6af"/>
        </g>
        <path id="Tracé_82" data-name="Tracé 82" d="M1173.6,1728.366l5.685-.093a1.55,1.55,0,0,0,1.52-1.675l-.875-10.851a1.555,1.555,0,0,0-1.573-1.427l-4.258.07a1.55,1.55,0,0,0-1.523,1.471l-.552,10.874A1.554,1.554,0,0,0,1173.6,1728.366Z" transform="translate(-1080.905 -1423.735)" fill="#f47458"/>
        <path id="Tracé_83" data-name="Tracé 83" d="M1173.064,859.177l4.418-.073a1.822,1.822,0,0,0,1.792-1.853l-.572-34.58a1.822,1.822,0,0,0-1.853-1.792l-4.418.073a1.822,1.822,0,0,0-1.792,1.853l.572,34.58A1.822,1.822,0,0,0,1173.064,859.177Z" transform="translate(-1079.924 -791.034)" fill="#f47458"/>
        <path id="Tracé_84" data-name="Tracé 84" d="M898.492,1095.461s.572,18.368,1.048,20.458c0,0,36.191,8,52.043,10.1.2,0,.394.006.589,0,.333-.006.724.114.963-.228a17.487,17.487,0,0,1,5.084-4.573c2.378-1.515,4.821-2.953,7.813-1.415a9.246,9.246,0,0,0,3.1.762,10.882,10.882,0,0,1,4.112,1.564,2.7,2.7,0,0,1,1.051,3.482,9.185,9.185,0,0,0-.96,2.627c-.055,1.529-3.455,13.53-6,13.743a45.166,45.166,0,0,1-10.585-2.273,11.768,11.768,0,0,0-4.839-1.007,7.6,7.6,0,0,1-1.03-.067v0c-11.738-.6-51.238-1.917-51.238-1.917s-18.85-1.751-20.256-4.909-2.632-37.469-2.632-37.469Z" transform="translate(-871.803 -984.689)" fill="#f7a491"/>
        <path id="Tracé_85" data-name="Tracé 85" d="M871.814,1001.681c-1.126-22.755-.96-50.8,11.837-55.583,5.049-1.888,13.953,9.464,12.351,56.044C889.17,1002.705,879.139,1003.158,871.814,1001.681Z" transform="translate(-868 -879.571)" fill="#3c8f7c"/>
      </g>
      <path id="Tracé_86" data-name="Tracé 86" d="M3433.979,716.922a48.494,48.494,0,0,1,4.43-23.376c3.085-6.415,10.713-10.057,17.671-10.065,22.092-.029,24.9,29.16,38.966,40.419,4.3,3.441,9.1,6.242,13.165,9.952,15.015,13.7,8.25,39.059-5.536,51.072-9.566,8.335-24.6,13.071-36.395,6.555-6.155-3.4-10.827-9.056-14.157-15.248-4.725-8.79-7.769-18.934-11.131-28.305C3437.417,737.951,3434.42,727.571,3433.979,716.922Z" transform="translate(-2431.779 -484.015)" fill="#13375b"/>
      <path id="Tracé_87" data-name="Tracé 87" d="M3423.485,950.08s16.5-16.918,20.744-24.266-2.892-2.565-10.182-4.5c-2.761-.733-2.063-16.909-7.281-11.65-8.562,8.627-19.325,23.712-19.325,23.712Z" transform="translate(-2413.023 -643.446)" fill="#96d9c9"/>
      <path id="Tracé_88" data-name="Tracé 88" d="M3472.42,884.933s14.808-2.924,21.563,2.723-1.447,55.837-1.441,64.157,4.64,31.828,4.64,31.828-44.879,7.856-52.008-4.634c0,0-2.028-47.587-1.728-53.573s6.954-30.459,8.8-33.08S3472.42,884.933,3472.42,884.933Z" transform="translate(-2438.499 -626.141)" fill="#50bfa5"/>
      <path id="Tracé_89" data-name="Tracé 89" d="M3510.438,807.476s.079.444.219,1.2c.671,3.613,3.257,15.6,5,18.9,2.11,3.984-7.229,16.687-16.218,15.138-2.676-.461,2.262-11.674,2.025-12.861-.455-2.273-1.071-5.376-1.7-8.554-.356-1.795-.715-3.613-1.054-5.323-.96-4.856-1.745-8.831-1.745-8.831Z" transform="translate(-2476.424 -571.586)" fill="#fbc990"/>
      <path id="Tracé_90" data-name="Tracé 90" d="M3510.65,808.672c-.14-.753-.219-1.2-.219-1.2l-13.471-.336,1.745,8.831c.336,1.7.695,3.508,1.048,5.291a12.619,12.619,0,0,0,6.432-3.219,16.943,16.943,0,0,0,4.871-7.232C3510.893,809.965,3510.755,809.232,3510.65,808.672Z" transform="translate(-2476.417 -571.587)" fill="#ffba6b"/>
      <path id="Tracé_91" data-name="Tracé 91" d="M3480.284,703.492s6.35-.732,10.328,4.4,8.268,21.024-1.617,29.659-19.655-1.138-21.1-11.5S3465.882,703.119,3480.284,703.492Z" transform="translate(-2455.334 -498.162)" fill="#fbc990"/>
      <path id="Tracé_92" data-name="Tracé 92" d="M3457.532,766.613c1.179,2.288,3.161,3.557,4.424,2.831s1.331-3.169.152-5.46-3.16-3.557-4.424-2.831S3456.35,764.323,3457.532,766.613Z" transform="translate(-2447.898 -538.875)" fill="#fbc990"/>
      <path id="Tracé_93" data-name="Tracé 93" d="M3509.62,697.372s8.481,15.105,14.551,15.806,6.864,8.726,6.864,8.726-2.168-18.5-8.177-22.063S3509.62,697.372,3509.62,697.372Z" transform="translate(-2485.383 -493.739)" fill="#13375b"/>
      <path id="Tracé_94" data-name="Tracé 94" d="M3553.723,754.587c-.493,2.682.5,5.142,2.218,5.5s3.511-1.538,4-4.22-.5-5.142-2.218-5.5S3554.216,751.9,3553.723,754.587Z" transform="translate(-2516.525 -531.352)" fill="#fbc990"/>
      <g id="Groupe_27" data-name="Groupe 27" transform="translate(848.862 352.627)">
        <path id="Tracé_95" data-name="Tracé 95" d="M3358.42,1592.773s13.623,16.334,13.713,17.755-.543,16.932-2.163,18.354-6.379,2.428-4.85,4.027c1.156,1.208,10.054.948,15.949.625,1.722-.094,3.878-13.827,4.561-15.847.99-2.93,3.4-9.534,2.5-11.577-.438-1-2.536-3.041-5.492-4.952-3.111-2.008-15-18.558-15-18.558Z" transform="translate(-3227.17 -1473.365)" fill="#f9c07e"/>
        <path id="Tracé_96" data-name="Tracé 96" d="M3394.11,1645.88s-9.146,25.755-12.727,27c-.951.33-5.513,1.167-6.374,3.184a8.717,8.717,0,0,0,0,2.638h19.066s2.41-11.347,3.365-16.334c0,0,5.046-12.181,4.486-13.29S3394.11,1645.88,3394.11,1645.88Z" transform="translate(-3238.837 -1518.178)" fill="#243f74"/>
        <path id="Tracé_97" data-name="Tracé 97" d="M2964.4,1625.29s-11.125,15.663-10.144,20.615c.525,2.653,2.857,6.126,1.518,8.621a6.7,6.7,0,0,1-2.869,3.12l-34.7.557c-1.891.029-.642-1.185.884-2.3,2.5-1.83,4.509-3.041,12.476-6.887.52-.251,2.411-1.45,3.094-1.868a23.973,23.973,0,0,0,4.964-4.378c2.492-2.77,13.448-25.329,13.448-25.329Z" transform="translate(-2914.748 -1498.038)" fill="#fbc990"/>
        <path id="Tracé_98" data-name="Tracé 98" d="M2928.6,1717.363c9.178,2.349,15.96.753,19.757-.773.978,2.767,2.276,6.24,1.588,8.244-.844,2.452-2.043,3.006-3.1,3.035-8.381.219-30.707.519-37.1.6a1.042,1.042,0,0,1-.812-1.713C2910.518,1724.864,2927.914,1717.781,2928.6,1717.363Z" transform="translate(-2908.683 -1568.252)" fill="#243f74"/>
        <path id="Tracé_99" data-name="Tracé 99" d="M3171.131,1238.934s13.775,15.721,17.288,18.214,37.23,64.578,37.23,64.578l-12.012,8.77s-30.132-37.574-44.286-57.67c-11.965-16.994-7.559-15.914-14.595-26.26a13.822,13.822,0,0,1,2.113-18.015c.636-.575,1.325-1.173,2.075-1.8,10.416-8.682,81.811-18.45,81.811-18.45l45.667,4.471s-37.311,26.163-38.7,26.861-51.524,8.008-52.569,8.008S3171.131,1238.934,3171.131,1238.934Z" transform="translate(-3081.24 -1208.3)" fill="#13375b"/>
        <path id="Tracé_100" data-name="Tracé 100" d="M3195.56,1220.869s7.833,23.5-3.917,34.466-81.551,9.747-104.527,9.747c0,0-9.4,25.76-10.445,29.94s-46.65,58.137-46.65,58.137l-12.531-8.008s49.087-95.387,52.916-99.566,58.487-20.887,72.063-24.719S3195.56,1220.869,3195.56,1220.869Z" transform="translate(-2985.736 -1215.995)" fill="#355389"/>
      </g>
      <path id="Tracé_101" data-name="Tracé 101" d="M3498.96,799.581l9.315-.482a4.077,4.077,0,0,1-4.121,3.878C3499.167,803.381,3498.96,799.581,3498.96,799.581Z" transform="translate(-2477.834 -565.893)" fill="#fff"/>
      <path id="Tracé_102" data-name="Tracé 102" d="M3498.96,799.581l9.315-.482a4.077,4.077,0,0,1-4.121,3.878C3499.167,803.381,3498.96,799.581,3498.96,799.581Z" transform="translate(-2477.834 -565.893)" fill="#fff"/>
      <path id="Tracé_103" data-name="Tracé 103" d="M3312.362,999.786c-.508-1.474,6.654-2.638,7.039-4.127s-9.032-1.637-9.365-2.945c-.613-2.411,10.325-.47,10.115-1.6s-11.393-3.683-10.176-5.615,11.317,3.861,11.63,2.551-9.879-4.541-9.686-7.416c.1-1.538,16.717,7.725,18.648,6.9s-2.049-8.069-.508-9.137,5.9,14.709,6.955,15.237,23.5,13.442,31.495,15.511c.981-2.676,8.014-16.862,8.878-19.393,4.479,3.21,9.683,3.925,14.306,6.855-3.385,8.4-14.992,29.073-17.335,30.12-7.133,3.193-34.592-19.746-40.075-23.674s-8.641-2.673-12.356-3.922S3312.87,1001.26,3312.362,999.786Z" transform="translate(-2343.936 -692.826)" fill="#fbc990"/>
      <path id="Tracé_104" data-name="Tracé 104" d="M3547.121,931.939s9.715-21.54,11.192-29.9-5.7-18.853-13.208-18.176-18.774,37.866-18.774,37.866Z" transform="translate(-2497.216 -625.898)" fill="#96d9c9"/>
      <g id="Groupe_28" data-name="Groupe 28" transform="translate(399.512 296.273)">
        <path id="Tracé_105" data-name="Tracé 105" d="M2805.68,1505.5h5.665l-12.07-104.912h-5.665Z" transform="translate(-2377.843 -1288.119)" fill="#0e2e35"/>
        <path id="Tracé_106" data-name="Tracé 106" d="M2602.172,1505.5h-5.662l12.071-104.912h5.662Z" transform="translate(-2238.264 -1288.119)" fill="#0e2e35"/>
        <path id="Tracé_107" data-name="Tracé 107" d="M1628.013,1505.5h5.662L1621.6,1400.59h-5.665Z" transform="translate(-1543.861 -1288.119)" fill="#0e2e35"/>
        <path id="Tracé_108" data-name="Tracé 108" d="M1424.5,1505.5h-5.662l12.07-104.912h5.662Z" transform="translate(-1404.282 -1288.119)" fill="#0e2e35"/>
        <path id="Tracé_109" data-name="Tracé 109" d="M1760.854,1149h-366.1a20.435,20.435,0,0,1-20.14-19.025l-5.621-95.746A17.741,17.741,0,0,1,1386.9,1015.2H1753a20.435,20.435,0,0,1,20.14,19.025l5.621,95.746A17.739,17.739,0,0,1,1760.854,1149Z" transform="translate(-1368.956 -1015.2)" fill="#e25a44"/>
        <path id="Tracé_110" data-name="Tracé 110" d="M1810.737,1149H1444.63a20.435,20.435,0,0,1-20.14-19.025l-5.621-95.746a17.741,17.741,0,0,1,17.907-19.025h366.1a20.435,20.435,0,0,1,20.14,19.025l5.621,95.746A17.735,17.735,0,0,1,1810.737,1149Z" transform="translate(-1404.279 -1015.2)" fill="#f47458"/>
        <path id="Tracé_111" data-name="Tracé 111" d="M1808.519,1410.366H1403.933a14.643,14.643,0,0,1-14.411-13.658h0a12.716,12.716,0,0,1,12.812-13.658h404.585a14.643,14.643,0,0,1,14.411,13.658h0A12.716,12.716,0,0,1,1808.519,1410.366Z" transform="translate(-1383.503 -1275.698)" fill="#e25a44"/>
        <path id="Tracé_112" data-name="Tracé 112" d="M1848.459,1410.366H1460.432a14.672,14.672,0,0,1-14.46-13.658h0a12.735,12.735,0,0,1,12.855-13.658h388.027a14.672,14.672,0,0,1,14.46,13.658h0A12.733,12.733,0,0,1,1848.459,1410.366Z" transform="translate(-1423.479 -1275.698)" fill="#f97f6b"/>
      </g>
      <path id="Tracé_113" data-name="Tracé 113" d="M2497.725,947.92l-23.516,29.913c-1.736,1-34.51,18.281-34.51,18.281s-5.88,3.307-9.5,5.06h0s1.576,4,3.137,8.049c13.527-5.1,52.586-19.865,54.314-21.138,1.777-1.307,28.437-33,28.437-33Z" transform="translate(-1720.977 -671.282)" fill="#f8a492"/>
      <path id="Tracé_114" data-name="Tracé 114" d="M2599.965,900.18s-4.526.841-12.2,13.935c-7.165,12.222-13.521,25.93-13.521,25.93l12.861,13.419s9.456-28.769,10.261-29.694S2599.965,900.18,2599.965,900.18Z" transform="translate(-1822.981 -637.474)" fill="#355389"/>
      <path id="Tracé_115" data-name="Tracé 115" d="M2472.825,1688s.692,11.446.695,11.469c.254,1.453,1.255,5.043,1.255,6.365,0,4.964-23.569-4.214-18.286-6.412.479-.2,2.982-1.7,3.14-3.394.242-2.6.858-7.868.858-7.868Z" transform="translate(-1739.047 -1195.379)" fill="#f7a491"/>
      <path id="Tracé_116" data-name="Tracé 116" d="M2411.116,1726.484s5.533,1.518,8.367,1.9,6.569-2.816,8.574-1.952c2.206.951,2.119,9.5,2.119,9.5s-29.674,2.434-38.018-.085C2388.855,1734.851,2399.8,1730.021,2411.116,1726.484Z" transform="translate(-1693.615 -1222.488)" fill="#0e2e35"/>
      <path id="Tracé_117" data-name="Tracé 117" d="M2335.735,1683.758s.692,11.446.695,11.469c.254,1.453,1.255,5.043,1.255,6.365,0,4.964-23.569-4.214-18.287-6.412.479-.2,4.048-.832,4.2-2.519.242-2.6.694-10.652.694-10.652Z" transform="translate(-1641.965 -1191.137)" fill="#f7a491"/>
      <path id="Tracé_118" data-name="Tracé 118" d="M2274.019,1726.484s5.533,1.518,8.367,1.9,6.569-2.816,8.574-1.952c2.207.951,2.119,9.5,2.119,9.5s-29.674,2.434-38.018-.085C2251.76,1734.851,2262.707,1730.021,2274.019,1726.484Z" transform="translate(-1596.527 -1222.488)" fill="#0e2e35"/>
      <path id="Tracé_119" data-name="Tracé 119" d="M2420.909,1276.6l-56.336.242s-25.448-.668-29.47,8.133-4.293,113.134-4.293,113.134,13.316.747,14.011,0l16.789-58.207a47.127,47.127,0,0,0,1.64-17.475l-1.462-15.564,23.245,1.188s26.353-.42,35.044-9.161S2420.909,1276.6,2420.909,1276.6Z" transform="translate(-1650.593 -904.041)" fill="#3c8f7c"/>
      <path id="Tracé_120" data-name="Tracé 120" d="M2546.765,1255.31l-60.574,3.715s-26.07,2.119-30.091,10.918,1.345,113.087,1.345,113.087,15.322.662,15.292,0c-.035-.788,7.226-42.929,10.69-59.03a56.547,56.547,0,0,0,1.144-15.564l-.887-13.637s62.2-1.234,64.992-4.045C2557.358,1282.016,2546.765,1255.31,2546.765,1255.31Z" transform="translate(-1738.259 -888.964)" fill="#50bfa5"/>
      <path id="Tracé_121" data-name="Tracé 121" d="M2599.965,899.763c8.779-.753,24.509,1.214,24.509,1.214s10.022.479,13.025,1.827c4.421,1.984,13.022,4.287,9.569,24.567-2.469,14.513-9.216,62.608-12.668,87l-60.159-7.238C2586.955,958.9,2591.654,900.475,2599.965,899.763Z" transform="translate(-1822.981 -637.057)" fill="#466eb6"/>
      <path id="Tracé_122" data-name="Tracé 122" d="M2696.7,839.192l5.656,19s-9.613,10.958-16.285,9.893c-5.6-.9-2.991-8.9-2.991-8.9s1.372-10.772-.283-16.077S2696.7,839.192,2696.7,839.192Z" transform="translate(-1899.628 -594.168)" fill="#f7a491"/>
      <path id="Tracé_123" data-name="Tracé 123" d="M2694.893,846.087a35.688,35.688,0,0,1-10.8,5.025,27.831,27.831,0,0,0-.812-7.754c-.765-2.448,2.139-3.47,5.49-3.861,4.421-.225,8.417-.055,8.417-.055l1.085,3.651A15.31,15.31,0,0,1,2694.893,846.087Z" transform="translate(-1900.112 -594.418)" fill="#f47458"/>
      <g id="Groupe_29" data-name="Groupe 29" transform="translate(772.302 199.464)">
        <path id="Tracé_124" data-name="Tracé 124" d="M2672.435,724.21c.441-.193,5.066,23.041-.522,29.864s-17.128,9.666-21.634,4.85c-4.985-5.326-6.33-30.523,2.568-37.74S2672.435,724.21,2672.435,724.21Z" transform="translate(-2646.346 -708.357)" fill="#f7a491"/>
        <path id="Tracé_125" data-name="Tracé 125" d="M2659.828,683.548a25.914,25.914,0,0,1,14.063,6.893c3.292.181,7.851,1.71,12.914,9.018,6.228,8.989,2.711,19.6-3.54,25.086s-5.79,11.349-5.79,11.349l-1.229-2.968a16.99,16.99,0,0,1-1.27-7.095,14,14,0,0,1,.794-4.363c1.366-3.49-3.747-5.431-5.317-8.166-1.208-2.1-1.573-7.071-3.49-10.556l-2.191-2.615s-4.888-3.336-9.383-2.025S2650.471,682.244,2659.828,683.548Z" transform="translate(-2650.564 -683.477)" fill="#13375b"/>
        <path id="Tracé_126" data-name="Tracé 126" d="M2716.417,786.993c.131,2.863,1.579,5.122,3.231,5.046s2.886-2.457,2.755-5.317-1.579-5.122-3.231-5.046S2716.285,784.133,2716.417,786.993Z" transform="translate(-2695.961 -753.016)" fill="#f7a491"/>
      </g>
      <path id="Tracé_127" data-name="Tracé 127" d="M2662.539,824.63l-9.059.1a3.961,3.961,0,0,0,4.232,3.511C2662.571,828.325,2662.539,824.63,2662.539,824.63Z" transform="translate(-1879.096 -583.972)" fill="#fff"/>
      <path id="Tracé_128" data-name="Tracé 128" d="M2596.422,1160.173a39.747,39.747,0,0,0-6.4-5.218,9.312,9.312,0,0,0-3.9-1.118s-3.029-.152-3.266.56a1.559,1.559,0,0,0,.805,1.76c.537.245,1.748.158,2.285.406a4.546,4.546,0,0,1,1.258,2.691c.011.689-8.9-.061-8.9-.061s-2.545-.339-3.382-.52c-.715-.155-2.819-.785-2.819-.785s-3.044-.73-3.207.242c-.1.572,2.428,1.984,5.072,2.933,2.848,1.024,5.834,1.579,5.816,1.888-.047.721-4.947.429-4.947.429a15.634,15.634,0,0,0-3.333-.642c-1.334-.654-3.759-1.062-3.878.134a20.788,20.788,0,0,0,3.123,1.739s2.183.581,3.207.922c1.806.6,4.6.651,5.854.96,1.042.257.636.514.686.627a24.565,24.565,0,0,1-3.333-.184,19.109,19.109,0,0,1-3.233-.2,23.021,23.021,0,0,0-3.426-.423c-2.533-.149-2.168,1.5.175,2.031.893.2,1.865.414,2.851.625,3.838.82,7.477.729,7.535,1.156.076.552-6.578.306-6.578.306s-3.616.911-.155,1.69a28.966,28.966,0,0,0,7.372.729c.96-.1,4.457.557,7.728-.344,2.41-.665,5.845-1.719,7.485-2.224Z" transform="translate(-1818.3 -817.095)" fill="#f8a492"/>
      <path id="Tracé_129" data-name="Tracé 129" d="M2367.928,1122.339a39.951,39.951,0,0,0-7.807-2.685,9.317,9.317,0,0,0-4.045.3s-2.9.9-2.869,1.652a1.561,1.561,0,0,0,1.363,1.372c.589.047,1.7-.455,2.285-.409s1.862,1.45,2.11,2.09-8.373,3.018-8.373,3.018-2.507.563-3.356.683c-.724.1-2.918.239-2.918.239s-3.108.368-2.927,1.337c.108.572,2.965,1.021,5.776,1,3.026-.023,6.021-.534,6.108-.239.207.695-4.491,2.11-4.491,2.11a15.592,15.592,0,0,0-3.347.549c-1.479-.155-3.9.3-3.6,1.468a20.835,20.835,0,0,0,3.531.555s2.25-.21,3.327-.242c1.906-.058,4.544-.981,5.825-1.121,1.065-.117.776.263.861.35a24.692,24.692,0,0,1-3.19.98,19.149,19.149,0,0,1-3.1.931,22.967,22.967,0,0,0-3.362.788c-2.428.735-1.514,2.157.867,1.847.907-.12,1.894-.257,2.892-.4,3.884-.557,7.27-1.9,7.468-1.521.26.49-6.067,2.562-6.067,2.562s-3.076,2.1.441,1.64a28.928,28.928,0,0,0,7.17-1.865c.864-.432,4.375-1.016,7.132-2.994,2.034-1.459,5.676-5.355,7.039-6.4Z" transform="translate(-1658.081 -792.805)" fill="#f8a492"/>
      <path id="Tracé_130" data-name="Tracé 130" d="M2719.439,1036.77l-16.48,5.06s3.111,14.221,3.149,15.92c0,0-28.069,14.863-39.818,19.527l.318,10.182c2.3-.846,4.147-1.722,5.291-2.087,2.244-.715,38.146-11.624,38.146-11.624s14.142-4.988,14.612-7.687S2719.439,1036.77,2719.439,1036.77Z" transform="translate(-1888.168 -734.202)" fill="#f7a491"/>
      <path id="Tracé_131" data-name="Tracé 131" d="M2784.636,954.81s-7.9-31.886-12.2-40.063-13.547-9.219-19.55-3.668,11.236,48.068,11.236,48.068Z" transform="translate(-1948.596 -642.737)" fill="#355389"/>
      <path id="Tracé_132" data-name="Tracé 132" d="M2042.631,1652.48s1.229,13.4.42,17.77a16.926,16.926,0,0,1-.625,2.142c-.832,2.448,1.445,9.931,1.445,9.931l30.538.114c1.664.006.552-1.048-.8-2.017-2.215-1.585-4-2.626-11.052-5.924-.461-.216-2.139-1.252-2.743-1.611a20.994,20.994,0,0,1-4.416-3.8c-2.224-2.408-2.559-14.218-2.559-14.218Z" transform="translate(-1446.241 -1170.225)" fill="#af8c8c"/>
      <path id="Tracé_133" data-name="Tracé 133" d="M2055.986,1721.267c-8.049,2.168-14.034.835-17.39-.467-.832,2.446-2.393,10.716-1.462,10.716,7.658,0,14.14,1.45,36.08,1.1.785-.012.689-2.711.178-3.307C2071.976,1727.67,2056.594,1721.626,2055.986,1721.267Z" transform="translate(-1442.419 -1218.607)" fill="#b75742"/>
      <path id="Tracé_134" data-name="Tracé 134" d="M2162,1571.34s6.68,11.682,7.76,15.993a16.818,16.818,0,0,1,.324,2.209c.26,2.574,5.437,8.434,5.437,8.434l27.83-12.572c1.515-.686.067-1.182-1.567-1.5-2.673-.522-4.728-.73-12.514-.8-.508-.006-2.463-.251-3.164-.327a21.2,21.2,0,0,1-5.592-1.62c-3.021-1.27-8.233-11.875-8.233-11.875Z" transform="translate(-1531.048 -1111.306)" fill="#af8c8c"/>
      <path id="Tracé_135" data-name="Tracé 135" d="M1603.283,790.206c-3.665-7.43-12.739-11.644-21.012-11.656-26.271-.032-29.613,33.766-46.335,46.8-5.017,3.911-10.608,7.109-15.386,11.291a22.911,22.911,0,0,0,1.261,8.128,34.3,34.3,0,0,0,4.06,7.623l7.08-4.1-3.076,8.942c6.31,6.563,14.717,11.4,22.909,15.914,11.434,6.137,23.607,8.758,36,9.321,4.62-9.324,7.874-19.661,11.422-29.295,4.252-11.548,7.818-23.569,8.344-35.9A54.882,54.882,0,0,0,1603.283,790.206Z" transform="translate(-1076.791 -551.34)" fill="#13375b"/>
      <path id="Tracé_136" data-name="Tracé 136" d="M2205.716,1614.755c-6.423,5.314-12.421,6.587-16.016,6.794.26,2.571,2.271,10.745,3.12,10.357,6.966-3.178,13.465-4.55,33.284-13.973.709-.339-.5-2.752-1.211-3.082C2222.923,1613.943,2206.417,1614.83,2205.716,1614.755Z" transform="translate(-1550.664 -1143.286)" fill="#b75742"/>
      <path id="Tracé_137" data-name="Tracé 137" d="M1853.76,1125.551c-1.9-.3-6.517-3.607-8.145-3.908-1.264-.234-3.992-.645-5.157-.82-1.424-5.323-8.665-34.346-9.476-42.853-.878-9.216-7.4-49.09-7.4-49.09l-16.877,3.067s7.01,30.675,8.948,45.547c1.663,12.777,15.68,41.5,17.464,44.529,0,.073,0,.146.009.222.271,4.509,2.443,3.006,2.443,3.006l3.528.9s12.488,1.2,13.3,1.5S1855.66,1125.852,1853.76,1125.551Z" transform="translate(-1279.445 -728.615)" fill="#927676"/>
      <path id="Tracé_138" data-name="Tracé 138" d="M1786.212,956.59c11.93,4.045,17.017,34.268,17.017,34.268s-18.718,5.227-23.513,2.486c0,0-5.443-24.129-7.4-23.286Z" transform="translate(-1255.091 -677.422)" fill="#eab054"/>
      <path id="Tracé_139" data-name="Tracé 139" d="M1702.063,947.909h0a4.38,4.38,0,0,0,1.2-.248c2.215-.4,8.037.963,11.808,2.554,4.585,1.935,7.351,19,6.928,37.548-.169,2.837-2.308,46.522-2.524,46.662-5.469,3.52-38.053,5.238-40.32,2.241s-4.016-54.784-5.119-56.6l-2.168-31.676C1675.7,947.247,1696.2,947.868,1702.063,947.909Z" transform="translate(-1183.956 -671.049)" fill="#f7cc7f"/>
      <path id="Tracé_140" data-name="Tracé 140" d="M1729.51,894.809s2.125,10.988,1.7,15.324,1.62,18.3,10.795,18.351,1.742-17.761.878-22.007-1.068-17.4-1.068-17.4Z" transform="translate(-1224.775 -629.613)" fill="#af8c8c"/>
      <path id="Tracé_141" data-name="Tracé 141" d="M1742,895.676c-.143-3.6-.19-6.6-.19-6.6l-12.3,5.732s.435,2.247.87,5.11C1735.767,901,1739.669,899.008,1742,895.676Z" transform="translate(-1224.775 -629.613)" fill="#a77"/>
      <path id="Tracé_142" data-name="Tracé 142" d="M1697.076,801.269a15.226,15.226,0,0,0-6.473,8.332c-1.734,5.7.239,20.411,12.488,23.96s17.551-8.1,15.03-17.2S1710.109,795.719,1697.076,801.269Z" transform="translate(-1196.838 -566.402)" fill="#af8c8c"/>
      <path id="Tracé_143" data-name="Tracé 143" d="M1778.841,833.013c-.239,2.446-1.59,4.316-3.015,4.176s-2.384-2.235-2.145-4.681,1.591-4.316,3.015-4.176S1779.083,830.568,1778.841,833.013Z" transform="translate(-1256.029 -586.589)" fill="#af8c8c"/>
      <path id="Tracé_144" data-name="Tracé 144" d="M1687.608,802.25s-2.221,16.41-7.526,19.369S1677,831.86,1677,831.86s-4.812-16.9-.616-22.331S1687.608,802.25,1687.608,802.25Z" transform="translate(-1185.934 -568.124)" fill="#13375b"/>
      <path id="Tracé_145" data-name="Tracé 145" d="M1688.693,870.643c1.439,2.139,1.433,4.661-.012,5.632s-3.782.026-5.221-2.11-1.433-4.661.012-5.632S1687.254,868.506,1688.693,870.643Z" transform="translate(-1191.403 -614.792)" fill="#af8c8c"/>
      <path id="Tracé_146" data-name="Tracé 146" d="M1744.2,879.82l-8.632,2.171a3.925,3.925,0,0,0,4.862,2.434C1745.093,883.4,1744.2,879.82,1744.2,879.82Z" transform="translate(-1229.066 -623.056)" fill="#fff"/>
      <path id="Tracé_147" data-name="Tracé 147" d="M1499.365,1143.033c.14-.4.484-.417.838-.438a87.034,87.034,0,0,0,10.185-1.086,7.465,7.465,0,0,0,1.628-.47,4.281,4.281,0,0,1,2.819-.193,5.694,5.694,0,0,0,1.573.117c1.716-.061,6.56-1.882,9.062-2.4a1.478,1.478,0,0,0,1.138-1.138c2.168-9.864,6.785-31.991,7.246-39.232.589-9.263,5.656-51.095,5.656-51.095l17.21,4.22s-6.056,30.952-7.529,45.915c-1.138,11.554-11.869,36.331-15.251,43.466-1.6,5.282-5.545,5.551-6.458,5.691a2.126,2.126,0,0,0-1.331.768,9.66,9.66,0,0,1-2.092,1.941,5.018,5.018,0,0,0-1.424,1.509c-.692,1.083-1.3,2.206-1.912,3.336-.4.75-.84,1-1.477.84a1.338,1.338,0,0,1-1.033-1.48,6.764,6.764,0,0,1,.913-3.394,1.83,1.83,0,0,0-.213-2.431,7.741,7.741,0,0,0-1.328-1.383,2.214,2.214,0,0,0-1.766-.581,28.125,28.125,0,0,1-3.7.811l-1.024.242c-.035.006-.56.137-.56.137-.088.026-1.894.28-2.516.3-.5.018-1.307.076-1.993.131a11.019,11.019,0,0,1-1.993-.234,2.4,2.4,0,0,1-1.614-.589c-.19-.161-.374-.341-.289-.627a.631.631,0,0,1,.54-.435,24.844,24.844,0,0,0,2.492-.5c-.63.02-2.6.035-3.231.038a2.969,2.969,0,0,1-2.2-.884C1499.5,1143.669,1499.222,1143.432,1499.365,1143.033Z" transform="translate(-1061.767 -741.517)" fill="#af8c8c"/>
      <path id="Tracé_148" data-name="Tracé 148" d="M1634.525,949.83c-8.425-1.532-16.045,36.208-16.045,36.208s18.718,5.227,23.513,2.486c0,0,5.443-24.129,7.4-23.286Z" transform="translate(-1146.147 -672.602)" fill="#f7cc7f"/>
      <path id="Tracé_149" data-name="Tracé 149" d="M1720.747,1220.178v6.887l64.741,13.614,16.069,48.27-8.954-6.114,2.069,74.331-13.617.093s-23.6-62.363-15.856-93.726l-71.652,1.1s-32.473-12.54-15.718-50.351Z" transform="translate(-1184.776 -859.908)" fill="#13375b"/>
      <path id="Tracé_150" data-name="Tracé 150" d="M1836.54,1258.08s67.16.449,71.929,4.124,40.559,94.952,40.559,94.952l-15.61,5.831s-31.054-51.784-32.7-55.478-13.673-30.7-18.263-33.453S1836.54,1258.08,1836.54,1258.08Z" transform="translate(-1300.57 -890.926)" fill="#184655"/>
    </g>
    <rect id="Rectangle_2" data-name="Rectangle 2" width="1068" height="4" transform="translate(136 512.674)" fill="#215e4b"/>
  </g>
</svg>
