<svg xmlns="http://www.w3.org/2000/svg" width="1218" height="812" viewBox="0 0 1218 812">
  <g id="People_donating_clothes_books_and_food_Converti_" data-name="People donating clothes, books and food [Converti]" transform="translate(0 0.278)">
    <rect id="Rectangle_1" data-name="Rectangle 1" width="1218" height="812" transform="translate(0 -0.278)" fill="none"/>
    <g id="Groupe_173" data-name="Groupe 173" transform="translate(70.165 38.864)">
      <g id="Groupe_1" data-name="Groupe 1">
        <path id="Tracé_1" data-name="Tracé 1" d="M1242.32,224.079V675.635c0,72.406-63.958,121.247-141.226,131.106-90.181,11.505-183.083,6.71-372.916-5.325-106.6-6.758-320.921,4.438-427.9,5.325-77.991.648-141.226-58.7-141.226-131.106V224.079c0-72.407,63.367-135.368,141.226-131.106C372.586,96.926,478.939,112.587,589.805,103,721.666,91.6,971.95,81.9,1101.093,92.973,1178.758,99.626,1242.32,151.668,1242.32,224.079Z" transform="translate(-159.05 -88.097)" fill="rgba(222,235,233,0.53)"/>
      </g>
      <g id="Groupe_46" data-name="Groupe 46" transform="translate(75.892 81.115)">
        <g id="Groupe_2" data-name="Groupe 2" transform="translate(25.718 105.506)">
          <path id="Tracé_2" data-name="Tracé 2" d="M410.822,557.026s17.064-48.006,77.85-45.827S595.357,593.262,606.73,764.937c0,0-84.247,129.373-216.827,52.308C389.9,817.249,384.128,627,410.822,557.026Z" transform="translate(-389.376 -511.127)" fill="#96a7e2"/>
        </g>
        <g id="Groupe_3" data-name="Groupe 3" transform="translate(4.478 105.236)">
          <path id="Tracé_3" data-name="Tracé 3" d="M341.23,553.789,384.3,581.352S494.99,592.425,524.37,587.1s33.96-26.937,33.96-26.937-27.956-38.341-81.15-47.865a145.461,145.461,0,0,0-15.409-1.434,151.367,151.367,0,0,0-26.888.587C382.323,517.121,341.23,553.789,341.23,553.789Z" transform="translate(-341.23 -510.514)" fill="#96a7e2"/>
        </g>
        <g id="Groupe_28" data-name="Groupe 28" transform="translate(67.049)">
          <g id="Groupe_4" data-name="Groupe 4" transform="translate(97.864 51.775)">
            <path id="Tracé_4" data-name="Tracé 4" d="M706.692,432.44l-.163-.688c.079-.018,7.822-1.91,10.014-7.191,1.138-2.74.6-5.947-1.61-9.529-1.037-1.685-1.994-3.207-2.867-4.606-6.035-9.622-8.289-13.221-6.639-21.1l.693.146c-1.593,7.6.459,10.866,6.547,20.575.878,1.4,1.831,2.92,2.872,4.61,2.329,3.79,2.89,7.213,1.659,10.173-.971,2.334-3.1,4.389-6.154,5.947A21.351,21.351,0,0,1,706.692,432.44Z" transform="translate(-704.902 -389.33)" fill="#e28569"/>
          </g>
          <g id="Groupe_5" data-name="Groupe 5" transform="translate(60.864 51.85)">
            <path id="Tracé_5" data-name="Tracé 5" d="M658.9,389.5a35.857,35.857,0,0,0,5.382,24.952c8.078,12.763-.715,22.084-11.655,17.178s-15.114,9.044-29.1,1.332S658.9,389.5,658.9,389.5Z" transform="translate(-621.031 -389.5)" fill="#e28569"/>
          </g>
          <g id="Groupe_6" data-name="Groupe 6" transform="translate(33.988 43.3)">
            <path id="Tracé_6" data-name="Tracé 6" d="M560.207,432.574a16.816,16.816,0,0,0,13.7-10.023l7.535-17.5,2.184-5.078,12.855-29.857-2.228,30.943-1.341,18.573-.384,5.294a8.445,8.445,0,0,0,6.97,8.907l.075.013c2.29,3.719,5.448,11.28-3.992,14.285-11.091,3.529-29.032-5.2-35.469-15.551A.724.724,0,0,0,560.207,432.574Z" transform="translate(-560.11 -370.12)" fill="#f7b686"/>
          </g>
          <g id="Groupe_7" data-name="Groupe 7" transform="translate(55.28 72.576)">
            <path id="Tracé_7" data-name="Tracé 7" d="M608.381,441.629c0,.172.018.34.031.512.737,9.974,11.4,14.633,11.4,14.633l.066-.053,1.341-18.573c-3.26-1.2-7.905-2.422-10.627-1.085C609.175,437.765,608.284,439.163,608.381,441.629Z" transform="translate(-608.374 -436.482)" fill="#2f1a31"/>
          </g>
          <g id="Groupe_8" data-name="Groupe 8" transform="translate(42.697 12.384)">
            <ellipse id="Ellipse_1" data-name="Ellipse 1" cx="29.068" cy="35.866" rx="29.068" ry="35.866" fill="#f7b686"/>
          </g>
          <g id="Groupe_9" data-name="Groupe 9" transform="translate(43.536 41.128)">
            <path id="Tracé_8" data-name="Tracé 8" d="M584.8,377.731c3.291,3.145,7.9,3.467,10.283.719s1.654-7.522-1.641-10.667-7.9-3.467-10.283-.719S581.505,374.585,584.8,377.731Z" transform="translate(-581.754 -365.196)" fill="#f7b686"/>
          </g>
          <g id="Groupe_10" data-name="Groupe 10" transform="translate(67.541 68.199)">
            <path id="Tracé_9" data-name="Tracé 9" d="M656.042,429.82a63.075,63.075,0,0,1-19.861-3.26s-.825,9.789,9.93,10.442C652.367,437.386,656.042,429.82,656.042,429.82Z" transform="translate(-636.167 -426.56)" fill="#db6b49"/>
          </g>
          <g id="Groupe_11" data-name="Groupe 11" transform="translate(67.556 68.199)">
            <path id="Tracé_10" data-name="Tracé 10" d="M656.061,429.82s-2.4,1.994-8.007,1.968S636.2,426.56,636.2,426.56,648.168,429.851,656.061,429.82Z" transform="translate(-636.2 -426.56)" fill="#fff"/>
          </g>
          <g id="Groupe_13" data-name="Groupe 13" transform="translate(65.91 46.663)">
            <g id="Groupe_12" data-name="Groupe 12">
              <path id="Tracé_11" data-name="Tracé 11" d="M641.134,379.678a.662.662,0,0,0,.075-1.253,7.156,7.156,0,0,0-8.558,1.91.666.666,0,0,0,.022.935.728.728,0,0,0,.935-.022,11.305,11.305,0,0,1,7.107-1.593A.684.684,0,0,0,641.134,379.678Z" transform="translate(-632.47 -377.743)" fill="#060633"/>
            </g>
          </g>
          <g id="Groupe_14" data-name="Groupe 14" transform="translate(69.34 53.076)">
            <path id="Tracé_12" data-name="Tracé 12" d="M640.248,395.067c-.048,1.579.838,2.885,1.981,2.92s2.113-1.213,2.162-2.788-.838-2.885-1.981-2.92S640.3,393.492,640.248,395.067Z" transform="translate(-640.246 -392.278)" fill="#060633"/>
          </g>
          <g id="Groupe_16" data-name="Groupe 16" transform="translate(89.684 48.591)">
            <g id="Groupe_15" data-name="Groupe 15">
              <path id="Tracé_13" data-name="Tracé 13" d="M694.852,385.566a.654.654,0,0,0,.556-.194.662.662,0,0,0-.013-.935,7.159,7.159,0,0,0-8.642-1.5.664.664,0,0,0-.335.874.728.728,0,0,0,.873.335,11.3,11.3,0,0,1,7.178,1.235A.689.689,0,0,0,694.852,385.566Z" transform="translate(-686.36 -382.112)" fill="#060633"/>
            </g>
          </g>
          <g id="Groupe_17" data-name="Groupe 17" transform="translate(90.236 54.878)">
            <path id="Tracé_14" data-name="Tracé 14" d="M687.946,398.255c-.648,1.438-.326,2.987.719,3.454s2.417-.318,3.062-1.756.326-2.987-.719-3.454S688.594,396.816,687.946,398.255Z" transform="translate(-687.611 -396.364)" fill="#060633"/>
          </g>
          <g id="Groupe_18" data-name="Groupe 18">
            <path id="Tracé_15" data-name="Tracé 15" d="M567.174,290.854s-.626,12.445-16.168,14.567-26.257,8.7-24.171,19.892,27.135,34.419,8.726,43.414-14.492-7.778-34.45-3.891-23.558-22.763-9.816-38.23,8.179-56.4,59.71-54.579,32.654,42.929,32.654,42.929S567.143,304.6,567.174,290.854Z" transform="translate(-483.066 -271.967)" fill="#e28569"/>
          </g>
          <g id="Groupe_19" data-name="Groupe 19" transform="translate(27.307 13.536)">
            <path id="Tracé_16" data-name="Tracé 16" d="M564.854,388.176l-.159-.388c3.8-1.535,6.039-3.71,6.838-6.653,2.21-8.144-7.447-20.664-15.97-31.71-2.259-2.929-4.4-5.7-6.291-8.342-5.272-7.363-5.739-16.146-1.213-22.922,5.025-7.526,14.576-10.716,24.925-8.311,10,2.32,16.865.238,20.867-1.915a18.877,18.877,0,0,0,6.353-5.285l.349.234c-.079.119-8.245,11.88-27.665,7.376-10.177-2.36-19.556.759-24.48,8.139-4.491,6.728-4.041,15.118,1.209,22.446,1.888,2.638,4.023,5.4,6.282,8.329,8.58,11.121,18.308,23.73,16.04,32.076C571.114,384.281,568.732,386.61,564.854,388.176Z" transform="translate(-544.965 -302.65)" fill="#fff"/>
          </g>
          <g id="Groupe_21" data-name="Groupe 21" transform="translate(84.924 34.628)">
            <g id="Groupe_20" data-name="Groupe 20">
              <path id="Tracé_17" data-name="Tracé 17" d="M686.8,391.382a8.261,8.261,0,0,1-4.451-1.31c-6.251-3.887-8.607-15.63-5.254-26.156h0c2.056-6.45,5.9-11.271,10.266-12.882a8.308,8.308,0,0,1,7.553.75c6.256,3.869,8.611,15.59,5.254,26.138-2.056,6.467-5.9,11.294-10.266,12.9A9.076,9.076,0,0,1,686.8,391.382Zm-8.47-27.052c-3.189,9.983-1.076,21.052,4.712,24.66a7.243,7.243,0,0,0,6.414.618c4-1.478,7.544-6,9.48-12.079,3.19-10,1.085-21.069-4.7-24.66a7.2,7.2,0,0,0-6.423-.618c-4,1.478-7.548,5.982-9.48,12.079Z" transform="translate(-675.57 -350.46)" fill="#6f4975"/>
            </g>
          </g>
          <g id="Groupe_22" data-name="Groupe 22" transform="translate(52.125 27.759)" opacity="0.3">
            <path id="Tracé_18" data-name="Tracé 18" d="M601.919,348.373c-2.334,10.239,1.394,21.237,8.325,24.559s14.439-2.285,16.773-12.524-1.394-21.237-8.325-24.559S604.252,338.133,601.919,348.373Z" transform="translate(-601.223 -334.892)" fill="#fff"/>
          </g>
          <g id="Groupe_23" data-name="Groupe 23" transform="translate(85.395 35.57)" opacity="0.3">
            <path id="Tracé_19" data-name="Tracé 19" d="M677.415,365.974c-2.338,10.288.776,21.444,6.953,24.916s13.085-2.051,15.423-12.339-.776-21.444-6.953-24.916S679.753,355.687,677.415,365.974Z" transform="translate(-676.638 -352.598)" fill="#fff"/>
          </g>
          <g id="Groupe_25" data-name="Groupe 25" transform="translate(51.422 25.09)">
            <g id="Groupe_24" data-name="Groupe 24">
              <path id="Tracé_20" data-name="Tracé 20" d="M614.254,370.829a10.632,10.632,0,0,1-4.637-1.085c-7.645-3.569-11.788-15.387-9.233-26.341h0c1.469-6.357,4.87-11.254,9.33-13.424a10.679,10.679,0,0,1,9.441-.075c7.636,3.591,11.779,15.405,9.233,26.341-1.478,6.375-4.888,11.271-9.357,13.442A11.083,11.083,0,0,1,614.254,370.829Zm.269-40.7a9.635,9.635,0,0,0-4.244,1.01c-4.045,1.981-7.283,6.675-8.647,12.564h0c-2.413,10.376,1.412,21.537,8.523,24.885a9.641,9.641,0,0,0,8.3-.057c4.059-1.963,7.3-6.675,8.673-12.582,2.4-10.376-1.421-21.537-8.527-24.885A9.676,9.676,0,0,0,614.523,330.133Z" transform="translate(-599.63 -328.841)" fill="#6f4975"/>
            </g>
          </g>
          <g id="Groupe_27" data-name="Groupe 27" transform="translate(76.668 48.27)">
            <g id="Groupe_26" data-name="Groupe 26">
              <path id="Tracé_21" data-name="Tracé 21" d="M667.732,385.891a1.189,1.189,0,0,1-.768-.282h0c-.132-.11-3.265-2.563-8.664-1.535a1.253,1.253,0,0,1-1.42-.953,1.186,1.186,0,0,1,.953-1.4,13.035,13.035,0,0,1,10.676,2.02,1.218,1.218,0,0,1,.15,1.7A1.158,1.158,0,0,1,667.732,385.891Z" transform="translate(-656.856 -381.385)" fill="#6f4975"/>
            </g>
          </g>
        </g>
        <g id="Groupe_29" data-name="Groupe 29" transform="translate(3.731 146.81)">
          <path id="Tracé_22" data-name="Tracé 22" d="M339.671,607.408c-1.5,4.337,9.767,12.449,25.155,18.127s29.072,6.763,30.563,2.426-9.767-12.449-25.155-18.127S341.162,603.076,339.671,607.408Z" transform="translate(-339.538 -604.754)" fill="#2f1a31"/>
        </g>
        <g id="Groupe_33" data-name="Groupe 33" transform="translate(97.409 94.032)">
          <g id="Groupe_30" data-name="Groupe 30" transform="translate(103.404 13.59)">
            <path id="Tracé_23" data-name="Tracé 23" d="M786.28,531.631s39.916-33.439,86.29-2.74C872.57,528.892,830.422,582.2,786.28,531.631Z" transform="translate(-786.28 -515.923)" fill="#ced891"/>
          </g>
          <g id="Groupe_31" data-name="Groupe 31" transform="translate(98.136)">
            <path id="Tracé_24" data-name="Tracé 24" d="M781.424,556.1a4.566,4.566,0,0,1-4.041-3.34c-.384-1.394-9.251-34.441,5.184-65.026a4.566,4.566,0,1,1,8.258,3.9c-13,27.55-4.72,58.387-4.636,58.7A4.57,4.57,0,0,1,783,555.951,4.619,4.619,0,0,1,781.424,556.1Z" transform="translate(-774.339 -485.118)" fill="#2f1a31"/>
          </g>
          <g id="Groupe_32" data-name="Groupe 32" transform="translate(0 44.683)">
            <path id="Tracé_25" data-name="Tracé 25" d="M731.167,622.189c4.879,9.533,6.71,21.052,6.189,31.11-1.87,36.285-26.271,74.687-58.682,91.182C644.2,762.03,597.057,748.473,572.9,719.856c-22.843-27.056-27.612-68.008-11.6-99.59,13.627-26.875,40.948-41.693,70.1-29.6,10.177,4.226,19.186,12.793,30.779,13.01,17.986.34,39.064-6.622,55.581,3.459A36.984,36.984,0,0,1,731.167,622.189Z" transform="translate(-551.885 -586.404)" fill="#e28569"/>
          </g>
        </g>
        <g id="Groupe_35" data-name="Groupe 35" transform="translate(240.443 151.094)">
          <g id="Groupe_34" data-name="Groupe 34">
            <path id="Tracé_26" data-name="Tracé 26" d="M924.7,639.206s9.511,9.869,1.054,17.779c-10.773,10.076-34.723,11.554-28,5.069,5.964-5.748,16.57-11.735,16.57-11.735s-27.2,14.827-28.807,7.888S907.5,638.853,907.5,638.853s-28.048,11.832-27.471,4.95,21.917-18.29,21.917-18.29-26.668,13.085-25.807,5.126,16.252-11.827,22.278-14.982c5.7-2.982,9.763-.128,12.692,5.792,0,0,6.234,4.464,7.2,8.739.371,1.637,2.466,2.36,3.189,3.335A44.894,44.894,0,0,1,924.7,639.206Z" transform="translate(-876.114 -614.464)" fill="#f7b686"/>
          </g>
        </g>
        <g id="Groupe_45" data-name="Groupe 45" transform="translate(0 151.741)">
          <g id="Groupe_37" data-name="Groupe 37">
            <g id="Groupe_36" data-name="Groupe 36">
              <path id="Tracé_27" data-name="Tracé 27" d="M461.211,734.244,447.8,721.785c.071-4.3-7.3-12.793-11.029-10.649-23.024,13.248-40.3,4.5-48.672-7.323-11.616-16.429-10.389-41.945-7.155-59.64,1.654-9.057-1.332-15.109-12.273-20.915a74.77,74.77,0,0,0-21.017-7.151c-4.65-.79-9.264,1.076-10.46,5.638a192.136,192.136,0,0,0-5.466,31.3c-2.753,31.031,3.234,58.025,17.311,78.058,17.276,24.59,58.978,42.629,104.615,27.246C477.631,750.275,461.136,738.885,461.211,734.244Z" transform="translate(-331.08 -615.931)" fill="#f7b686"/>
            </g>
          </g>
          <g id="Groupe_38" data-name="Groupe 38" transform="translate(16.848 86.763)" opacity="0.5">
            <path id="Tracé_28" data-name="Tracé 28" d="M381.711,832.794c-3.092,0-6.644-1.822-9.264-5.073h0c-3.887-4.826-4.257-11-.829-13.764a7.058,7.058,0,0,1,6.657-.94,13.921,13.921,0,0,1,6.613,4.685c3.887,4.826,4.257,11,.829,13.764A6.287,6.287,0,0,1,381.711,832.794Zm-7.623-6.4c3.106,3.856,7.822,5.422,10.3,3.423s1.954-6.944-1.147-10.795a11.843,11.843,0,0,0-5.585-3.988,5.024,5.024,0,0,0-4.72.565c-2.479,1.994-1.95,6.939,1.151,10.795Z" transform="translate(-369.271 -812.605)" fill="#e08b65"/>
          </g>
          <g id="Groupe_44" data-name="Groupe 44" transform="translate(105.696 57.199)">
            <g id="Groupe_40" data-name="Groupe 40">
              <g id="Groupe_39" data-name="Groupe 39">
                <path id="Tracé_29" data-name="Tracé 29" d="M570.67,783.595s3.962-24.1,16.04-31.741,33.285-8.285,26.8-1.954-16.993,12.132-16.993,12.132,23.041-11.338,23.363-4.8-19.817,16.2-19.817,16.2,28.494-11.307,26.8-5.034-23.408,14.708-23.408,14.708,26.932-9.463,24.788-2.219-22.309,7.672-21.991,14.21-.631,32.61-18.7,35.716Z" transform="translate(-570.67 -745.589)" fill="#f7b686"/>
              </g>
            </g>
            <g id="Groupe_41" data-name="Groupe 41" transform="translate(17.042 15.935)">
              <path id="Tracé_30" data-name="Tracé 30" d="M610.31,788.9l-1.01-.3c1.332-4.509,8.351-6.789,8.651-6.886l.322,1.006C618.2,782.738,611.484,784.926,610.31,788.9Z" transform="translate(-609.3 -781.71)" fill="#dd8964"/>
            </g>
            <g id="Groupe_42" data-name="Groupe 42" transform="translate(19.014 27.339)">
              <path id="Tracé_31" data-name="Tracé 31" d="M614.7,816.114l-.931-.494c3.106-5.876,9.944-7.972,10.235-8.06l.3,1.01C624.234,808.592,617.595,810.635,614.7,816.114Z" transform="translate(-613.77 -807.56)" fill="#dd8964"/>
            </g>
            <g id="Groupe_43" data-name="Groupe 43" transform="translate(22.953 37.013)">
              <path id="Tracé_32" data-name="Tracé 32" d="M623.732,837.426l-1.032-.212c1.015-4.928,9.317-7.61,9.67-7.725l.318,1.006C632.608,830.522,624.623,833.107,623.732,837.426Z" transform="translate(-622.7 -829.49)" fill="#dd8964"/>
            </g>
          </g>
        </g>
      </g>
      <g id="Groupe_69" data-name="Groupe 69" transform="translate(687.63 94.235)">
        <g id="Groupe_68" data-name="Groupe 68">
          <g id="Groupe_47" data-name="Groupe 47" transform="translate(0.005 126.587)">
            <path id="Tracé_33" data-name="Tracé 33" d="M1951.29,637.818s-12.277-48.668-102.877-49.162c-130.652-.71-118.556,119.336-130.643,301.78,0,0,128.693-18.2,250.584,7.963C1968.354,898.4,1979.661,712.183,1951.29,637.818Z" transform="translate(-1717.77 -588.653)" fill="#ced891"/>
          </g>
          <g id="Groupe_48" data-name="Groupe 48" transform="translate(0 126.182)">
            <path id="Tracé_34" data-name="Tracé 34" d="M1984.724,630.326l-59.172,32.738s-129.562,11.766-163.959,6.1-43.833-30.925-43.833-30.925,36.633-37.9,98.9-48.024c5.85-.957,11.916-1.663,18.206-2.073a179.056,179.056,0,0,1,31.472.626C1945.258,597.667,1984.724,630.326,1984.724,630.326Z" transform="translate(-1717.76 -587.734)" fill="#ced891"/>
          </g>
          <g id="Groupe_49" data-name="Groupe 49" transform="translate(107.884 49.177)">
            <path id="Tracé_35" data-name="Tracé 35" d="M1997.527,479.459l-6.838-22.071-1.99-6.428L1977,413.18l-1.54,37.582-.922,22.556-.291,7.142c-.2,4.848-3.154,5.867-6.75,10.076-1.456,1.707-10.777,12.057-.2,16.729,13.182,5.823,37.82-3,47.19-14.545C2014.406,492.707,1999.737,486.592,1997.527,479.459Z" transform="translate(-1962.31 -413.18)" fill="#f7b686"/>
          </g>
          <g id="Groupe_50" data-name="Groupe 50" transform="translate(198.926 168.124)">
            <path id="Tracé_36" data-name="Tracé 36" d="M2239.526,686.991c5.845,8.307-4.915,26.244-24.039,40.057s-39.364,18.277-45.214,9.966,4.915-26.244,24.039-40.057S2233.677,678.68,2239.526,686.991Z" transform="translate(-2168.683 -682.809)" fill="#2f1a31"/>
          </g>
          <g id="Groupe_67" data-name="Groupe 67" transform="translate(76.717)">
            <g id="Groupe_51" data-name="Groupe 51" transform="translate(14.67 34.989)">
              <path id="Tracé_37" data-name="Tracé 37" d="M1925.976,381.02a49.635,49.635,0,0,0,0,20.611c2.387,11.466,14.046-16.72,14.046-16.72Z" transform="translate(-1924.916 -381.02)" fill="#56335b"/>
            </g>
            <g id="Groupe_52" data-name="Groupe 52" transform="translate(13.926 22.895)">
              <path id="Tracé_38" data-name="Tracé 38" d="M1923.648,389.618c2.912-22.168,20.174-38.186,38.561-35.773s30.929,22.344,28.022,44.512-20.174,38.186-38.561,35.769S1920.737,411.786,1923.648,389.618Z" transform="translate(-1923.229 -353.605)" fill="#f7b686"/>
            </g>
            <g id="Groupe_53" data-name="Groupe 53">
              <path id="Tracé_39" data-name="Tracé 39" d="M1973.424,357.766l-16.252-1.685a11.823,11.823,0,0,1-8.774-5.316c-3.331-5.21-7.336-7.888-22.5-7.319-19.2.719-31.873-10.724-33.947-20.77-2.118-10.252,7.707-17.2,17.35-12.313s5.506-7.1,14.774-8.373c17.328-2.378,20.571,10.98,34.758,10.544,18.6-.569,51.919,13.565,36.117,46.308Z" transform="translate(-1891.661 -301.707)" fill="#2f1a31"/>
            </g>
            <g id="Groupe_55" data-name="Groupe 55" transform="translate(45.555 60.257)">
              <g id="Groupe_54" data-name="Groupe 54">
                <path id="Tracé_40" data-name="Tracé 40" d="M1995.24,439.621a.673.673,0,0,1-.313-.521.685.685,0,0,1,.622-.737,7.366,7.366,0,0,1,7.844,4.464.685.685,0,0,1-.3.913.749.749,0,0,1-.913-.3,11.667,11.667,0,0,0-6.511-3.715A.682.682,0,0,1,1995.24,439.621Z" transform="translate(-1994.925 -438.296)" fill="#060633"/>
              </g>
            </g>
            <g id="Groupe_56" data-name="Groupe 56" transform="translate(44.564 66.856)">
              <path id="Tracé_41" data-name="Tracé 41" d="M1996.936,456.711c-.428,1.566-1.694,2.585-2.832,2.276s-1.712-1.831-1.284-3.4,1.694-2.585,2.832-2.276S1997.36,455.145,1996.936,456.711Z" transform="translate(-1992.679 -453.255)" fill="#060633"/>
            </g>
            <g id="Groupe_58" data-name="Groupe 58" transform="translate(20.277 57.132)">
              <g id="Groupe_57" data-name="Groupe 57">
                <path id="Tracé_42" data-name="Tracé 42" d="M1938.037,433.642a.487.487,0,0,1-.366-.34.821.821,0,0,1,.265-.922,4.776,4.776,0,0,1,6.939.79.813.813,0,0,1,.013.953.5.5,0,0,1-.75.1,7.135,7.135,0,0,0-5.761-.662A.475.475,0,0,1,1938.037,433.642Z" transform="translate(-1937.624 -431.213)" fill="#060633"/>
              </g>
            </g>
            <g id="Groupe_59" data-name="Groupe 59" transform="translate(22.63 63.877)">
              <path id="Tracé_43" data-name="Tracé 43" d="M1947.225,449.161c.2,1.61-.582,3.035-1.751,3.185s-2.281-1.041-2.484-2.651.582-3.035,1.751-3.181S1947.022,447.551,1947.225,449.161Z" transform="translate(-1942.958 -446.501)" fill="#060633"/>
            </g>
            <g id="Groupe_60" data-name="Groupe 60" transform="translate(61.893 52.418)">
              <path id="Tracé_44" data-name="Tracé 44" d="M2073.358,425.244s-11.223,24.219-27.14,26c0,0,12.868-18.458-14.258-29.707C2031.964,421.534,2056.868,417.612,2073.358,425.244Z" transform="translate(-2031.96 -420.526)" fill="#56335b"/>
            </g>
            <g id="Groupe_61" data-name="Groupe 61" transform="translate(70.256 58.228)">
              <path id="Tracé_45" data-name="Tracé 45" d="M2061.514,445.967c-3.406,2.166-7.733,1.456-9.67-1.588s-.746-7.261,2.66-9.427,7.733-1.456,9.666,1.588S2064.92,443.8,2061.514,445.967Z" transform="translate(-2050.916 -433.697)" fill="#f7b686"/>
            </g>
            <g id="Groupe_62" data-name="Groupe 62" transform="translate(15.732 53.425)">
              <path id="Tracé_46" data-name="Tracé 46" d="M1973.488,422.81s2.171,20.324-1.963,24.166-31.454,5.5-44.2.569h0a26.546,26.546,0,0,0,21.864,26.738,38.642,38.642,0,0,0,13.041-.044h0c8.924-1.562,17.6-5.25,21.281-13.53,1.12-2.519-2.135-18.017-2.135-18.017s-1.226-9.1,4.067-13.826C1985.434,428.867,1979.329,423.379,1973.488,422.81Z" transform="translate(-1927.322 -422.81)" fill="#56335b"/>
            </g>
            <g id="Groupe_63" data-name="Groupe 63" transform="translate(22.459 85.493)">
              <path id="Tracé_47" data-name="Tracé 47" d="M1942.57,495.5a68.887,68.887,0,0,0,21.9,1.725s-1.676,10.588-13.248,8.479C1944.493,504.477,1942.57,495.5,1942.57,495.5Z" transform="translate(-1942.57 -495.5)" fill="#fff"/>
            </g>
            <g id="Groupe_64" data-name="Groupe 64" transform="translate(19.423 2.578)">
              <path id="Tracé_48" data-name="Tracé 48" d="M1935.968,312.028c-.093,0-.185,0-.278,0l.026-.918c4.407.132,4.818-3.406,4.831-3.556l.913.084C1941.456,307.682,1941.006,312.028,1935.968,312.028Z" transform="translate(-1935.69 -307.55)" fill="#2f1a31"/>
            </g>
            <g id="Groupe_65" data-name="Groupe 65" transform="translate(6.932 11.771)">
              <path id="Tracé_49" data-name="Tracé 49" d="M1929.241,352.971a61.147,61.147,0,0,1-10.539-4.385c-7.01-3.781-10.905-8.152-11.267-12.648-.251-3.132.3-5.228,1.677-6.419,2.2-1.893,6.008-1.006,9.366-.225.5.115.984.229,1.451.331l-.1.45c-.468-.1-.957-.216-1.46-.331-3.251-.759-6.939-1.619-8.96.124-1.262,1.085-1.76,3.062-1.522,6.035.847,10.517,21.272,16.57,21.475,16.632Z" transform="translate(-1907.376 -328.389)" fill="#fff"/>
            </g>
            <g id="Groupe_66" data-name="Groupe 66" transform="translate(45.099 5.525)">
              <path id="Tracé_50" data-name="Tracé 50" d="M2017.818,323.732c-16.054,0-23.84-9.1-23.928-9.207l.353-.3c.093.115,9.7,11.32,29.641,8.62l.062.454A44.5,44.5,0,0,1,2017.818,323.732Z" transform="translate(-1993.89 -314.23)" fill="#fff"/>
            </g>
          </g>
        </g>
      </g>
      <g id="Groupe_70" data-name="Groupe 70" transform="translate(0 532.548)">
        <path id="Tracé_51" data-name="Tracé 51" d="M1242.32,1347.057v3.2c0,72.406-63.958,121.247-141.226,131.106-90.181,11.505-183.083,6.71-372.916-5.325-106.6-6.758-320.921,4.438-427.9,5.325-77.991.648-141.226-58.7-141.226-131.106v-11.84c118.728-26.174,309.213-43.145,523.962-43.145C920.564,1295.274,1128.427,1316.04,1242.32,1347.057Z" transform="translate(-159.05 -1295.27)" fill="#bed5dc"/>
      </g>
      <g id="Groupe_71" data-name="Groupe 71" transform="translate(570.164 482.857)">
        <path id="Tracé_52" data-name="Tracé 52" d="M1451.49,1187.871l200.756-5.241,221.587,5.241L1712.375,1203Z" transform="translate(-1451.49 -1182.63)" fill="#2f1a31"/>
      </g>
      <g id="Groupe_72" data-name="Groupe 72" transform="translate(92.973 472.971)">
        <path id="Tracé_53" data-name="Tracé 53" d="M369.8,1166.608l260.991-6.388,161.347,6.388-161.347,13.385Z" transform="translate(-369.8 -1160.22)" fill="#2f1a31"/>
      </g>
      <g id="Groupe_77" data-name="Groupe 77" transform="translate(328.633 212.875)">
        <g id="Groupe_73" data-name="Groupe 73" transform="translate(118.964)">
          <path id="Tracé_54" data-name="Tracé 54" d="M1204.172,687.255s52.431-38.791,65.485-88.967c0,0-51.955,24.819-73.964,68.643,0,0,23.774-43.237-.124-96.291,0,0-21.864,83.629-21.912,92.867s.887,31.322.887,31.322l20.267,6.551,9.361-14.126Z" transform="translate(-1173.655 -570.64)" fill="#74a1bd"/>
        </g>
        <g id="Groupe_74" data-name="Groupe 74" transform="translate(106.037 22.225)">
          <path id="Tracé_55" data-name="Tracé 55" d="M1188.26,727.594s39.889-41.292,77.4-50.874c0,0-50.163-30.687-87.079,42.192,0,0,42.254-53.366,23.5-91.425,0,0-33.814,64.96-35.663,93.048,0,0,28.137-74.44-21.559-99.515,0,0,6.088,53.856,0,97.671s43.387,8.9,43.387,8.9Z" transform="translate(-1144.354 -621.02)" fill="#b2c9c6"/>
        </g>
        <g id="Groupe_75" data-name="Groupe 75" transform="translate(0 113.536)">
          <path id="Tracé_56" data-name="Tracé 56" d="M1084.739,993.478c-1.041,2.175-2.118,4.231-3.238,6.185-7.958,13.932-17.708,22.415-27.6,27.347a56.443,56.443,0,0,1-6.569,2.771,63.268,63.268,0,0,1-38.852.569l-62.432-20.178c-8.1-2.616-19.843-10.045-28.869-22.3a67.874,67.874,0,0,1-13.107-44.406q.146-3.335.591-6.842a107.221,107.221,0,0,1,8.43-29.323q1.7-3.911,3.56-7.619,1.555-3.123,3.216-6.106c.419-.768.851-1.522,1.275-2.268q2.177-3.779,4.5-7.319a138.488,138.488,0,0,1,20.236-24.409c1.619-1.548,3.251-3.035,4.914-4.46a117.515,117.515,0,0,1,33.135-20.3c2.3-.922,4.6-1.738,6.891-2.466,16.812-5.347,33.161-5.686,46.374-1.416l2.307.746c14.465,4.681,27.352,15.714,37.405,29.716,1.416,1.963,2.762,3.984,4.063,6.053a124.581,124.581,0,0,1,14.986,35.072c.543,2.162,1.023,4.323,1.429,6.481a90.634,90.634,0,0,1,1.553,23.668q-.192,2.468-.41,4.857-.4,4.281-.913,8.3c-.287,2.32-.613,4.579-.957,6.776q-.556,3.54-1.209,6.878A140.513,140.513,0,0,1,1084.739,993.478Z" transform="translate(-903.99 -828.002)" fill="#6f4975"/>
        </g>
        <g id="Groupe_76" data-name="Groupe 76" transform="translate(0.084 117.885)">
          <path id="Tracé_57" data-name="Tracé 57" d="M1081.607,1005.172c1.121-1.954,2.193-4.01,3.238-6.185L1057.759,971l37.8-6.013q.648-3.335,1.209-6.878l-44.609,7.111-35.186-36.355,48.827-8.7,31.922,31.172q.516-4.023.913-8.3l-24.868-24.29,23.73-4.231c-.406-2.157-.887-4.319-1.429-6.481l-28.128,5.02-33.872-33.073,47.014-7.014c-1.3-2.069-2.647-4.089-4.063-6.053l-48.862,7.3-37.22-36.347c-2.29.728-4.592,1.544-6.891,2.466l35.941,35.094-47.839,7.151-21.237-21.943q-2.488,2.137-4.914,4.46l18.087,18.683L925.757,889.5q-2.323,3.547-4.5,7.319l48.461-7.23,33.823,34.939-49.2,8.77-34.361-34.211q-1.654,2.978-3.216,6.106l29.646,29.518-41.636,7.42q-.45,3.507-.591,6.842l47.962-8.55,35.266,35.107-74.092,11.805a68.771,68.771,0,0,0,3.975,6.044L993.2,981.283l54.24,54.006a56.432,56.432,0,0,0,6.569-2.771L1001.26,980l48.514-7.716Zm-103.843-116.8,48.121-7.186,34.075,33.276-48.558,8.655Zm17.7,85.866L960.07,939l49.017-8.739,35.067,36.219Z" transform="translate(-904.18 -837.86)" fill="#2f1a31"/>
        </g>
      </g>
      <g id="Groupe_81" data-name="Groupe 81" transform="translate(227.608 310.593)">
        <g id="Groupe_78" data-name="Groupe 78" transform="translate(0 7.238)">
          <path id="Tracé_58" data-name="Tracé 58" d="M817.328,997.734c-.719,28.521-3.481,52.065-6.961,59.353-9.979,20.915-119.747,10.019-127.732,3.035-3.772-3.3-6.282-31.9-7.226-65.441-.926-32.813-.344-70.368,2.007-93.617.34-3.3.71-6.308,1.116-8.973,4.989-32.659,22.733-34.044,37.039-45.02,6.172-4.742,6.256-14.7,6.092-20.178-.247-8.717,1.372-11.536.225-18.343l49.564,4.147c.093,5.082-.494,14-.613,20.02-.313,15.912,1.429,15.674,20.346,26.721C807,868.67,812.66,883.1,814.809,901.073c1.888,15.793,1.063,34.317,2.042,54.456C817.562,969.906,817.667,984.363,817.328,997.734Z" transform="translate(-674.989 -808.55)" fill="#b2c9c6"/>
        </g>
        <g id="Groupe_79" data-name="Groupe 79" transform="translate(40.139)">
          <path id="Tracé_59" data-name="Tracé 59" d="M769.215,793.757s-5.02,29.2-2.563,30.859,58.188,6.088,59.829,2.766-2.457-32.381-4.919-33.625S770.755,790.854,769.215,793.757Z" transform="translate(-765.975 -792.144)" fill="#436e8e"/>
        </g>
        <g id="Groupe_80" data-name="Groupe 80" transform="translate(0.004 99.752)">
          <path id="Tracé_60" data-name="Tracé 60" d="M817.333,1114.93c-3.587,1.518-58.656,23.752-141.915-3.053-.926-32.813-.344-70.368,2.007-93.617h.009s63.323,20.059,137.393,0c1.888,15.793,1.063,34.317,2.043,54.456C817.567,1087.1,817.673,1101.559,817.333,1114.93Z" transform="translate(-674.999 -1018.26)" fill="#436e8e"/>
        </g>
      </g>
      <g id="Groupe_93" data-name="Groupe 93" transform="translate(116.554 384.365)">
        <g id="Groupe_82" data-name="Groupe 82" transform="translate(0 15.714)">
          <path id="Tracé_61" data-name="Tracé 61" d="M549.275,1145.45H446.928s-26.465-27.96-23.434-75.23c3.344-52.206,23.434-75.23,23.434-75.23H549.28s18.643,24.369,21.361,77.228C573.508,1128.011,549.275,1145.45,549.275,1145.45Z" transform="translate(-423.252 -994.99)" fill="#ced891"/>
        </g>
        <g id="Groupe_83" data-name="Groupe 83" transform="translate(16.02)">
          <path id="Tracé_62" data-name="Tracé 62" d="M572.7,982.288H465.519a5.951,5.951,0,0,1-5.828-7.156l1.288-6.233c.746-5.823,3.9-9.529,6.723-9.529l103.578,4.782a5.952,5.952,0,0,1,5.806,4.628l1.42,6.234A5.956,5.956,0,0,1,572.7,982.288Z" transform="translate(-459.566 -959.37)" fill="#2f1a31"/>
        </g>
        <g id="Groupe_84" data-name="Groupe 84" transform="translate(6.288 35.754)">
          <path id="Tracé_63" data-name="Tracé 63" d="M452.264,1158.184c-.318-.626-21.052-39.492-12.833-76.2,6.723-30.038,9.886-36.986,16.261-38.9s9.37,10.822,31.745,1.866c18.6-7.442,29.632,4.513,55.616.688,8.228-1.213,12.379-8.527,19.5-3.432,5.686,4.072,12.913,45.695,11.108,66.535-2.793,32.235-12.357,47.062-12.357,47.062Z" transform="translate(-437.506 -1040.416)" fill="#b7b786"/>
        </g>
        <g id="Groupe_85" data-name="Groupe 85" transform="translate(26.001 63.35)">
          <path id="Tracé_64" data-name="Tracé 64" d="M482.19,1104.889a1.919,1.919,0,1,1,1.919,1.919A1.92,1.92,0,0,1,482.19,1104.889Z" transform="translate(-482.19 -1102.97)" fill="#436e8e"/>
        </g>
        <g id="Groupe_86" data-name="Groupe 86" transform="translate(56.189 51.911)">
          <path id="Tracé_65" data-name="Tracé 65" d="M550.62,1078.959a1.919,1.919,0,1,1,1.919,1.919A1.92,1.92,0,0,1,550.62,1078.959Z" transform="translate(-550.62 -1077.04)" fill="#436e8e"/>
        </g>
        <g id="Groupe_87" data-name="Groupe 87" transform="translate(86.066 63.347)">
          <path id="Tracé_66" data-name="Tracé 66" d="M618.466,1104.216a1.918,1.918,0,1,1,1.129,2.466A1.918,1.918,0,0,1,618.466,1104.216Z" transform="translate(-618.345 -1102.965)" fill="#436e8e"/>
        </g>
        <g id="Groupe_88" data-name="Groupe 88" transform="translate(48.265 83.892)">
          <path id="Tracé_67" data-name="Tracé 67" d="M532.779,1150.786a1.918,1.918,0,1,1,1.129,2.466A1.918,1.918,0,0,1,532.779,1150.786Z" transform="translate(-532.659 -1149.535)" fill="#436e8e"/>
        </g>
        <g id="Groupe_89" data-name="Groupe 89" transform="translate(111.944 83.892)">
          <path id="Tracé_68" data-name="Tracé 68" d="M677.126,1150.786a1.918,1.918,0,1,1,1.129,2.466A1.918,1.918,0,0,1,677.126,1150.786Z" transform="translate(-677.005 -1149.535)" fill="#436e8e"/>
        </g>
        <g id="Groupe_90" data-name="Groupe 90" transform="translate(111.944 57.11)">
          <path id="Tracé_69" data-name="Tracé 69" d="M677.126,1090.076a1.918,1.918,0,1,1,1.129,2.466A1.918,1.918,0,0,1,677.126,1090.076Z" transform="translate(-677.005 -1088.825)" fill="#436e8e"/>
        </g>
        <g id="Groupe_91" data-name="Groupe 91" transform="translate(74.464 94.59)">
          <path id="Tracé_70" data-name="Tracé 70" d="M592.166,1175.036a1.918,1.918,0,1,1,1.129,2.466A1.918,1.918,0,0,1,592.166,1175.036Z" transform="translate(-592.045 -1173.785)" fill="#436e8e"/>
        </g>
        <g id="Groupe_92" data-name="Groupe 92" transform="translate(20.993 94.59)">
          <path id="Tracé_71" data-name="Tracé 71" d="M470.959,1175.036a1.918,1.918,0,1,1,1.129,2.466A1.918,1.918,0,0,1,470.959,1175.036Z" transform="translate(-470.839 -1173.785)" fill="#436e8e"/>
        </g>
      </g>
      <g id="Groupe_108" data-name="Groupe 108" transform="translate(322.962 368.084)">
        <g id="Groupe_94" data-name="Groupe 94" transform="translate(0)">
          <path id="Tracé_72" data-name="Tracé 72" d="M891.42,1079.531s-7.12-71.357,49.886-101.267c0,0,9.855-3.94,7.742-12.176s-13.835-44.482.3-42.373,7.094,13.332,19.058,6.666,22.874-12.648,24.281-2.444,9.851-2.5,18.652,2.444-25.688,33.916-17.245,46.175,68.269,60.822,52.083,121.7S891.42,1079.531,891.42,1079.531Z" transform="translate(-891.135 -922.464)" fill="#96a7e2"/>
        </g>
        <g id="Groupe_95" data-name="Groupe 95" transform="translate(53.065 43.541)">
          <path id="Tracé_73" data-name="Tracé 73" d="M1016.27,1021.245s22.856,6.9,44.376,1.663c0,0,2.779-1.412,3.309,1.359s-.529,3.035.662,5.806.529,5.148-13.063,6.335-40.776-3.564-40.118-6.732,3.167-2.5,2.9-4.548S1014.192,1020.685,1016.27,1021.245Z" transform="translate(-1011.423 -1021.163)" fill="#ced891"/>
        </g>
        <g id="Groupe_96" data-name="Groupe 96" transform="translate(10.933 65.693)">
          <path id="Tracé_74" data-name="Tracé 74" d="M916.625,1155.859s-3.957-25.4,6.86-48.364,24.81-37.666,32.2-35.989,9.5,8.276,24.281,3,12.141,1.848,18.475,1.848,14.518-4.222,19.53,1.848,24.016,30.087,29.032,51.994,0,40.643-19.794,45.395S915.566,1170.968,916.625,1155.859Z" transform="translate(-915.919 -1071.376)" fill="#ced891"/>
        </g>
        <g id="Groupe_97" data-name="Groupe 97" transform="translate(34.134 84.561)">
          <path id="Tracé_75" data-name="Tracé 75" d="M970.755,1120.548a3.382,3.382,0,0,0-.119,6.326,13.24,13.24,0,0,0,13.239-1.646c8.276-6.092,1.1-11.527-2.206-11.055s-1.023,8.355-5.126,7.491C974.721,1121.276,973.257,1119.706,970.755,1120.548Z" transform="translate(-968.51 -1114.145)" fill="#b2c9c6"/>
        </g>
        <g id="Groupe_98" data-name="Groupe 98" transform="translate(61.682 75.026)">
          <path id="Tracé_76" data-name="Tracé 76" d="M1038.184,1094.679a3.381,3.381,0,0,0-6.326.079,13.248,13.248,0,0,0,2.056,13.182c6.344,8.082,11.558.746,10.98-2.55s-8.382-.763-7.645-4.888C1037.579,1098.663,1039.1,1097.154,1038.184,1094.679Z" transform="translate(-1030.956 -1092.532)" fill="#b2c9c6"/>
        </g>
        <g id="Groupe_99" data-name="Groupe 99" transform="translate(79.944 78.331)">
          <path id="Tracé_77" data-name="Tracé 77" d="M1086.974,1112.22a3.381,3.381,0,0,0,4.239-4.694,13.251,13.251,0,0,0-11.068-7.447c-10.244-.834-8.4,7.976-5.589,9.793s6.256-5.634,8.779-2.29C1084.455,1109.07,1084.53,1111.214,1086.974,1112.22Z" transform="translate(-1072.35 -1100.024)" fill="#b2c9c6"/>
        </g>
        <g id="Groupe_100" data-name="Groupe 100" transform="translate(81.716 93.796)">
          <path id="Tracé_78" data-name="Tracé 78" d="M1080.2,1135.873a3.379,3.379,0,0,0-2.991,5.572,13.241,13.241,0,0,0,12.529,4.579c10.142-1.641,6.242-9.754,3.084-10.844s-4.725,6.966-7.976,4.323C1083.4,1138.326,1082.809,1136.262,1080.2,1135.873Z" transform="translate(-1076.367 -1135.079)" fill="#b2c9c6"/>
        </g>
        <g id="Groupe_101" data-name="Groupe 101" transform="translate(110.103 93.793)">
          <path id="Tracé_79" data-name="Tracé 79" d="M1153.008,1149.506a3.383,3.383,0,0,0,5.386-3.322,13.245,13.245,0,0,0-8.545-10.244c-9.6-3.666-10.292,5.307-8.1,7.835s7.583-3.657,9.07.26C1151.473,1145.778,1150.943,1147.856,1153.008,1149.506Z" transform="translate(-1140.715 -1135.072)" fill="#b2c9c6"/>
        </g>
        <g id="Groupe_102" data-name="Groupe 102" transform="translate(94.128 110.157)">
          <path id="Tracé_80" data-name="Tracé 80" d="M1120.855,1182.063a3.381,3.381,0,0,0,2.629-5.753,13.244,13.244,0,0,0-12.8-3.763c-10.019,2.29-5.6,10.138-2.378,11.02s4.266-7.257,7.681-4.831C1117.507,1179.818,1118.226,1181.838,1120.855,1182.063Z" transform="translate(-1104.503 -1172.167)" fill="#b2c9c6"/>
        </g>
        <g id="Groupe_103" data-name="Groupe 103" transform="translate(53.339 100.177)">
          <path id="Tracé_81" data-name="Tracé 81" d="M1022,1153.187a3.381,3.381,0,0,0-5.731-2.678,13.255,13.255,0,0,0-3.878,12.763c2.2,10.036,10.085,5.7,11,2.475s-7.217-4.332-4.76-7.725C1019.731,1156.513,1021.756,1155.816,1022,1153.187Z" transform="translate(-1012.044 -1149.545)" fill="#b2c9c6"/>
        </g>
        <g id="Groupe_104" data-name="Groupe 104" transform="translate(67.637 106.592)">
          <path id="Tracé_82" data-name="Tracé 82" d="M1059.54,1175.734a3.382,3.382,0,0,0,3.913-4.972,13.247,13.247,0,0,0-11.549-6.675c-10.274-.137-7.835,8.528-4.91,10.146s5.859-6.044,8.6-2.881C1056.813,1172.761,1057.034,1174.9,1059.54,1175.734Z" transform="translate(-1044.454 -1164.086)" fill="#b2c9c6"/>
        </g>
        <g id="Groupe_105" data-name="Groupe 105" transform="translate(28.382 105.831)">
          <path id="Tracé_83" data-name="Tracé 83" d="M964.5,1178.706a3.38,3.38,0,0,0,6.172-1.385,13.253,13.253,0,0,0-4.742-12.471c-7.879-6.6-11.461,1.663-10.217,4.769s8.36-.988,8.492,3.2C964.268,1174.682,963.09,1176.478,964.5,1178.706Z" transform="translate(-955.472 -1162.361)" fill="#b2c9c6"/>
        </g>
        <g id="Groupe_106" data-name="Groupe 106" transform="translate(42.289 123.474)">
          <path id="Tracé_84" data-name="Tracé 84" d="M1003.832,1209.358a3.382,3.382,0,0,0-.366-6.317,13.248,13.248,0,0,0-13.071,2.66c-7.782,6.71-.212,11.58,3.053,10.852s.379-8.408,4.531-7.861C999.822,1208.939,1001.4,1210.39,1003.832,1209.358Z" transform="translate(-986.996 -1202.354)" fill="#b2c9c6"/>
        </g>
        <g id="Groupe_107" data-name="Groupe 107" transform="translate(76.326 121.001)">
          <path id="Tracé_85" data-name="Tracé 85" d="M1070.909,1213.672a3.381,3.381,0,0,0,6.326-.079,13.241,13.241,0,0,0-2.06-13.182c-6.348-8.082-11.558-.741-10.98,2.554s8.382.763,7.645,4.888C1071.513,1209.684,1069.991,1211.2,1070.909,1213.672Z" transform="translate(-1064.151 -1196.749)" fill="#b2c9c6"/>
        </g>
      </g>
      <g id="Groupe_115" data-name="Groupe 115" transform="translate(69.422 479.359)">
        <g id="Groupe_109" data-name="Groupe 109" transform="translate(284.542)">
          <path id="Tracé_86" data-name="Tracé 86" d="M1122.757,1328.834,961.41,1338.959V1188.085l161.347-13.385Z" transform="translate(-961.41 -1174.7)" fill="#e28569"/>
        </g>
        <g id="Groupe_110" data-name="Groupe 110" transform="translate(23.551)">
          <path id="Tracé_87" data-name="Tracé 87" d="M630.791,1338.959,369.8,1308.043V1174.7l260.991,13.385Z" transform="translate(-369.8 -1174.7)" fill="#eda588"/>
        </g>
        <g id="Groupe_111" data-name="Groupe 111">
          <path id="Tracé_88" data-name="Tracé 88" d="M339.965,1174.7s-22,20.359-23.544,20.871,246.763,31.3,246.763,31.3l37.772-38.782Z" transform="translate(-316.414 -1174.7)" fill="#e28569"/>
        </g>
        <g id="Groupe_112" data-name="Groupe 112" transform="translate(284.542)">
          <path id="Tracé_89" data-name="Tracé 89" d="M1122.757,1174.7l18.917,26.081-150.83,26.081-29.434-38.777Z" transform="translate(-961.41 -1174.7)" fill="#e28569"/>
        </g>
        <g id="Groupe_114" data-name="Groupe 114" transform="translate(22.413 12.194)">
          <g id="Groupe_113" data-name="Groupe 113">
            <path id="Tracé_90" data-name="Tracé 90" d="M658.782,1243.452a1.145,1.145,0,0,1-.909-.45l-28.635-37.723L592.393,1243.1a1.465,1.465,0,0,1-.957.335L368.217,1215.4a1.143,1.143,0,0,1,.287-2.267L591.162,1241.1l37.37-38.367c.229-.247.543-.5.887-.335a1.164,1.164,0,0,1,.838.441l29.019,38.226,131.23-22.689a1.137,1.137,0,1,1,.388,2.241l-131.914,22.812A1.072,1.072,0,0,1,658.782,1243.452Z" transform="translate(-367.219 -1202.342)" fill="#2f1a31"/>
          </g>
        </g>
      </g>
      <g id="Groupe_128" data-name="Groupe 128" transform="translate(584.872 225.883)">
        <g id="Groupe_116" data-name="Groupe 116" transform="translate(3.587 52.751)">
          <path id="Tracé_91" data-name="Tracé 91" d="M1508.437,719.7s-47.649,85.6,24.277,117.523,25.415-102.162,25.415-102.162Z" transform="translate(-1492.962 -719.7)" fill="#f7b686"/>
        </g>
        <g id="Groupe_117" data-name="Groupe 117" transform="translate(0 6.903)">
          <path id="Tracé_92" data-name="Tracé 92" d="M1601.912,623.332s-6.741,87.026,73.267,33.567c0,0,60.482,4.875,84.679,79.112l-51.871,34.728c-12.652-8.452-26.346-3.979-24.956,5.21,3.547,23.487,3.869,71.577,27.224,124.776,17.443,39.73-21.5,48.558-33.369,45.88-104.553-23.593-177.075,25.891-184.742-32.279,0,0,23.231-123.8,34.6-202.269,2.118-14.62-21.63-4.456-21.714-13.985-.291-32.487-20.2-59.123-20.2-59.123S1543.658,599.721,1601.912,623.332Z" transform="translate(-1484.83 -615.771)" fill="#e28569"/>
        </g>
        <g id="Groupe_123" data-name="Groupe 123" transform="translate(167.983 141.603)">
          <g id="Groupe_119" data-name="Groupe 119">
            <g id="Groupe_118" data-name="Groupe 118">
              <path id="Tracé_93" data-name="Tracé 93" d="M1935.2,964.669s-6.159-28.754-21.127-37.255-40.511-8.042-32.354-.8,21.14,13.61,21.14,13.61-28.371-12.3-28.375-4.425,24.775,18.348,24.775,18.348-34.926-11.955-32.522-4.509,29.006,16.34,29.006,16.34-32.941-9.824-29.941-1.24,27.276,7.941,27.272,15.824,2.642,39.188,24.55,41.874Z" transform="translate(-1865.612 -921.108)" fill="#f7b686"/>
            </g>
          </g>
          <g id="Groupe_120" data-name="Groupe 120" transform="translate(36.031 17.888)">
            <path id="Tracé_94" data-name="Tracé 94" d="M1958.873,971.478a1.214,1.214,0,0,1-1.151-.821c-1.54-4.412-9.45-6.578-9.529-6.6a1.222,1.222,0,0,1,.631-2.36c.375.1,9.242,2.519,11.205,8.157a1.227,1.227,0,0,1-.75,1.557A1.2,1.2,0,0,1,1958.873,971.478Z" transform="translate(-1947.287 -961.657)" fill="#e08b65"/>
          </g>
          <g id="Groupe_121" data-name="Groupe 121" transform="translate(32.424 31.813)">
            <path id="Tracé_95" data-name="Tracé 95" d="M1952.716,1004.475a1.228,1.228,0,0,1-1.054-.6c-3.679-6.225-11.541-8.228-11.62-8.245a1.222,1.222,0,0,1,.582-2.373c.362.088,8.942,2.272,13.138,9.375a1.223,1.223,0,0,1-1.046,1.844Z" transform="translate(-1939.111 -993.221)" fill="#e08b65"/>
          </g>
          <g id="Groupe_122" data-name="Groupe 122" transform="translate(28.911 43.647)">
            <path id="Tracé_96" data-name="Tracé 96" d="M1944,1030.764a1.223,1.223,0,0,1-1.182-.918c-1.028-4-8.113-6.7-10.755-7.4a1.221,1.221,0,1,1,.626-2.36c.446.119,10.905,2.956,12.5,9.15a1.221,1.221,0,0,1-.878,1.487A1.288,1.288,0,0,1,1944,1030.764Z" transform="translate(-1931.148 -1020.048)" fill="#e08b65"/>
          </g>
        </g>
        <g id="Groupe_125" data-name="Groupe 125" transform="translate(17.918)">
          <g id="Groupe_124" data-name="Groupe 124">
            <path id="Tracé_97" data-name="Tracé 97" d="M1558.619,600.943s13.018-4.288,16.477,6.763c4.407,14.077-4.654,36.3-7.579,27.422-2.59-7.87-3.384-20.02-3.384-20.02s1.557,30.938-5.391,29.381-7.9-28.2-7.9-28.2-1.509,30.4-7.455,26.9-6.975-27.682-6.975-27.682.22,29.7-6.578,25.477-3.6-19.773-3.834-26.571c-.216-6.423,4.116-8.85,10.725-8.924,0,0,6.728-3.679,11-2.7,1.637.375,3.2-1.2,4.39-1.425A44.831,44.831,0,0,1,1558.619,600.943Z" transform="translate(-1525.447 -600.124)" fill="#f7b686"/>
          </g>
        </g>
        <g id="Groupe_127" data-name="Groupe 127" transform="translate(219.99 42.948)">
          <g id="Groupe_126" data-name="Groupe 126">
            <path id="Tracé_98" data-name="Tracé 98" d="M2011.593,901.887c-9.979,0-18.987-1.134-28.093-4.425l3.922-61.342c23.778,2.682,43.476,1.685,58.541-2.96,10.888-3.357,19.018-8.492,24.855-15.705,12.352-15.26,6.917-75.874,5.492-80.431,0,0-5.8-12.268,33.726-34.106,20.668-11.417,26.478-1.319,26.478-1.319a239.692,239.692,0,0,1,10.477,53.19,183.667,183.667,0,0,1-2.21,49.736c-3.979,20.615-11.973,38.5-23.769,53.155-13.914,17.293-32.729,29.707-55.912,36.889C2049.382,899.443,2031.467,901.887,2011.593,901.887Z" transform="translate(-1983.5 -697.478)" fill="#f7b686"/>
          </g>
        </g>
      </g>
      <g id="Groupe_132" data-name="Groupe 132" transform="translate(141.021 458.288)">
        <g id="Groupe_129" data-name="Groupe 129" transform="translate(0.004 5.776)">
          <path id="Tracé_99" data-name="Tracé 99" d="M592.253,1290.931c-.573,22.75-2.775,41.53-5.55,47.34-7.958,16.684-95.514,7.994-101.884,2.422-3.009-2.634-5.011-25.441-5.761-52.2-.737-26.174-.273-56.128,1.6-74.67.269-2.634.569-5.029.891-7.16,3.979-26.05,18.131-27.153,29.544-35.91,4.923-3.785,4.989-11.726,4.862-16.1-.194-6.953,1.094-9.2.181-14.629l39.536,3.3c.075,4.054-.393,11.166-.49,15.97-.247,12.692,1.143,12.5,16.23,21.312,12.613,7.367,17.13,18.877,18.846,33.21,1.509,12.6.847,27.374,1.628,43.436C592.443,1268.732,592.527,1280.264,592.253,1290.931Z" transform="translate(-478.724 -1140.03)" fill="#96a7e2"/>
        </g>
        <g id="Groupe_130" data-name="Groupe 130" transform="translate(32.018)">
          <path id="Tracé_100" data-name="Tracé 100" d="M553.877,1128.227s-4.006,23.289-2.043,24.612,46.414,4.857,47.72,2.206-1.963-25.83-3.922-26.822S555.1,1125.906,553.877,1128.227Z" transform="translate(-551.292 -1126.938)" fill="#6f4975"/>
        </g>
        <g id="Groupe_131" data-name="Groupe 131" transform="translate(0 79.572)">
          <path id="Tracé_101" data-name="Tracé 101" d="M592.248,1384.415c-2.859,1.209-46.784,18.943-113.2-2.435-.737-26.174-.274-56.128,1.6-74.67h0s50.508,16,109.591,0c1.509,12.6.847,27.374,1.628,43.436C592.437,1362.216,592.521,1373.748,592.248,1384.415Z" transform="translate(-478.714 -1307.31)" fill="#6f4975"/>
        </g>
      </g>
      <g id="Groupe_133" data-name="Groupe 133" transform="translate(660.746 466.787)">
        <path id="Tracé_102" data-name="Tracé 102" d="M1656.82,1172.16s18.374-34.547,68.745-23.928,60.985-3.04,78.949,7.98,44.459,9.251,60.539,2.969,110.84-21.511,123.527,8.333L1825.01,1193.6Z" transform="translate(-1656.82 -1146.204)" fill="#436e8e"/>
      </g>
      <g id="Groupe_134" data-name="Groupe 134" transform="translate(795.395 466.776)">
        <path id="Tracé_103" data-name="Tracé 103" d="M2159.151,1167.5s-9.7-21.859-56.049-21.312-129.015,15.811-139.709,32.932,45.43,39.964,45.43,39.964l120.135-33.25Z" transform="translate(-1962.039 -1146.177)" fill="#e28569"/>
      </g>
      <g id="Groupe_141" data-name="Groupe 141" transform="translate(546.613 488.098)">
        <g id="Groupe_135" data-name="Groupe 135" transform="translate(284.542)">
          <path id="Tracé_104" data-name="Tracé 104" d="M2204.452,1348.645,2043.1,1358.769V1207.895l161.352-13.385Z" transform="translate(-2043.1 -1194.51)" fill="#798ecc"/>
        </g>
        <g id="Groupe_136" data-name="Groupe 136" transform="translate(23.551)">
          <path id="Tracé_105" data-name="Tracé 105" d="M1712.481,1358.769l-260.991-30.916V1194.51l260.991,13.385Z" transform="translate(-1451.49 -1194.51)" fill="#96a7e2"/>
        </g>
        <g id="Groupe_137" data-name="Groupe 137">
          <path id="Tracé_106" data-name="Tracé 106" d="M1421.655,1194.51s-22,20.355-23.544,20.871,246.763,31.3,246.763,31.3l37.771-38.782Z" transform="translate(-1398.104 -1194.51)" fill="#96a7e2"/>
        </g>
        <g id="Groupe_138" data-name="Groupe 138" transform="translate(284.542)">
          <path id="Tracé_107" data-name="Tracé 107" d="M2204.452,1194.51l18.912,26.081-150.826,26.081-29.438-38.777Z" transform="translate(-2043.1 -1194.51)" fill="#798ecc"/>
        </g>
        <g id="Groupe_140" data-name="Groupe 140" transform="translate(22.413 12.199)">
          <g id="Groupe_139" data-name="Groupe 139">
            <path id="Tracé_108" data-name="Tracé 108" d="M1740.472,1263.268a1.144,1.144,0,0,1-.909-.45l-28.635-37.723-36.845,37.825a1.467,1.467,0,0,1-.957.335l-223.219-28.04a1.141,1.141,0,1,1,.287-2.263l222.659,27.965,37.37-38.367c.229-.247.543-.5.887-.335a1.164,1.164,0,0,1,.838.441l29.019,38.226,131.23-22.689a1.139,1.139,0,0,1,.388,2.245l-131.918,22.812C1740.6,1263.255,1740.538,1263.268,1740.472,1263.268Z" transform="translate(-1448.909 -1222.162)" fill="#2f1a31"/>
          </g>
        </g>
      </g>
      <g id="Groupe_144" data-name="Groupe 144" transform="translate(633.975 539.678)">
        <g id="Groupe_142" data-name="Groupe 142">
          <path id="Tracé_109" data-name="Tracé 109" d="M1632.568,1337.79s-8.4-18.7-26.61-13.018-8.258,30.89,6.864,43.021,18.833,16.733,22.477,16.23,56.459-36.311,41.707-62.1C1666.413,1303.42,1643.133,1309.812,1632.568,1337.79Z" transform="translate(-1596.135 -1311.432)" fill="#e28569"/>
        </g>
        <g id="Groupe_143" data-name="Groupe 143" transform="translate(61.358 5.835)">
          <path id="Tracé_110" data-name="Tracé 110" d="M1747.819,1336.91a.762.762,0,0,1-.763-.754,8.929,8.929,0,0,0-5.506-8.58,15.851,15.851,0,0,0-5.589-1.394.761.761,0,1,1,.04-1.522c.124,0,12.494.477,12.573,11.483a.763.763,0,0,1-.754.768Z" transform="translate(-1735.22 -1324.659)" fill="#deebe9"/>
        </g>
      </g>
      <g id="Groupe_154" data-name="Groupe 154" transform="translate(733.784 581.922)">
        <g id="Groupe_145" data-name="Groupe 145" transform="translate(0 0)">
          <path id="Tracé_111" data-name="Tracé 111" d="M2024.578,1410.362l-94.045-3.172-106.583,2.8-.269,8.1,103.093-4.632c10.363.349,18.453,9.926,18.074,21.383h0c-.38,11.461-9.088,20.469-19.446,20.117l-102.824-3.472-.2,5.986,200.416,6.763c13.451.454,24.753-11.241,25.243-26.116h0C2048.528,1423.244,2038.025,1410.816,2024.578,1410.362Z" transform="translate(-1822.38 -1407.19)" fill="#e28569"/>
        </g>
        <g id="Groupe_146" data-name="Groupe 146">
          <path id="Tracé_112" data-name="Tracé 112" d="M1953.994,1434.947h0c.494-14.876-10.01-27.307-23.46-27.757l-106.583,2.8-.269,8.1,103.093-4.632c10.363.349,18.453,9.926,18.074,21.383h0c-.38,11.461-9.088,20.469-19.446,20.117l-102.824-3.472-.2,5.986,106.371,3.591C1942.2,1461.514,1953.5,1449.823,1953.994,1434.947Z" transform="translate(-1822.38 -1407.19)" fill="#e28569"/>
        </g>
        <g id="Groupe_147" data-name="Groupe 147" transform="translate(0.194 6.286)">
          <path id="Tracé_113" data-name="Tracé 113" d="M1927.016,1421.44l-103.093,4.615h0c9.3,1.5,12.11,11.046,13.4,16.137,2.616,10.323-5.122,16.27-14.5,17.143l0,.141,102.824,3.472c10.363.349,19.067-8.656,19.446-20.117h0C1945.469,1431.362,1937.379,1421.788,1927.016,1421.44Z" transform="translate(-1822.82 -1421.44)" fill="#e6edff"/>
        </g>
        <g id="Groupe_148" data-name="Groupe 148" transform="translate(15.044 31.78)">
          <rect id="Rectangle_2" data-name="Rectangle 2" width="0.565" height="83.043" transform="matrix(0.034, -0.999, 0.999, 0.034, 0, 0.564)" fill="#2f1a31"/>
        </g>
        <g id="Groupe_150" data-name="Groupe 150" transform="translate(120.138 3.664)" opacity="0.4">
          <g id="Groupe_149" data-name="Groupe 149">
            <path id="Tracé_114" data-name="Tracé 114" d="M2096.2,1463.16a1.127,1.127,0,0,1-.935-.5,1.142,1.142,0,0,1,.309-1.571c.084-.057,8.184-5.731,9.489-21.594,1.293-15.758-9.648-21.806-9.758-21.864a1.142,1.142,0,0,1-.468-1.531,1.121,1.121,0,0,1,1.518-.472c.507.269,12.361,6.82,10.945,24.052-1.4,17.037-10.111,23.046-10.482,23.293A1.06,1.06,0,0,1,2096.2,1463.16Z" transform="translate(-2094.708 -1415.496)" fill="#436e8e"/>
          </g>
        </g>
        <g id="Groupe_151" data-name="Groupe 151" transform="translate(14.718 25.723)">
          <rect id="Rectangle_3" data-name="Rectangle 3" width="63.764" height="0.565" transform="matrix(1, -0.017, 0.017, 1, 0, 1.071)" fill="#2f1a31"/>
        </g>
        <g id="Groupe_153" data-name="Groupe 153" transform="translate(133.579 11.196)" opacity="0.4">
          <g id="Groupe_152" data-name="Groupe 152">
            <path id="Tracé_115" data-name="Tracé 115" d="M2146.4,1467.095h-.04l-20.1-.679a1.12,1.12,0,0,1-.944-.582,1.151,1.151,0,0,1,.013-1.121,61.524,61.524,0,0,0,5.523-14.28c1.941-7.853-3.357-16.023-3.41-16.1a1.131,1.131,0,0,1-.044-1.178,1.149,1.149,0,0,1,1.019-.582l19.071.644a1.125,1.125,0,0,1,.882.481c11.933,17.218-.979,32.844-1.112,33A1.132,1.132,0,0,1,2146.4,1467.095Zm-18.259-2.885,17.739.6c1.888-2.466,10.477-15.092.966-29.354l-16.486-.556c1.6,3.071,4.284,9.555,2.669,16.08A64.948,64.948,0,0,1,2128.142,1464.209Z" transform="translate(-2125.175 -1432.57)" fill="#436e8e"/>
          </g>
        </g>
      </g>
      <g id="Groupe_162" data-name="Groupe 162" transform="translate(702.854 632.748)">
        <g id="Groupe_155" data-name="Groupe 155">
          <path id="Tracé_116" data-name="Tracé 116" d="M1776.635,1522.4h94.1l106.433,6.388v8.108l-102.881-8.108c-10.367,0-18.771,9.3-18.771,20.765h0c0,11.466,8.4,20.765,18.771,20.765h102.881v5.991H1776.635c-13.455,0-24.365-12.065-24.365-26.954h0C1752.27,1534.466,1763.18,1522.4,1776.635,1522.4Z" transform="translate(-1752.27 -1522.4)" fill="#436e8e"/>
        </g>
        <g id="Groupe_156" data-name="Groupe 156" transform="translate(94.098)">
          <path id="Tracé_117" data-name="Tracé 117" d="M1965.57,1549.35h0c0-14.885,10.91-26.95,24.365-26.95l106.433,6.388v8.108l-102.881-8.108c-10.367,0-18.771,9.3-18.771,20.765h0c0,11.466,8.4,20.765,18.771,20.765h102.881v5.991H1989.935C1976.48,1576.3,1965.57,1564.235,1965.57,1549.35Z" transform="translate(-1965.57 -1522.4)" fill="#436e8e"/>
        </g>
        <g id="Groupe_157" data-name="Groupe 157" transform="translate(103.243 6.41)">
          <path id="Tracé_118" data-name="Tracé 118" d="M2005.071,1536.93l102.882,8.086h0c-9.348,1.187-12.467,10.632-13.927,15.674-2.956,10.23,4.579,16.433,13.927,17.624v.141H2005.071c-10.367,0-18.771-9.3-18.771-20.765h0C1986.3,1546.225,1994.7,1536.93,2005.071,1536.93Z" transform="translate(-1986.3 -1536.93)" fill="#e6edff"/>
        </g>
        <g id="Groupe_158" data-name="Groupe 158" transform="translate(127.365 34.891)">
          <rect id="Rectangle_4" data-name="Rectangle 4" width="83.043" height="0.565" fill="#2f1a31"/>
        </g>
        <g id="Groupe_159" data-name="Groupe 159" transform="translate(92.926 3.34)">
          <path id="Tracé_119" data-name="Tracé 119" d="M1972.662,1577.262c-.362-.26-8.867-6.556-9.705-23.628-.843-17.262,11.219-23.412,11.735-23.664l1,2.021-.5-1.01.5,1.01c-.459.229-11.249,5.8-10.477,21.533.781,15.992,8.686,21.846,8.766,21.9Z" transform="translate(-1962.915 -1529.97)" fill="#2f1a31"/>
        </g>
        <g id="Groupe_160" data-name="Groupe 160" transform="translate(147.264 26.7)">
          <rect id="Rectangle_5" data-name="Rectangle 5" width="0.565" height="63.764" transform="translate(0 0.564) rotate(-87.105)" fill="#2f1a31"/>
        </g>
        <g id="Groupe_161" data-name="Groupe 161" transform="translate(64.974 11.355)">
          <path id="Tracé_120" data-name="Tracé 120" d="M1904.937,1548.14h19.08s-5.929,8.382-4.125,16.874a61.869,61.869,0,0,0,5.157,14.761h-20.112S1892.819,1564.441,1904.937,1548.14Z" transform="translate(-1899.551 -1548.14)" fill="#2f1a31"/>
        </g>
      </g>
      <g id="Groupe_172" data-name="Groupe 172" transform="translate(612.901 97.055)" opacity="0.5">
        <g id="Groupe_163" data-name="Groupe 163">
          <path id="Tracé_121" data-name="Tracé 121" d="M1603.847,334.437c-.662-14.271-13.482-26.337-27.766-26.337-20.24,0-26.88,15.507-27.678,29.773-.829,14.818,12.229,24.956,26.518,24.956S1604.667,352.167,1603.847,334.437Z" transform="translate(-1548.365 -308.1)" fill="#74a1bd"/>
        </g>
        <g id="Groupe_164" data-name="Groupe 164" transform="translate(4.14 3.984)">
          <path id="Tracé_122" data-name="Tracé 122" d="M1604.071,340.98c0-11.364-11.346-23.474-22.7-23.836-16.8-.538-23.619,16.512-23.619,27.876s11.73,18.14,23.094,18.14S1604.071,352.344,1604.071,340.98Z" transform="translate(-1557.75 -317.132)" fill="#c4d7d4"/>
        </g>
        <g id="Groupe_165" data-name="Groupe 165" transform="translate(23.595 24.863)">
          <path id="Tracé_123" data-name="Tracé 123" d="M1608.445,367.045a3.256,3.256,0,0,0-3.362-2.585,3.78,3.78,0,0,0-3.234,3.437,3.21,3.21,0,0,0,3.234,2.832C1606.645,370.729,1608.728,369.922,1608.445,367.045Z" transform="translate(-1601.85 -364.46)" fill="#74a1bd"/>
        </g>
        <g id="Groupe_168" data-name="Groupe 168" transform="translate(24.576 7.988)">
          <g id="Groupe_166" data-name="Groupe 166" transform="translate(0 0.002)">
            <path id="Tracé_124" data-name="Tracé 124" d="M1606.326,347.09h-.565a.561.561,0,0,1-.56-.56c0-.309-.706-1.359-.4-1.359l.313-.657.675-15.352-.7.428a.56.56,0,1,1-.922-.635l1.725-2.5a.553.553,0,0,1,.626-.216.559.559,0,0,1,.393.534l.935,19.72C1607.852,346.8,1606.635,347.09,1606.326,347.09Z" transform="translate(-1604.072 -326.21)" fill="#74a1bd"/>
          </g>
          <g id="Groupe_167" data-name="Groupe 167" transform="translate(1.563)">
            <path id="Tracé_125" data-name="Tracé 125" d="M1610.242,329.666a.551.551,0,0,1-.432-.207l-2.126-1.522a2.121,2.121,0,0,1,.3-1.606.565.565,0,0,1,.79.079l1.906,2.338a.565.565,0,0,1-.079.79A.576.576,0,0,1,1610.242,329.666Z" transform="translate(-1607.615 -326.206)" fill="#74a1bd"/>
          </g>
        </g>
        <g id="Groupe_171" data-name="Groupe 171" transform="translate(14.456 25.934)">
          <g id="Groupe_169" data-name="Groupe 169" transform="translate(0 1.215)">
            <path id="Tracé_126" data-name="Tracé 126" d="M1583.355,373.178a.555.555,0,0,1-.4-.172l-1.663-1.725a.561.561,0,0,1,.406-.948h0l13.221-.693c.309,0,.485.975.485,1.284v.565a.561.561,0,0,1-.56.56c-.309,0-1.006.278-1.006-.031l.446-.534-11.263-.026.745.772a.563.563,0,0,1-.013.794A.6.6,0,0,1,1583.355,373.178Z" transform="translate(-1581.134 -369.64)" fill="#74a1bd"/>
          </g>
          <g id="Groupe_170" data-name="Groupe 170" transform="translate(0.001)">
            <path id="Tracé_127" data-name="Tracé 127" d="M1581.694,369.914a.536.536,0,0,1-.353-.128.564.564,0,0,1-.079-.79l1.557-1.906a.561.561,0,0,1,.869.71l-.613,1.425A5.388,5.388,0,0,1,1581.694,369.914Z" transform="translate(-1581.136 -366.886)" fill="#74a1bd"/>
          </g>
        </g>
      </g>
    </g>
  </g>
</svg>
