<svg xmlns="http://www.w3.org/2000/svg" width="287.48" height="232.22" viewBox="0 0 287.48 232.22">
  <g id="Groupe_1" data-name="Groupe 1" transform="translate(-105.1 -72.97)">
    <rect id="cadre_rouge" data-name="cadre rouge" width="287.48" height="232.22" rx="22.5" transform="translate(105.1 72.97)" fill="#e6332a"/>
    <g id="colombe">
      <path id="Tracé_2" data-name="Tracé 2" d="M208.38,122c3.2-.22,5.9-.87,9.1-.78,7.37.22,12.26,4.3,13.13,11.18,1,7.82-.86,15.29-3.49,22.54a3.7,3.7,0,0,1-1.11-.12c-1.24-.66-2.45-1.36-3.68-2.05-11.21-6.27-23-10.66-36.09-9.34-12.17,1.23-21.18,7.23-25.71,18.81-5,12.68-2.94,25.31,2.54,37.13,7.26,15.67,19.54,27.29,33.64,36.78,9.13,6.14,19,11.19,28.52,16.73l.65-1a129.5,129.5,0,0,1-39.12-48c-4.18-8.81-7.14-18-6.94-27.93.28-13.37,8.51-20.55,21.68-18.65a84.211,84.211,0,0,1,15.35,4.16C221,162.87,225,165,230,167.27c3.31-8.12,7.33-15.63,9.44-23.65,4.16-15.87-2.14-24.27-18.54-26.45a22.228,22.228,0,0,1-2.41-.6" fill="#fff"/>
      <path id="Tracé_3" data-name="Tracé 3" d="M219,116.75c7.27-8.63,19.26-9.48,28.45-2.26a29.36,29.36,0,0,1,9.93,14.33c5.86,18,3.28,36.09-.11,54.11-.15.82-1.94,1.88-3,1.9a114.8,114.8,0,0,1-14.73-.43c-13.59-1.58-27.14-3.48-40-5.17a144.71,144.71,0,0,0,54.83,18A493.334,493.334,0,0,1,225.79,280c.94-.66,1.23-.77,1.38-1,17-23.95,30.68-49.5,38.18-78,.83-3.18,2.3-4.11,5.29-4.74A68.189,68.189,0,0,0,285,191.78c7.76-3.59,13.56-9.49,18-18.06-10.84,7-21.92,9.58-33.86,10.37.13-1.35.18-2,.27-2.72,2.18-17.05,1.83-33.9-3.86-50.33-3.61-10.42-8.88-19.76-18.31-26a23.77,23.77,0,0,0-11.84-4c-12.26-.71-24.65,7.76-27,20.9h0" fill="#fff"/>
      <path id="Tracé_4" data-name="Tracé 4" d="M327.8,163.18c-4.13-11.67-14.33-19.9-25.37-20.51-10.06-.55-23.66,7.69-28.1,17.12,4.7-.93,9.3-2.14,14-2.69,10.63-1.26,18.19,3.9,19.51,14.41a48.64,48.64,0,0,1-1.24,18.65c-6.32,22.81-19.78,41.16-37.36,56.69l-4.06,3.58.64.82c4.45-2.31,9-4.46,13.34-6.95,17.19-9.82,32.6-21.64,42.63-39.24C329.25,191.92,333.12,178.19,327.8,163.18Z" fill="#fff"/>
    </g>
  </g>
</svg>
