<svg xmlns="http://www.w3.org/2000/svg" width="500" height="374" viewBox="0 0 500 374">
  <g id="_2650148" data-name="2650148" transform="translate(0 0.696)">
    <g id="BACKGROUND" transform="translate(0 -0.696)">
      <g id="Groupe_1" data-name="Groupe 1">
        <rect id="Rectangle_1" data-name="Rectangle 1" width="500" height="374" transform="translate(0 0)" fill="none"/>
      </g>
    </g>
    <g id="OBJECTS" transform="translate(14.001 28.236)">
      <g id="Groupe_2" data-name="Groupe 2" transform="translate(39.939 312.792)">
        <path id="Tracé_1" data-name="Tracé 1" d="M110.79,411.33H55.69a1.746,1.746,0,0,1-1.75-1.75v-.96a1.746,1.746,0,0,1,1.75-1.75h55.1a1.746,1.746,0,0,1,1.75,1.75v.96A1.752,1.752,0,0,1,110.79,411.33Z" transform="translate(-53.94 -406.87)" fill="#adbec4"/>
        <path id="Tracé_2" data-name="Tracé 2" d="M459.94,411.33H444.86a1.746,1.746,0,0,1-1.75-1.75v-.96a1.746,1.746,0,0,1,1.75-1.75h15.08a1.746,1.746,0,0,1,1.75,1.75v.96A1.746,1.746,0,0,1,459.94,411.33Z" transform="translate(-54.491 -406.87)" fill="#adbec4"/>
        <path id="Tracé_3" data-name="Tracé 3" d="M214.48,411.33h-55.1a1.746,1.746,0,0,1-1.75-1.75v-.96a1.746,1.746,0,0,1,1.75-1.75h55.1a1.746,1.746,0,0,1,1.75,1.75v.96A1.739,1.739,0,0,1,214.48,411.33Z" transform="translate(-54.104 -406.87)" fill="#adbec4"/>
        <path id="Tracé_4" data-name="Tracé 4" d="M295.39,411.33h-55.1a1.746,1.746,0,0,1-1.75-1.75v-.96a1.746,1.746,0,0,1,1.75-1.75h55.1a1.746,1.746,0,0,1,1.75,1.75v.96A1.746,1.746,0,0,1,295.39,411.33Z" transform="translate(-54.231 -406.87)" fill="#adbec4"/>
        <path id="Tracé_5" data-name="Tracé 5" d="M394.48,411.33H319.37a1.746,1.746,0,0,1-1.75-1.75v-.96a1.746,1.746,0,0,1,1.75-1.75h75.11a1.746,1.746,0,0,1,1.75,1.75v.96A1.745,1.745,0,0,1,394.48,411.33Z" transform="translate(-54.381 -406.87)" fill="#adbec4"/>
      </g>
      <g id="Groupe_11" data-name="Groupe 11" transform="translate(0 64.918)">
        <path id="Tracé_6" data-name="Tracé 6" d="M129.26,161.06s-5.82-3.96-14.33-.91-10.42,14.51-8.33,23.82-9.62,41.06-9.62,41.06,6.09,8.57,27.38,5.29c0,0,15.87-28.85,14.69-49.56S129.26,161.06,129.26,161.06Z" transform="translate(-14.001 -158.996)" fill="#0e3944"/>
        <path id="Tracé_7" data-name="Tracé 7" d="M135.98,196.85c8-2.56,12.9,4.1,17.48,16.5s6.13,13.64,6.13,13.64l17.69,11.37-1.47,6.63s-16.84-6.59-20.91-10.79-15.78-25.44-15.78-25.44Z" transform="translate(-14.001 -158.996)" fill="#ef6e4b"/>
        <path id="Tracé_8" data-name="Tracé 8" d="M96.98,276.94s-3.47,17.58-2.9,44.04c0,0-13.68,20.17-2.39,77.72h5.92s4.84-48.96,8.54-62.23,17.37-17.34,18.11-57.68Z" transform="translate(-14.001 -158.996)" fill="#ff8b66"/>
        <path id="Tracé_9" data-name="Tracé 9" d="M69.92,328.63c-3.44-11.34-12.28-30.33-34.97-56.07a3.356,3.356,0,0,0-3.18.42c-1.93,1.18-1.93,2.57-1.93,2.57s11.38,24.79,18.63,42.95A16.086,16.086,0,0,0,63.4,328.63h6.52Z" transform="translate(-14.001 -158.996)" fill="#ff8b66"/>
        <path id="Tracé_10" data-name="Tracé 10" d="M111.22,350.56s.08,8.46-5.47,8.6c-7.84.21-8.13-8.33-17.01-8.05s-27.2,2.5-33.03-11.38c-3.01-7.17,1.11-16.38-8.6-23.32s-5-14.71,0-18.87-2.15-8.7,3.05-10.82a5.139,5.139,0,0,1,3.6-.07,8.585,8.585,0,0,1,1.89.95,18.329,18.329,0,0,1,4.69,5.02c14.71-40.29,40.9-45.61,40.9-45.61l25.9,8.94C127.76,318.64,111.22,350.56,111.22,350.56Z" transform="translate(-14.001 -158.996)" fill="#164353"/>
        <path id="Tracé_11" data-name="Tracé 11" d="M135.98,196.85a33.872,33.872,0,0,1-14.64.73c-8.6-1.31-11.39-6.7-17.43-3.23-9.07,5.21-4.83,23.16-2.55,32.5.85,3.48,1.93,12.62-.12,20.17,0,0,12.08,9.4,25.9,8.93l7.54-16.4C134.68,239.54,151.08,219.92,135.98,196.85Z" transform="translate(-14.001 -158.996)" fill="#cfd8dc"/>
        <path id="Tracé_12" data-name="Tracé 12" d="M120.63,181.79a36.979,36.979,0,0,1-2.14,16.22s4.48,6.62,8.76,2.26a42.772,42.772,0,0,1,5.2-16.59C135.67,177.79,120.63,181.79,120.63,181.79Z" transform="translate(-14.001 -158.996)" fill="#ef6e4b"/>
        <g id="Groupe_6" data-name="Groupe 6" transform="translate(96.356 3.301)">
          <path id="Tracé_13" data-name="Tracé 13" d="M113.75,182.08s-3.78-2.39-3.36,1.3c.5,4.28,4.67,5.11,5.11,3.62S113.75,182.08,113.75,182.08Z" transform="translate(-110.357 -162.297)" fill="#ff8b66"/>
          <path id="Tracé_14" data-name="Tracé 14" d="M135.46,177.45s2.4-3.78,3.59-.26c1.38,4.08-2.04,6.61-3.08,5.45S135.46,177.45,135.46,177.45Z" transform="translate(-110.357 -162.297)" fill="#ff8b66"/>
          <path id="Tracé_15" data-name="Tracé 15" d="M127.65,194.87c-6.86,1.54-11.74-2.08-14.75-15.52-1.55-6.93,1.02-11.98,8.71-13.7s11.87,1.81,13.43,8.74C138.27,188.83,134.73,193.28,127.65,194.87Z" transform="translate(-110.357 -162.297)" fill="#ff8b66"/>
          <path id="Tracé_16" data-name="Tracé 16" d="M133.83,179.69a1.663,1.663,0,1,1-2-.58A1.488,1.488,0,0,1,133.83,179.69Z" transform="translate(-110.357 -162.297)" fill="#db614d"/>
          <path id="Tracé_17" data-name="Tracé 17" d="M119.81,183.23A1.666,1.666,0,1,1,118,182.2,1.481,1.481,0,0,1,119.81,183.23Z" transform="translate(-110.357 -162.297)" fill="#db614d"/>
          <g id="Groupe_3" data-name="Groupe 3" transform="translate(15.221 9.895)">
            <path id="Tracé_18" data-name="Tracé 18" d="M129.06,173.43a.329.329,0,0,1-.19-.06,4,4,0,0,0-2.85-.36.352.352,0,1,1-.18-.68,4.686,4.686,0,0,1,3.42.46.365.365,0,0,1,.1.49A.417.417,0,0,1,129.06,173.43Z" transform="translate(-125.579 -172.192)" fill="#0e3944"/>
          </g>
          <g id="Groupe_4" data-name="Groupe 4" transform="translate(5.431 11.618)">
            <path id="Tracé_19" data-name="Tracé 19" d="M116.14,176.32a.407.407,0,0,1-.18-.05.347.347,0,0,1-.12-.48,4.652,4.652,0,0,1,2.9-1.87.359.359,0,0,1,.41.28.351.351,0,0,1-.28.41,4.027,4.027,0,0,0-2.43,1.55A.366.366,0,0,1,116.14,176.32Z" transform="translate(-115.789 -173.915)" fill="#0e3944"/>
          </g>
          <path id="Tracé_20" data-name="Tracé 20" d="M129.36,177.19c.19.85-.04,1.63-.51,1.73s-1.01-.5-1.2-1.35.04-1.63.51-1.73S129.17,176.34,129.36,177.19Z" transform="translate(-110.357 -162.297)" fill="#1a4850"/>
          <path id="Tracé_21" data-name="Tracé 21" d="M119.82,179.25c.19.85-.04,1.63-.51,1.73s-1.01-.5-1.2-1.35.04-1.63.51-1.73S119.63,178.39,119.82,179.25Z" transform="translate(-110.357 -162.297)" fill="#1a4850"/>
          <path id="Tracé_22" data-name="Tracé 22" d="M122.91,187.31s4.41-.36,6.35-2c0,0-.53,3.44-2.93,3.68A3.488,3.488,0,0,1,122.91,187.31Z" transform="translate(-110.357 -162.297)" fill="#1a4850"/>
          <path id="Tracé_23" data-name="Tracé 23" d="M126.96,177.29s.16-2.24,1.01-2.27,1.89,1.62,1.89,1.62l1.07-.92-1.18.43s-1.05-1.73-1.87-1.55C126.71,174.85,126.96,177.29,126.96,177.29Z" transform="translate(-110.357 -162.297)" fill="#1a4850"/>
          <path id="Tracé_24" data-name="Tracé 24" d="M120.35,179.04s-1.1-1.96-1.89-1.62-1.01,2.27-1.01,2.27l-1.36-.37,1.25-.11s.21-2.02,1.03-2.2C119.53,176.73,120.35,179.04,120.35,179.04Z" transform="translate(-110.357 -162.297)" fill="#1a4850"/>
          <g id="Groupe_5" data-name="Groupe 5" transform="translate(13.273 17.872)">
            <path id="Tracé_25" data-name="Tracé 25" d="M125.13,183.34l-.35-.67a.873.873,0,0,0,.56-.99.928.928,0,0,0-.65-.75c-.14-.01-.26.11-.35.35l-.71-.26a1.1,1.1,0,0,1,1.11-.85,1.68,1.68,0,0,1,1.34,1.35A1.642,1.642,0,0,1,125.13,183.34Z" transform="translate(-123.63 -180.169)" fill="#db614d"/>
          </g>
          <path id="Tracé_26" data-name="Tracé 26" d="M114.3,184.5s-2.12-7.79-.86-13.29c0,0,5.97-8.31,17.49-4.2a46.342,46.342,0,0,1,5.11,13.2s.43-2.77-.72-8.93-6.61-9.99-14.11-8.75S105.7,171.21,114.3,184.5Z" transform="translate(-110.357 -162.297)" fill="#0e3944"/>
        </g>
        <path id="Tracé_27" data-name="Tracé 27" d="M126.38,165.28s.46,2.03-1.52,7.27a2.157,2.157,0,0,0-3.09,0c-1.67,1.49-5.05.99-6.2,1.79a3.564,3.564,0,0,0-1.15,2.64,7.286,7.286,0,0,1,0-5.03,10.066,10.066,0,0,0-1.95,6.38s-3.05-.49-2.91-5.52,7.28-13.16,15.3-12.63,9.92,13.22,9.92,13.22a2.368,2.368,0,0,0-1.88-.32,16.655,16.655,0,0,0-1.98-6.07,9,9,0,0,1,0,5.08,7.225,7.225,0,0,0-3.99-.8C126.94,171.28,128.02,169.15,126.38,165.28Z" transform="translate(-14.001 -158.996)" fill="#0e3944"/>
        <path id="Tracé_28" data-name="Tracé 28" d="M101.87,195.96c3.9-3.08,6.94.84,7.68,6.25s-6.31,37.33-11.75,36.15c-2.1-.45-2.96-8.82-2.96-8.82a190.709,190.709,0,0,0,3.5-22.48C98.98,200.85,99.84,197.56,101.87,195.96Z" transform="translate(-14.001 -158.996)" fill="#ff8b66"/>
        <path id="Tracé_29" data-name="Tracé 29" d="M90.52,233.84c-5.25-5.01-14.67-21.61-17.06-30.07l3.99-1.6s12,17.17,17.47,21.5,7.4,9.15,4.95,13.28S91.62,234.9,90.52,233.84Z" transform="translate(-14.001 -158.996)" fill="#ff8b66"/>
        <g id="Groupe_7" data-name="Groupe 7" transform="translate(47.32 31.846)">
          <path id="Tracé_30" data-name="Tracé 30" d="M75.1,192.7c-.28,5.43,4.15,6.72,2.19,10.89a2.83,2.83,0,0,1-1.66,1.54,3.364,3.364,0,0,1-3.47-.89,38.338,38.338,0,0,0-7.09-5.37c-1.97-1.14-.85-1.45-.85-1.45-.19-.09-.38-.16-.56-.24-1.4-.59-2.53-.81-1.51-1.43,1.15-.71,5.21.77,5.21.77-5.29-3.52-6.72-2.66-5.76-3.41,1.32-1.02,6.34,1.33,6.49,1.4-2.79-2.64-4.82-3.24-3.71-3.64s6.65,3.6,8.67,5.1l.73.55C73.7,192.09,75.1,192.7,75.1,192.7Z" transform="translate(-61.322 -190.842)" fill="#ff8b66"/>
          <path id="Tracé_31" data-name="Tracé 31" d="M73.04,195.97l.73.55a3.66,3.66,0,0,0,.28,3.65A3.26,3.26,0,0,1,73.04,195.97Z" transform="translate(-61.322 -190.842)" fill="#ef6e4b"/>
          <path id="Tracé_32" data-name="Tracé 32" d="M68.4,199.09c-.47-.26-3.14-1.76-4.2-1.67-.19-.09-.38-.16-.56-.24C64.36,196.24,67.87,198.71,68.4,199.09Z" transform="translate(-61.322 -190.842)" fill="#ef6e4b"/>
        </g>
        <g id="Groupe_8" data-name="Groupe 8" transform="translate(36.479 95.084)">
          <path id="Tracé_33" data-name="Tracé 33" d="M89.37,279.67a1.07,1.07,0,1,1-1.07-1.07A1.071,1.071,0,0,1,89.37,279.67Z" transform="translate(-50.48 -254.08)" fill="#6097b2"/>
          <path id="Tracé_34" data-name="Tracé 34" d="M108.41,287.01a1.07,1.07,0,1,1-1.07-1.07A1.071,1.071,0,0,1,108.41,287.01Z" transform="translate(-50.48 -254.08)" fill="#6097b2"/>
          <path id="Tracé_35" data-name="Tracé 35" d="M124.63,290.95a1.07,1.07,0,1,1-1.07-1.07A1.071,1.071,0,0,1,124.63,290.95Z" transform="translate(-50.48 -254.08)" fill="#6097b2"/>
          <path id="Tracé_36" data-name="Tracé 36" d="M99.7,265.73a1.07,1.07,0,1,1-1.07-1.07A1.071,1.071,0,0,1,99.7,265.73Z" transform="translate(-50.48 -254.08)" fill="#6097b2"/>
          <circle id="Ellipse_1" data-name="Ellipse 1" cx="1.07" cy="1.07" r="1.07" transform="translate(50.68 20.72)" fill="#6097b2"/>
          <path id="Tracé_37" data-name="Tracé 37" d="M120.18,281.65a1.07,1.07,0,1,1-1.07-1.07A1.071,1.071,0,0,1,120.18,281.65Z" transform="translate(-50.48 -254.08)" fill="#6097b2"/>
          <path id="Tracé_38" data-name="Tracé 38" d="M122.49,264.16a1.07,1.07,0,1,1-1.07-1.07A1.071,1.071,0,0,1,122.49,264.16Z" transform="translate(-50.48 -254.08)" fill="#6097b2"/>
          <circle id="Ellipse_2" data-name="Ellipse 2" cx="1.07" cy="1.07" r="1.07" transform="translate(58.82 5.37)" fill="#6097b2"/>
          <path id="Tracé_39" data-name="Tracé 39" d="M79.92,300.49a1.07,1.07,0,1,1-1.07-1.07A1.071,1.071,0,0,1,79.92,300.49Z" transform="translate(-50.48 -254.08)" fill="#6097b2"/>
          <path id="Tracé_40" data-name="Tracé 40" d="M64.71,295.95a1.07,1.07,0,1,1-1.07-1.07A1.071,1.071,0,0,1,64.71,295.95Z" transform="translate(-50.48 -254.08)" fill="#6097b2"/>
          <path id="Tracé_41" data-name="Tracé 41" d="M55.64,287.6a1.075,1.075,0,0,1-1.97-.59.771.771,0,0,1,.08-.37A9.084,9.084,0,0,1,55.64,287.6Z" transform="translate(-50.48 -254.08)" fill="#6097b2"/>
          <circle id="Ellipse_3" data-name="Ellipse 3" cx="1.07" cy="1.07" r="1.07" transform="translate(32.75 59.26)" fill="#6097b2"/>
          <path id="Tracé_42" data-name="Tracé 42" d="M58.07,329.53A1.07,1.07,0,1,1,57,328.46,1.071,1.071,0,0,1,58.07,329.53Z" transform="translate(-50.48 -254.08)" fill="#6097b2"/>
          <circle id="Ellipse_4" data-name="Ellipse 4" cx="1.07" cy="1.07" r="1.07" transform="translate(16.61 65.21)" fill="#6097b2"/>
          <circle id="Ellipse_5" data-name="Ellipse 5" cx="1.07" cy="1.07" r="1.07" transform="translate(0 57.1)" fill="#6097b2"/>
          <path id="Tracé_43" data-name="Tracé 43" d="M66.02,344.2a1.07,1.07,0,1,1-1.07-1.07A1.071,1.071,0,0,1,66.02,344.2Z" transform="translate(-50.48 -254.08)" fill="#6097b2"/>
          <path id="Tracé_44" data-name="Tracé 44" d="M76.18,288.08a1.07,1.07,0,1,1-1.07-1.07A1.071,1.071,0,0,1,76.18,288.08Z" transform="translate(-50.48 -254.08)" fill="#6097b2"/>
          <path id="Tracé_45" data-name="Tracé 45" d="M86.44,270.11a1.07,1.07,0,1,1-1.07-1.07A1.071,1.071,0,0,1,86.44,270.11Z" transform="translate(-50.48 -254.08)" fill="#6097b2"/>
          <path id="Tracé_46" data-name="Tracé 46" d="M98.04,255.15a1.07,1.07,0,1,1-1.07-1.07A1.071,1.071,0,0,1,98.04,255.15Z" transform="translate(-50.48 -254.08)" fill="#6097b2"/>
          <path id="Tracé_47" data-name="Tracé 47" d="M74.53,276.94a1.07,1.07,0,1,1-1.07-1.07A1.071,1.071,0,0,1,74.53,276.94Z" transform="translate(-50.48 -254.08)" fill="#6097b2"/>
          <path id="Tracé_48" data-name="Tracé 48" d="M87.51,259.45a1.07,1.07,0,1,1-1.07-1.07A1.071,1.071,0,0,1,87.51,259.45Z" transform="translate(-50.48 -254.08)" fill="#6097b2"/>
          <path id="Tracé_49" data-name="Tracé 49" d="M67.09,307.51a1.07,1.07,0,1,1-1.07-1.07A1.071,1.071,0,0,1,67.09,307.51Z" transform="translate(-50.48 -254.08)" fill="#6097b2"/>
          <path id="Tracé_50" data-name="Tracé 50" d="M53.68,298.08a1.07,1.07,0,1,1-1.07-1.07A1.071,1.071,0,0,1,53.68,298.08Z" transform="translate(-50.48 -254.08)" fill="#6097b2"/>
          <circle id="Ellipse_6" data-name="Ellipse 6" cx="1.07" cy="1.07" r="1.07" transform="translate(39.95 39.73)" fill="#6097b2"/>
          <circle id="Ellipse_7" data-name="Ellipse 7" cx="1.07" cy="1.07" r="1.07" transform="translate(62.02 45.34)" fill="#6097b2"/>
          <path id="Tracé_51" data-name="Tracé 51" d="M113.57,270.11a1.07,1.07,0,1,1-1.07-1.07A1.071,1.071,0,0,1,113.57,270.11Z" transform="translate(-50.48 -254.08)" fill="#6097b2"/>
          <path id="Tracé_52" data-name="Tracé 52" d="M126.4,272.34a1.07,1.07,0,1,1-1.07-1.07A1.071,1.071,0,0,1,126.4,272.34Z" transform="translate(-50.48 -254.08)" fill="#6097b2"/>
          <path id="Tracé_53" data-name="Tracé 53" d="M100.77,308.58a1.07,1.07,0,1,1-1.07-1.07A1.071,1.071,0,0,1,100.77,308.58Z" transform="translate(-50.48 -254.08)" fill="#6097b2"/>
          <circle id="Ellipse_8" data-name="Ellipse 8" cx="1.07" cy="1.07" r="1.07" transform="translate(38.88 72.41)" fill="#6097b2"/>
          <circle id="Ellipse_9" data-name="Ellipse 9" cx="1.07" cy="1.07" r="1.07" transform="translate(22.5 75.45)" fill="#6097b2"/>
          <circle id="Ellipse_10" data-name="Ellipse 10" cx="1.07" cy="1.07" r="1.07" transform="translate(67.56 59.26)" fill="#6097b2"/>
          <path id="Tracé_54" data-name="Tracé 54" d="M105.43,322.5a1.07,1.07,0,1,1-1.07-1.07A1.071,1.071,0,0,1,105.43,322.5Z" transform="translate(-50.48 -254.08)" fill="#6097b2"/>
          <path id="Tracé_55" data-name="Tracé 55" d="M83.24,346.33a1.07,1.07,0,1,1-1.07-1.07A1.071,1.071,0,0,1,83.24,346.33Z" transform="translate(-50.48 -254.08)" fill="#6097b2"/>
          <circle id="Ellipse_11" data-name="Ellipse 11" cx="1.07" cy="1.07" r="1.07" transform="translate(47.08 85.62)" fill="#6097b2"/>
          <circle id="Ellipse_12" data-name="Ellipse 12" cx="1.07" cy="1.07" r="1.07" transform="translate(62.94 79.34)" fill="#6097b2"/>
          <path id="Tracé_56" data-name="Tracé 56" d="M108.41,352.85a1.07,1.07,0,1,1-1.07-1.07A1.071,1.071,0,0,1,108.41,352.85Z" transform="translate(-50.48 -254.08)" fill="#6097b2"/>
        </g>
        <g id="Groupe_9" data-name="Groupe 9" transform="translate(75.367 233.385)">
          <path id="Tracé_57" data-name="Tracé 57" d="M107.24,409.06H89.71c-1.14-3.26.97-6.54.61-9.42-.61-4.86,2.22-2.18,2.22-2.18.5-5.23,7.85-6.22,7.77-3.89-.12,3.43.54,5.55,1.52,6.97,1.98,2.85,5.22,2.83,5.77,4.87a4.73,4.73,0,0,1,.13.58C108.28,408.56,107.24,409.06,107.24,409.06Z" transform="translate(-89.369 -392.381)" fill="#164353"/>
          <path id="Tracé_58" data-name="Tracé 58" d="M107.74,406c-3.63.84-12-.26-12.33-2.36-.32-2.04,4.19-3,6.43-3.09,1.98,2.85,5.22,2.83,5.77,4.87C107.66,405.62,107.7,405.82,107.74,406Z" transform="translate(-89.369 -392.381)" fill="#205260"/>
        </g>
        <g id="Groupe_10" data-name="Groupe 10" transform="translate(0 105.163)">
          <path id="Tracé_59" data-name="Tracé 59" d="M35.17,273.26c-1.87-1.7-4.9,1.11-4.9,1.11s1.63,2.42.58,3.4-2.28-1.25-4.35-.28a4.4,4.4,0,0,0-.51.29,24.066,24.066,0,0,0-4.67,4.54c-.28.31-.54.6-.79.85-1.59,1.67-5.68,2.64-6.45-1.8s4.23-9.65,9.71-14.43S32.82,265,32.82,265a8.643,8.643,0,0,1,1.24,3.26c0,1.24,1.11,1.87,1.73,3.05A1.517,1.517,0,0,1,35.17,273.26Z" transform="translate(-14.001 -264.159)" fill="#164353"/>
          <path id="Tracé_60" data-name="Tracé 60" d="M25.99,277.78a24.066,24.066,0,0,0-4.67,4.54c-2.05.49-3.9.34-4.19-1.59-.7-4.66,8.6-10.59,7.86-7.32A5.839,5.839,0,0,0,25.99,277.78Z" transform="translate(-14.001 -264.159)" fill="#205260"/>
        </g>
      </g>
      <g id="Groupe_24" data-name="Groupe 24" transform="translate(273.798)">
        <path id="Tracé_61" data-name="Tracé 61" d="M350.62,401.47a6.823,6.823,0,0,1-2.38-2.71,26.973,26.973,0,0,1,0-7.65c.62-3.92-1.09-7.12-6.64-8.33-5.4-1.17-8.6,1.43-7.35,12.28h0c-.82,4.51-.99,9.65.88,13.99h16.61C351.74,409.06,354.36,403.44,350.62,401.47Z" transform="translate(-288.35 -94.078)" fill="#cfd8dc"/>
        <path id="Tracé_62" data-name="Tracé 62" d="M365.19,343a50.41,50.41,0,0,1-6.11,21.93c-6.22,11.31-13.91,26.82-13.91,26.82s-5.12,5-8.38-3.28c0,0,2.3-28.82,7.57-39.36C349.65,338.55,365.19,343,365.19,343Z" transform="translate(-288.35 -94.078)" fill="#ff8b66"/>
        <path id="Tracé_63" data-name="Tracé 63" d="M444.86,307.74s9.89,41.61,16.19,52.59c0,0-1.45,4.59-8.26,5.98,0,0-21.53-31.64-22.91-44.97C428.48,308.02,444.86,307.74,444.86,307.74Z" transform="translate(-288.35 -94.078)" fill="#ff8b66"/>
        <g id="Groupe_13" data-name="Groupe 13" transform="translate(51.15 145.472)">
          <path id="Tracé_64" data-name="Tracé 64" d="M449.64,317.53c-2.63,6.34-22.96,6.68-22.96,6.68l-1.55-2.29-.41-.6-3.18-4.69s-33.69-33.04-40.25-30.27h-.01a3.5,3.5,0,0,0-.56.32c-4.51,3.22-4.93,20.86-10.26,50.47a51.692,51.692,0,0,1-2.5,8.35c-.1.24-.19.48-.28.7-.49,1.25-.83,2.05-.83,2.05-20.56,8.33-27.35-8.13-27.35-8.13s.24-.48.6-1.24c.08-.17.17-.36.26-.56,1.08-2.38,2.8-6.49,2.78-8.67q-.03-3.585-.06-6.89c0-.2,0-.39-.01-.58-.03-7.12-.02-13.3.02-18.67v-.57c.02-2.34.06-4.53.1-6.57v-.58c.18-9.36.48-15.61.8-19.77.01-.19.03-.39.04-.57.57-7.01,1.17-7.69,1.17-7.69l-4.12-28.63h44.94s6.75,6.76,15.51,15.69q.285.27.54.54c3.18,3.23,6.61,6.74,10.05,10.3.14.14.28.28.4.41,1.35,1.4,2.71,2.8,4.05,4.19.17.17.32.34.49.51,4.51,4.67,8.88,9.28,12.62,13.31.13.13.26.27.38.4,5.12,5.54,9.02,9.97,10.36,12.04a83.415,83.415,0,0,1,7.87,16.93v.01c.08.2.14.38.21.57C449.24,316.17,449.64,317.53,449.64,317.53Z" transform="translate(-339.5 -239.13)" fill="#8b383e"/>
          <g id="Groupe_12" data-name="Groupe 12" transform="translate(0.61 10.13)">
            <path id="Tracé_65" data-name="Tracé 65" d="M351.94,272.06a12.108,12.108,0,0,1-7.94,3.97c.01-.19.03-.39.04-.57a11.541,11.541,0,0,0,7.47-3.77,12.533,12.533,0,0,0,2.58-8.6l.56-.07A13,13,0,0,1,351.94,272.06Z" transform="translate(-340.11 -249.26)" fill="#662c33"/>
            <path id="Tracé_66" data-name="Tracé 66" d="M402.09,255.37c-.18.01-.34.02-.52.02-5,0-10.21-5.46-10.48-5.74l.4-.39c.07.08,5.26,5.52,10.06,5.56C401.73,255.01,401.91,255.19,402.09,255.37Z" transform="translate(-340.11 -249.26)" fill="#662c33"/>
            <path id="Tracé_67" data-name="Tracé 67" d="M367.97,345.52c-.1.24-.19.48-.28.7a26.5,26.5,0,0,1-9.17,1.72c-8.88,0-15.03-5.14-18.41-9.04.08-.17.17-.36.26-.56C344.69,343.41,353.91,350.88,367.97,345.52Z" transform="translate(-340.11 -249.26)" fill="#662c33"/>
            <path id="Tracé_68" data-name="Tracé 68" d="M380.04,276.06a46.806,46.806,0,0,1,1.24,10.31,3.5,3.5,0,0,0-.56.32c-.02-16.76-9.73-29.84-9.84-29.99l.44-.33a57.667,57.667,0,0,1,8.56,19.11,5.079,5.079,0,0,0,2.22-3.19c1.4-5.88-4.96-15.5-5.02-15.6l.46-.31c.27.41,6.55,9.91,5.11,16.03A5.6,5.6,0,0,1,380.04,276.06Z" transform="translate(-340.11 -249.26)" fill="#662c33"/>
            <path id="Tracé_69" data-name="Tracé 69" d="M430.08,284.5c-1.65,1.8-3.21,3.33-3.35,3.46l-.3.3-.14-.4c-2.18-5.7-16.17-18.04-16.31-18.16l-.17-.16,2.33-3.86c.14.14.28.28.4.41l-1.95,3.24a13.606,13.606,0,0,0,6.01.94c.17.17.32.34.49.51a8.428,8.428,0,0,1-1.45.12,15.4,15.4,0,0,1-4.3-.74c3.18,2.86,13.05,12.01,15.31,17.11.88-.87,1.99-2.01,3.06-3.18C429.83,284.23,429.96,284.36,430.08,284.5Z" transform="translate(-340.11 -249.26)" fill="#662c33"/>
            <path id="Tracé_70" data-name="Tracé 70" d="M353.32,322.68l-.22.04a27.937,27.937,0,0,1-5.63.58,16.4,16.4,0,0,1-4.37-.52c0-.2,0-.39-.01-.58,3.66,1.05,8.56.24,9.67.03l-.93-23.1a7.429,7.429,0,0,1-3.49,3.95,6.686,6.686,0,0,1-3.09.69,10.242,10.242,0,0,1-2.14-.24v-.57a7.222,7.222,0,0,0,4.97-.38,7.6,7.6,0,0,0,3.58-4.65c-1.85.28-5.6-.67-8.45-1.54v-.58c3.08.93,7.24,2.01,8.74,1.49l.36-.12Z" transform="translate(-340.11 -249.26)" fill="#662c33"/>
            <path id="Tracé_71" data-name="Tracé 71" d="M448.52,314.04a28.156,28.156,0,0,1-20.03,8.06,32.672,32.672,0,0,1-3.36-.18l-.41-.6c12.38,1.42,20.14-4.39,23.59-7.85C448.39,313.67,448.45,313.85,448.52,314.04Z" transform="translate(-340.11 -249.26)" fill="#662c33"/>
          </g>
        </g>
        <path id="Tracé_72" data-name="Tracé 72" d="M394.34,117.41s-1.24-2.84-6.45-2.85c-4.02,0-5.56,2.22-5.56,2.22-2.41,7.03-4.99,33.96-5.92,34.91-.47.49-30.3,20.57-30.3,20.57,16.19.3,26.29,20.25,26.29,20.25.52-6.56,18.8-32.54,19-34.85C391.77,153.3,399.5,133.78,394.34,117.41Z" transform="translate(-288.35 -92.605)" fill="#ce364c"/>
        <path id="Tracé_73" data-name="Tracé 73" d="M342.56,258.18s-.15,5.62,1.67,5.99a51.078,51.078,0,0,0,33.64-2.99c17.02-7.74,19.98-13.48,14.99-17.73S342.56,258.18,342.56,258.18Z" transform="translate(-288.35 -93.359)" fill="#ce364c"/>
        <path id="Tracé_74" data-name="Tracé 74" d="M335.74,176.16s-15.49-1.83-24.37,2.01c0,0-2.48,10.99,9.73,35.59s9.37,40.09,23.13,45.92c12.2,5.17,48.17-10.22,49.3-15.32,2.84-12.85-19.15-35.39-20.54-48.46S358.83,163.2,335.74,176.16Z" transform="translate(-288.35 -93.118)" fill="#f24052"/>
        <path id="Tracé_75" data-name="Tracé 75" d="M311.37,178.16c-10.82,3.84-23,16-23.02,21.86s10.16,8.12,10.16,8.12l16.68-8.12s4.77-3.33,1.73-13.04S311.37,178.16,311.37,178.16Z" transform="translate(-288.35 -93.045)" fill="#ce364c"/>
        <g id="Groupe_14" data-name="Groupe 14" transform="translate(55.323 83.977)">
          <path id="Tracé_76" data-name="Tracé 76" d="M355.85,189a18.435,18.435,0,0,1-9.74-2.94,5.229,5.229,0,0,1-2.37-3.19c-.61-3.85,3.13-5.8,3.29-5.88l.5.99c-.13.07-3.18,1.68-2.7,4.72a4.154,4.154,0,0,0,1.92,2.46,16.426,16.426,0,0,0,10.76,2.6,3.646,3.646,0,0,0,2.75-1.51,2.565,2.565,0,0,0,.07-1.98l1.02-.44a3.577,3.577,0,0,1-.11,2.93,4.654,4.654,0,0,1-3.54,2.09A10.832,10.832,0,0,1,355.85,189Z" transform="translate(-343.673 -176.99)" fill="#cfd8dc"/>
        </g>
        <g id="Groupe_15" data-name="Groupe 15" transform="translate(41.01 86.94)">
          <path id="Tracé_77" data-name="Tracé 77" d="M342.12,200.71c-2.4,0-6.37-1-6.93-4.93a19.71,19.71,0,0,1,.06-5.14c.24-2.17.42-3.88-.84-5.93-2.09-3.39-4.93-3.61-5.05-3.62l.07-1.11c.14.01,3.52.25,5.92,4.15,1.46,2.38,1.24,4.45,1,6.64a18.2,18.2,0,0,0-.06,4.87c.6,4.24,6.01,3.98,6.24,3.96l.07,1.11Z" transform="translate(-329.36 -179.98)" fill="#cfd8dc"/>
        </g>
        <path id="Tracé_78" data-name="Tracé 78" d="M345.49,180.78s8.19-5.58,6.25-11.61-28.31-5.62-35.11,1.6,14.71,12.01,14.71,12.01C333,179.42,343.64,179.05,345.49,180.78Z" transform="translate(-288.35 -92.962)" fill="#ce364c"/>
        <path id="Tracé_79" data-name="Tracé 79" d="M330.77,179.84c-3.89-1.32-6.19-4.12-5.36-7.36s17.54-3.32,20.7-.74S344.82,184.61,330.77,179.84Z" transform="translate(-288.35 -92.978)" fill="#a02e44"/>
        <path id="Tracé_80" data-name="Tracé 80" d="M328.92,170.74s3.44,5.87,1.85,9.1c0,0,11.79,4.07,11.79-2.53,0,0-2.22-4.95-1.38-8.14Z" transform="translate(-288.35 -92.975)" fill="#ef6e4b"/>
        <g id="Groupe_19" data-name="Groupe 19" transform="translate(30.401 42.225)">
          <path id="Tracé_81" data-name="Tracé 81" d="M324.98,165.61s-5.79-9.28-5.26-18.14c.27-4.43,2.55-6.17,2.55-6.17s-1.84-2.56.13-6.47c0,0,2.73,3.16,12.31,2.16,9.24-.96,10.16,5.62,10.16,5.62,6.6.98,2.15,20.95-2.46,22.99H324.98Z" transform="translate(-318.751 -134.83)" fill="#ffb878"/>
          <path id="Tracé_82" data-name="Tracé 82" d="M322.53,157.04s-3.33-3.32-3.74.56c-.48,4.5,3.61,6.31,4.41,4.88S322.53,157.04,322.53,157.04Z" transform="translate(-318.751 -134.83)" fill="#ff8b66"/>
          <path id="Tracé_83" data-name="Tracé 83" d="M345.85,157.28s3.33-3.32,3.74.56c.47,4.5-3.61,6.31-4.41,4.88S345.85,157.28,345.85,157.28Z" transform="translate(-318.751 -134.83)" fill="#ff8b66"/>
          <path id="Tracé_84" data-name="Tracé 84" d="M333.84,173.34c-7.39,0-11.56-4.83-11.56-19.3,0-7.47,3.8-12.05,12.08-12.05s11.76,4.58,11.76,12.05C346.11,169.6,341.47,173.34,333.84,173.34Z" transform="translate(-318.751 -134.83)" fill="#ff8b66"/>
          <path id="Tracé_85" data-name="Tracé 85" d="M343.67,159.21a1.754,1.754,0,1,1-1.92-1.05A1.568,1.568,0,0,1,343.67,159.21Z" transform="translate(-318.751 -134.83)" fill="#db614d"/>
          <path id="Tracé_86" data-name="Tracé 86" d="M328.47,159.61a1.746,1.746,0,1,1-1.61-1.47A1.566,1.566,0,0,1,328.47,159.61Z" transform="translate(-318.751 -134.83)" fill="#db614d"/>
          <g id="Groupe_16" data-name="Groupe 16" transform="translate(17.972 15.168)">
            <path id="Tracé_87" data-name="Tracé 87" d="M340.41,151.44a.4.4,0,0,1-.28-.07,4.278,4.278,0,0,0-2.97-.58.373.373,0,0,1-.43-.29.365.365,0,0,1,.29-.43,4.923,4.923,0,0,1,3.55.72.377.377,0,0,1,.07.52A.337.337,0,0,1,340.41,151.44Z" transform="translate(-336.723 -149.998)" fill="#ffb878"/>
          </g>
          <g id="Groupe_17" data-name="Groupe 17" transform="translate(7.194 15.145)">
            <path id="Tracé_88" data-name="Tracé 88" d="M326.27,151.5a.383.383,0,0,1-.24-.13.367.367,0,0,1,.05-.52,4.944,4.944,0,0,1,3.53-.83.371.371,0,0,1,.31.42.377.377,0,0,1-.42.31,4.308,4.308,0,0,0-2.95.67A.4.4,0,0,1,326.27,151.5Z" transform="translate(-325.945 -149.975)" fill="#ffb878"/>
          </g>
          <path id="Tracé_89" data-name="Tracé 89" d="M339.65,155.61c0,.92-.41,1.66-.92,1.66s-.92-.74-.92-1.66.41-1.66.92-1.66S339.65,154.7,339.65,155.61Z" transform="translate(-318.751 -134.83)" fill="#1a4850"/>
          <path id="Tracé_90" data-name="Tracé 90" d="M329.78,155.61c0,.92-.41,1.66-.92,1.66s-.92-.74-.92-1.66.41-1.66.92-1.66S329.78,154.7,329.78,155.61Z" transform="translate(-318.751 -134.83)" fill="#1a4850"/>
          <path id="Tracé_91" data-name="Tracé 91" d="M324.54,143.6a50.372,50.372,0,0,0,19.16,2.07s2.41,3,2.12,13.59c0,0,6.61-19.07-12.69-19.07s-10.6,18.65-10.6,18.65S320.95,147.17,324.54,143.6Z" transform="translate(-318.751 -134.83)" fill="#ffb878"/>
          <g id="Groupe_18" data-name="Groupe 18" transform="translate(14.999 16.86)">
            <path id="Tracé_92" data-name="Tracé 92" d="M334.3,160.55l-.55-.56,1.46-1.45c-1.42-2-1.41-6.64-1.41-6.85h.79c0,.05-.01,5.04,1.44,6.61l.26.28Z" transform="translate(-333.75 -151.69)" fill="#db614d"/>
          </g>
          <path id="Tracé_93" data-name="Tracé 93" d="M329.4,162.97s7.27.31,10.94-.66a4.872,4.872,0,0,1-4.99,5.55C329.4,168.13,329.4,162.97,329.4,162.97Z" transform="translate(-318.751 -134.83)" fill="#1a4850"/>
        </g>
        <path id="Tracé_94" data-name="Tracé 94" d="M360.48,182.96c1.39-.26,1.25,3.37,0,2.32S359.09,183.22,360.48,182.96Z" transform="translate(-288.35 -93.029)" fill="#cfd8dc"/>
        <path id="Tracé_95" data-name="Tracé 95" d="M343.74,200.56c-.21,1.4-3.6.07-2.19-.76S343.95,199.16,343.74,200.56Z" transform="translate(-288.35 -93.104)" fill="#cfd8dc"/>
        <path id="Tracé_96" data-name="Tracé 96" d="M328.84,208.14s-2.2,5.65-2.08,8.84,1.17,2.78,1.17,2.78a3.461,3.461,0,0,0-1.99,2.5c-.32,1.84,4.33,3.19,4.65,3.19s3.6-1.25,3.6-1.25l.69-10.44-2.9-1.82Z" transform="translate(-288.35 -93.174)" fill="#ef6e4b"/>
        <path id="Tracé_97" data-name="Tracé 97" d="M330.6,207.41a46.56,46.56,0,0,1,5.57,4.02c1.55,1.53.67,13.32,0,13.88s-5.78,1.7-6.76,1.06.38-4.11.38-4.11,2.57-.56,2.2.42a2.538,2.538,0,0,0,0,1.8l1.05-.42a12.209,12.209,0,0,1,0-4.58c.52-1.94-3.62-3.99-4.12-7.55S330.6,207.41,330.6,207.41Z" transform="translate(-288.35 -93.174)" fill="#ff8b66"/>
        <path id="Tracé_98" data-name="Tracé 98" d="M289.01,201.66c-1.28-5.55,4.22-7.51,11.88-6.56,8.88,1.1,27.12,3.42,31.09,13.04,0,0,1.3,3.79-2.06,5.62C320.55,218.85,291.43,212.08,289.01,201.66Z" transform="translate(-288.35 -93.114)" fill="#ce364c"/>
        <path id="Tracé_99" data-name="Tracé 99" d="M316.8,197.98s-10.59-4.4-15.86-4.84S308.23,197.3,316.8,197.98Z" transform="translate(-288.35 -93.08)" fill="#a02e44"/>
        <g id="Groupe_20" data-name="Groupe 20" transform="translate(89.06)">
          <path id="Tracé_100" data-name="Tracé 100" d="M396.15,102.68a23.776,23.776,0,0,0-2.12,4.45c-.56,2.98-.88,4.62-1.92,5.98s-.49,3.77-.49,3.77-4.04,2.08-7.44-.49c0,0,.36-2.39,0-3.06-.7-1.35-2.94-2.08-3.71-4.81a21.7,21.7,0,0,0-3.06-5.8s.66-1.42,1.85-.56c1.21.88,1.98,3.06,2.63,3.29a1.919,1.919,0,0,0,.4.09.077.077,0,0,1,.03.01,1.6,1.6,0,0,0,1.32-.34.168.168,0,0,0,.08-.07c1.1-1.28,1.35-5.03,1.31-6.71-.07-2.33.02-5.55,1.44-5.01s.12,1.84,1.22,6.98l.53.07c.1.37,1.08-3.12,1.31-6.4.17-2.25,1.64-1.42,1.97-.71s-.17,2.95-.27,4.59c-.08,1.08-.17,2.2-.22,2.86l.62.34c2.24-3.91,1.48-5.53,2.79-5.61s.83,3.22.13,4.47a12.186,12.186,0,0,0-.82,2.79c2.3-2.65,2.04-4.04,3.1-3.87C397.92,99.14,396.95,101.77,396.15,102.68Z" transform="translate(-377.41 -92.605)" fill="#ff8b66"/>
          <path id="Tracé_101" data-name="Tracé 101" d="M386.22,108.8c-.78-2.14-3.55-3.12-3.9-3.23a1.6,1.6,0,0,0,1.32-.34A3.875,3.875,0,0,1,386.22,108.8Z" transform="translate(-377.41 -92.605)" fill="#ef6e4b"/>
        </g>
        <g id="Groupe_21" data-name="Groupe 21" transform="translate(48.902 293.701)">
          <path id="Tracé_102" data-name="Tracé 102" d="M337.99,392.77s-1.54-3.14-.17-4.48,2.98,1.15,5.32.6,2.88-2.22,3.49.05S346.51,398.32,337.99,392.77Z" transform="translate(-337.252 -387.779)" fill="#cfd8dc"/>
          <path id="Tracé_103" data-name="Tracé 103" d="M346.8,392.63s-6.28,2.23-9.54,0l.83,2.72s6.83.72,7.77-1Z" transform="translate(-337.252 -387.779)" fill="#adbec4"/>
          <path id="Tracé_104" data-name="Tracé 104" d="M346.71,396.01s-5.75-.8-8.53.63v1.35s7.5-1.75,9.93,0Z" transform="translate(-337.252 -387.779)" fill="#adbec4"/>
          <path id="Tracé_105" data-name="Tracé 105" d="M337.91,400.79a5.245,5.245,0,0,1,4.62-2.91,9.1,9.1,0,0,1,5.86,1.73S342.84,397.32,337.91,400.79Z" transform="translate(-337.252 -387.779)" fill="#adbec4"/>
        </g>
        <g id="Groupe_23" data-name="Groupe 23" transform="translate(162.289 263.314)">
          <path id="Tracé_106" data-name="Tracé 106" d="M486,363.01a46.739,46.739,0,0,1-26.08,17.58c-4.36-3.49-4.47-7.62-4.47-7.62s-4.21-3.75-4.76-5.55,3.61-7.22,6.11-6.66a5.071,5.071,0,0,1,3.18,2.56c-2.07-4.65-.41-6.27,2.52-5.87,3.05.41.17,1.13,2.35,3.59a3.233,3.233,0,0,0,.52.46,3.6,3.6,0,0,0,1.42.57,6.663,6.663,0,0,0,1.57.08,6.887,6.887,0,0,0,.89-.09,11.854,11.854,0,0,0,1.74-.42,15.779,15.779,0,0,0,2.81-1.21c3.82-2.09,5.43-2.8,8.34-2.05,2.9.73,2.85,2.93,2.85,2.93Z" transform="translate(-450.639 -357.392)" fill="#cfd8dc"/>
          <path id="Tracé_107" data-name="Tracé 107" d="M486,363.01a46.739,46.739,0,0,1-26.08,17.58c7.67-3.3,14.72-7.62,19.54-12.93S486,363.01,486,363.01Z" transform="translate(-450.639 -357.392)" fill="#adbec4"/>
          <g id="Groupe_22" data-name="Groupe 22" transform="translate(11.771 4.098)">
            <path id="Tracé_108" data-name="Tracé 108" d="M465.36,361.49a3.6,3.6,0,0,0,1.42.57,3.738,3.738,0,0,0-3.13,3.2l-1.24-.4C462.68,361.73,465.15,361.5,465.36,361.49Z" transform="translate(-462.41 -361.49)" fill="#adbec4"/>
            <path id="Tracé_109" data-name="Tracé 109" d="M467.33,365.57l-1.3.04a3.433,3.433,0,0,1,.75-3.55,6.663,6.663,0,0,0,1.57.08A3.711,3.711,0,0,0,467.33,365.57Z" transform="translate(-462.41 -361.49)" fill="#adbec4"/>
            <path id="Tracé_110" data-name="Tracé 110" d="M470.54,364.86l-1.29.17a3.572,3.572,0,0,1-.01-2.98,11.854,11.854,0,0,0,1.74-.42A3.749,3.749,0,0,0,470.54,364.86Z" transform="translate(-462.41 -361.49)" fill="#adbec4"/>
          </g>
        </g>
        <path id="Tracé_111" data-name="Tracé 111" d="M346.91,227.95s2.85,15.39-2.91,21.52-1.95,1.09-.23-6.81S344.18,226.42,346.91,227.95Z" transform="translate(-288.35 -93.286)" fill="#ce364c"/>
        <path id="Tracé_112" data-name="Tracé 112" d="M373.52,221.08s9.09,2.99,13.84,11.38C387.36,232.46,381.02,218.79,373.52,221.08Z" transform="translate(-288.35 -93.224)" fill="#ce364c"/>
      </g>
      <g id="Groupe_33" data-name="Groupe 33" transform="translate(118.914 0.234)">
        <g id="Groupe_25" data-name="Groupe 25">
          <path id="Tracé_113" data-name="Tracé 113" d="M137.47,106.77a23.876,23.876,0,0,1,4.72,1.42c2.58,1.59,4.01,2.45,5.72,2.59s2.4,3.08,2.4,3.08,6.72,1.47,7.1-2.77c0,0-3.76-5.32-4.02-6.04-.53-1.43.44-3.57-1.07-5.98a21.411,21.411,0,0,1-2.24-6.16s-1.49-.47-1.66,1c-.16,1.49.94,3.52.67,4.16a2.083,2.083,0,0,1-.2.36.044.044,0,0,0-.01.03,1.644,1.644,0,0,1-1.14.75.155.155,0,0,1-.1.01c-1.68-.04-4.64-2.37-5.85-3.53-1.68-1.61-4.13-3.71-4.68-2.29s1.28,1.33,4.36,5.59l-.31.44c.2.32-3.04-1.3-5.62-3.32-1.78-1.39-2.16.26-1.85.98s2.3,1.86,3.58,2.88c.85.67,1.74,1.35,2.27,1.76l-.16.69c-4.4-.96-5.09-2.62-6.03-1.7s1.83,2.78,3.23,3.1a12.452,12.452,0,0,1,2.62,1.26c-3.51-.08-4.37-1.2-4.95-.31C133.66,105.71,136.26,106.75,137.47,106.77Z" transform="translate(-133.163 -92.838)" fill="#dca8a8"/>
          <path id="Tracé_114" data-name="Tracé 114" d="M148.67,103.52c-1.07-2.01.07-4.73.22-5.06a1.644,1.644,0,0,1-1.14.75A3.91,3.91,0,0,0,148.67,103.52Z" transform="translate(-133.163 -92.838)" fill="#af8c8c"/>
        </g>
        <g id="Groupe_26" data-name="Groupe 26" transform="translate(182.227)">
          <path id="Tracé_115" data-name="Tracé 115" d="M335.33,106.77a23.876,23.876,0,0,0-4.72,1.42c-2.58,1.59-4.01,2.45-5.72,2.59s-2.4,3.08-2.4,3.08-6.72,1.47-7.1-2.77c0,0,3.76-5.32,4.02-6.04.53-1.43-.44-3.57,1.07-5.98a21.412,21.412,0,0,0,2.24-6.16s1.49-.47,1.66,1c.16,1.49-.94,3.52-.67,4.16a2.082,2.082,0,0,0,.2.36.044.044,0,0,1,.01.03,1.644,1.644,0,0,0,1.14.75.155.155,0,0,0,.1.01c1.68-.04,4.64-2.37,5.85-3.53,1.68-1.61,4.13-3.71,4.68-2.29s-1.28,1.33-4.36,5.59l.31.44c-.2.32,3.04-1.3,5.62-3.32,1.78-1.39,2.16.26,1.85.98s-2.3,1.86-3.58,2.88c-.85.67-1.74,1.35-2.27,1.76l.16.69c4.4-.96,5.09-2.62,6.03-1.7s-1.83,2.78-3.23,3.1a12.451,12.451,0,0,0-2.62,1.26c3.51-.08,4.37-1.2,4.95-.31C339.15,105.71,336.54,106.75,335.33,106.77Z" transform="translate(-315.39 -92.838)" fill="#dca8a8"/>
          <path id="Tracé_116" data-name="Tracé 116" d="M324.13,103.52c1.07-2.01-.07-4.73-.22-5.06a1.644,1.644,0,0,0,1.14.75A3.91,3.91,0,0,1,324.13,103.52Z" transform="translate(-315.39 -92.838)" fill="#af8c8c"/>
        </g>
        <path id="Tracé_117" data-name="Tracé 117" d="M276.23,310.61l-12.92-79.99-25.87,2.89-25.87-2.89-12.92,79.99-6.2,77.58s1.97,6.43,14.88,1.99c0,0,9.57-71.96,11.05-73.54s16.68-48.59,16.68-48.59h4.76s15.2,47,16.68,48.59,11.05,73.54,11.05,73.54c12.9,4.44,14.88-1.99,14.88-1.99Z" transform="translate(-133.163 -94.312)" fill="#0e3944"/>
        <path id="Tracé_118" data-name="Tracé 118" d="M229.29,153.16c1.63,1.59,9.67,4.46,13.92,0l2.88,2.83s-3.28,7.72-9.04,7.99-9.92-6.87-9.92-6.87Z" transform="translate(-133.163 -93.13)" fill="#0c476b"/>
        <path id="Tracé_119" data-name="Tracé 119" d="M252.06,152.29c9.62-4.14,40.71-15.15,40.71-15.15s20.9-26.18,25.16-30.07c0,0,4.63.83,5.98,6.59,0,0-13.46,28.81-20.77,37.06s-44.36,26.09-44.36,26.09Z" transform="translate(-133.163 -92.838)" fill="#0c476b"/>
        <path id="Tracé_120" data-name="Tracé 120" d="M218.38,151.69c2.86-1.81,17.23,7.8,17.23,7.8s18.68-9.92,23.07-8c0,0,3.95,5.29,5.54,18.88s1.69,69.54,1.69,69.54a97.612,97.612,0,0,1-29.55,4.44c-19.37,0-29.79-5.55-29.79-5.55S203.12,161.35,218.38,151.69Z" transform="translate(-133.163 -93.224)" fill="#ffb878"/>
        <path id="Tracé_121" data-name="Tracé 121" d="M230.05,150.24s2.07,6.51,0,9.02c0,0,2.15,4.51,6.01,4.71,4.46.23,6.01-4.71,6.01-4.71s-2.36-6.29,0-8.5Z" transform="translate(-133.163 -93.118)" fill="#af8c8c"/>
        <g id="Groupe_30" data-name="Groupe 30" transform="translate(87.391 23.594)">
          <path id="Tracé_122" data-name="Tracé 122" d="M224.89,143.83s-4.35-8.38-3.49-17.34,14.36-11.01,23.45-6.61l1.61,1.95s5.87,3.25.39,20.58Z" transform="translate(-220.553 -116.433)" fill="#0e3944"/>
          <path id="Tracé_123" data-name="Tracé 123" d="M224.24,138.53s-3.25-3.24-3.65.55c-.46,4.39,3.52,6.16,4.3,4.76S224.24,138.53,224.24,138.53Z" transform="translate(-220.553 -116.433)" fill="#af8c8c"/>
          <path id="Tracé_124" data-name="Tracé 124" d="M246.98,138.75s3.25-3.24,3.65.55c.46,4.39-3.52,6.16-4.3,4.76S246.98,138.75,246.98,138.75Z" transform="translate(-220.553 -116.433)" fill="#af8c8c"/>
          <path id="Tracé_125" data-name="Tracé 125" d="M235.27,154.42c-7.2,0-11.27-4.71-11.27-18.82,0-7.28,3.7-11.75,11.77-11.75s11.47,4.47,11.47,11.75C247.24,150.77,242.71,154.42,235.27,154.42Z" transform="translate(-220.553 -116.433)" fill="#af8c8c"/>
          <path id="Tracé_126" data-name="Tracé 126" d="M244.85,140.64a1.705,1.705,0,1,1-1.87-1.03A1.533,1.533,0,0,1,244.85,140.64Z" transform="translate(-220.553 -116.433)" fill="#aa7676"/>
          <path id="Tracé_127" data-name="Tracé 127" d="M230.03,141.03a1.7,1.7,0,1,1-1.57-1.44A1.531,1.531,0,0,1,230.03,141.03Z" transform="translate(-220.553 -116.433)" fill="#aa7676"/>
          <g id="Groupe_27" data-name="Groupe 27" transform="translate(17.606 15.047)">
            <path id="Tracé_128" data-name="Tracé 128" d="M241.56,133.31a.363.363,0,0,1-.26-.11,4.1,4.1,0,0,0-2.77-1,.372.372,0,0,1-.37-.35.358.358,0,0,1,.35-.37,4.846,4.846,0,0,1,3.32,1.23.362.362,0,0,1-.01.51A.432.432,0,0,1,241.56,133.31Z" transform="translate(-238.16 -131.48)" fill="#0e3944"/>
          </g>
          <g id="Groupe_28" data-name="Groupe 28" transform="translate(7.077 15.037)">
            <path id="Tracé_129" data-name="Tracé 129" d="M227.99,133.31a.347.347,0,0,1-.25-.1.362.362,0,0,1-.01-.51,4.846,4.846,0,0,1,3.32-1.23.365.365,0,0,1,.35.37.372.372,0,0,1-.37.35,4.156,4.156,0,0,0-2.77,1A.373.373,0,0,1,227.99,133.31Z" transform="translate(-227.63 -131.47)" fill="#0e3944"/>
          </g>
          <path id="Tracé_130" data-name="Tracé 130" d="M240.93,137.13c0,.89-.4,1.62-.9,1.62s-.9-.73-.9-1.62.4-1.62.9-1.62S240.93,136.24,240.93,137.13Z" transform="translate(-220.553 -116.433)" fill="#1a4850"/>
          <path id="Tracé_131" data-name="Tracé 131" d="M231.31,137.13c0,.89-.4,1.62-.9,1.62s-.9-.73-.9-1.62.4-1.62.9-1.62S231.31,136.24,231.31,137.13Z" transform="translate(-220.553 -116.433)" fill="#1a4850"/>
          <path id="Tracé_132" data-name="Tracé 132" d="M231.31,146.71s6.35.82,9.62-.75c0,0-1.85,4.33-5.32,3.94A4.951,4.951,0,0,1,231.31,146.71Z" transform="translate(-220.553 -116.433)" fill="#1a4850"/>
          <path id="Tracé_133" data-name="Tracé 133" d="M246.49,140.35s-.09-7.706-3.15-13.726l-5.545-.134-6.405.134-5.506.436s-1.8,8.38-1.1,13.29c0,0-2.38-4.1-2.67-6.93s.95-10.9,9.28-11.49,13,1.3,15.07,5.13S248.27,135.59,246.49,140.35Z" transform="translate(-220.553 -116.433)" fill="#0e3944"/>
          <g id="Groupe_29" data-name="Groupe 29" transform="translate(14.337 18.297)">
            <path id="Tracé_134" data-name="Tracé 134" d="M236.52,144.44a6.71,6.71,0,0,1-1.63-.24l.2-.74c.76.21,1.94.33,2.2.03.09-.11.05-.35-.1-.67-1.04-2.21-1.26-7.82-1.27-8.06l.77-.03c0,.06.22,5.69,1.19,7.76a1.323,1.323,0,0,1-.01,1.49A1.67,1.67,0,0,1,236.52,144.44Z" transform="translate(-234.89 -134.73)" fill="#aa7676"/>
          </g>
        </g>
        <path id="Tracé_135" data-name="Tracé 135" d="M244.49,155.22s13.04,40.48,14.28,73.42c0,0,4.71,1.3,10.01-5.92s2.15-64.38-8.01-73.9C260.78,148.82,256.17,147.77,244.49,155.22Z" transform="translate(-133.163 -93.187)" fill="#105e99"/>
        <path id="Tracé_136" data-name="Tracé 136" d="M246.62,162.3s2.33-5.42,1.3-9.14-4.7,0-4.7,0S244.69,159.25,246.62,162.3Z" transform="translate(-133.163 -93.121)" fill="#0c476b"/>
        <path id="Tracé_137" data-name="Tracé 137" d="M220.45,152.29c-9.62-4.14-40.71-15.15-40.71-15.15s-20.95-26.95-25.21-30.83a11.976,11.976,0,0,0-5.63,9.16s13.16,27.01,20.48,35.26,44.36,26.09,44.36,26.09Z" transform="translate(-133.163 -92.838)" fill="#0c476b"/>
        <path id="Tracé_138" data-name="Tracé 138" d="M228.01,155.22s-13.04,40.48-14.28,73.42c0,0-4.71,1.3-10.01-5.92s-2.15-64.38,8.01-73.9C211.73,148.82,216.34,147.77,228.01,155.22Z" transform="translate(-133.163 -93.187)" fill="#105e99"/>
        <path id="Tracé_139" data-name="Tracé 139" d="M225.89,162.3s-2.33-5.42-1.3-9.14,4.7,0,4.7,0S227.81,159.25,225.89,162.3Z" transform="translate(-133.163 -93.121)" fill="#0c476b"/>
        <g id="Groupe_31" data-name="Groupe 31" transform="translate(134.292 292.118)">
          <path id="Tracé_140" data-name="Tracé 140" d="M293.94,409.06H268.05c-1.81-10.29,1.08-20.6,1.08-20.6l11.84-2.03c1.08,6.51,2.38,9.07,4.17,10.39h.01c1.31.95,2.88,1.27,4.83,1.94a6.234,6.234,0,0,1,4,3.72A11.053,11.053,0,0,1,293.94,409.06Z" transform="translate(-267.454 -386.43)" fill="#662c33"/>
          <path id="Tracé_141" data-name="Tracé 141" d="M293.97,402.48c-6.38.8-20.41,2.16-19.55-1.53.71-3.09,6.63-3.92,10.71-4.13h.01c1.31.95,2.88,1.27,4.83,1.94A6.21,6.21,0,0,1,293.97,402.48Z" transform="translate(-267.454 -386.43)" fill="#8b383e"/>
        </g>
        <g id="Groupe_32" data-name="Groupe 32" transform="translate(47.637 292.118)">
          <path id="Tracé_142" data-name="Tracé 142" d="M207.23,409.06H181.34a11.981,11.981,0,0,1-.44-4.98,6.277,6.277,0,0,1,4.41-5.31c2.24-.78,3.96-1.07,5.37-2.39,1.53-1.44,2.68-4.11,3.64-9.95l11.84,2.03C206.15,388.46,209.03,398.76,207.23,409.06Z" transform="translate(-180.799 -386.43)" fill="#662c33"/>
          <path id="Tracé_143" data-name="Tracé 143" d="M180.89,404.07a6.277,6.277,0,0,1,4.41-5.31c2.24-.78,3.96-1.07,5.37-2.39,3.28,1.01,7.86,2.86,9.28,5.67C201.93,405.9,186.8,405.29,180.89,404.07Z" transform="translate(-180.799 -386.43)" fill="#8b383e"/>
        </g>
      </g>
      <g id="Groupe_41" data-name="Groupe 41" transform="translate(236.423 69.886)">
        <g id="Groupe_34" data-name="Groupe 34" transform="translate(110.73 224.486)">
          <path id="Tracé_144" data-name="Tracé 144" d="M393.11,407.2a14.285,14.285,0,0,1-.11,1.85H361.55c0-.62.01-1.24.04-1.85a58.072,58.072,0,0,1,2.95-15.37l7.86-3.38a12.6,12.6,0,0,0,4.61,8.33,10.925,10.925,0,0,0,1.8,1.15c.29.16.58.3.88.43a15.2,15.2,0,0,0,2.01.74,49.6,49.6,0,0,0,7.55,1.32C392.6,400.96,393.11,404.84,393.11,407.2Z" transform="translate(-361.55 -388.45)" fill="#164353"/>
          <path id="Tracé_145" data-name="Tracé 145" d="M393.11,407.2a14.285,14.285,0,0,1-.11,1.85H361.55c0-.62.01-1.24.04-1.85Z" transform="translate(-361.55 -388.45)" fill="#225866"/>
          <path id="Tracé_146" data-name="Tracé 146" d="M378.81,397.94l-4.36,1.4-.92-1.6,3.49-.95A10.667,10.667,0,0,0,378.81,397.94Z" transform="translate(-361.55 -388.45)" fill="#225866"/>
          <path id="Tracé_147" data-name="Tracé 147" d="M381.69,399.12l-2.94,1.95-1.81-.71,2.74-1.99A15.8,15.8,0,0,0,381.69,399.12Z" transform="translate(-361.55 -388.45)" fill="#225866"/>
        </g>
        <g id="Groupe_35" data-name="Groupe 35" transform="translate(0 220.946)">
          <path id="Tracé_148" data-name="Tracé 148" d="M272.93,407.2a7.75,7.75,0,0,1-.36,1.85H251.62a9.037,9.037,0,0,1-.59-1.85c-2.07-10.03,11.86-22.29,11.86-22.29l4.42,5.9s-.51,9.44,3.23,11.4A4.755,4.755,0,0,1,272.93,407.2Z" transform="translate(-250.82 -384.91)" fill="#164353"/>
          <path id="Tracé_149" data-name="Tracé 149" d="M251.04,407.2h21.89a7.75,7.75,0,0,1-.36,1.85H251.62A9.445,9.445,0,0,1,251.04,407.2Z" transform="translate(-250.82 -384.91)" fill="#225866"/>
          <path id="Tracé_150" data-name="Tracé 150" d="M269.59,401.45s-8.83-2.01-12.85.59v-1.46C256.74,400.59,264.16,396.98,269.59,401.45Z" transform="translate(-250.82 -384.91)" fill="#225866"/>
          <path id="Tracé_151" data-name="Tracé 151" d="M267.84,399.21s-5.64-2.58-11.1,0l.62-1.47S263.89,395.28,267.84,399.21Z" transform="translate(-250.82 -384.91)" fill="#225866"/>
        </g>
        <path id="Tracé_152" data-name="Tracé 152" d="M383.61,318.07c.01,8.43-7.47,77.13-7.47,77.13a43.778,43.778,0,0,1-13.48-.76c-2.05-34.82-2.25-64.76-2.25-64.76L324.55,302.8l-.09-.07s-.13.61-.38,1.7c-1.78,7.88-9.29,40.9-12.42,48.46-3.56,8.62-42.53,44.85-42.53,44.85-7.24-1-13.38-6.24-13.38-6.24,13.99-23.2,33.06-46.48,33.06-46.48,1.49-8.36,2.55-26.96,3.19-40.86.01-.21.02-.43.03-.64.42-9.42.63-16.52.63-16.52l-6.57-13.48,41.76-15.34,9.36,11.98s2.14,1.99,5.52,5.16c.16.14.31.29.47.43C355.72,287.58,383.61,314.3,383.61,318.07Z" transform="translate(-250.82 -163.964)" fill="#8bbddb"/>
        <g id="Groupe_36" data-name="Groupe 36" transform="translate(41.18 107.016)">
          <path id="Tracé_153" data-name="Tracé 153" d="M292,304.17c.01-.21.02-.43.03-.64,8.79-4.77,7.32-12.39,7.29-12.47l.54-.11C299.89,291.02,301.47,299.21,292,304.17Z" transform="translate(-292 -270.98)" fill="#6097b2"/>
          <path id="Tracé_154" data-name="Tracé 154" d="M323.9,297.42a46.982,46.982,0,0,1,.64,5.38l-.09-.07s-.13.61-.38,1.7c-.39-13.06-5.77-20.77-5.84-20.86l.46-.32c.06.07,3.45,4.97,5.1,13.53,6.35-5.64.13-17.2.07-17.31l.49-.27C324.42,279.33,331,291.57,323.9,297.42Z" transform="translate(-292 -270.98)" fill="#6097b2"/>
          <path id="Tracé_155" data-name="Tracé 155" d="M343.19,275.76c-.01.01-.03.01-.04.02a2.444,2.444,0,0,1-.87.14c-3.08,0-8.24-4.31-8.48-4.52l.37-.42c1.68,1.42,6.35,4.83,8.56,4.34C342.88,275.47,343.03,275.61,343.19,275.76Z" transform="translate(-292 -270.98)" fill="#6097b2"/>
        </g>
        <path id="Tracé_156" data-name="Tracé 156" d="M289.01,201.66s12.7-2.04,19.07,2.01,14.72,14.65,14.72,14.65-9.92,1.31-11.04,8.05C311.76,226.37,304.55,209.2,289.01,201.66Z" transform="translate(-250.82 -163.964)" fill="#adbec4"/>
        <path id="Tracé_157" data-name="Tracé 157" d="M269.9,208.28c-5.37,2.9-14.35,13.81-14.76,20.52-.4,6.54,4.45,12.56,7.72,17.67,10.19,15.96,20.93,30.06,25.49,48.78.03.12,23.31,9.36,50.64-23.49,0,0-15.44-20.78-20.78-38.47-2.17-7.2-4.38-14.85-8.55-21.19a22.7,22.7,0,0,0-20.65-10.44C282.09,202.22,275.2,205.42,269.9,208.28Z" transform="translate(-250.82 -163.964)" fill="#cfd8dc"/>
        <path id="Tracé_158" data-name="Tracé 158" d="M267.65,201.59s3.44,5.87,1.85,9.1c0,0,11.79,4.07,11.79-2.53,0,0-2.22-4.95-1.39-8.14Z" transform="translate(-250.82 -163.964)" fill="#f19c52"/>
        <path id="Tracé_159" data-name="Tracé 159" d="M293.85,241.8s-6.56,1.86-8.21,4.19-3.13,7.53-3.13,7.53h11.34l2.13-3.92,2.5-5.23Z" transform="translate(-250.82 -163.964)" fill="#f19c52"/>
        <g id="Groupe_40" data-name="Groupe 40" transform="translate(4.492)">
          <path id="Tracé_160" data-name="Tracé 160" d="M283.01,195.04s4.61-1.93,1.63-15.78c-1.97-9.18-4.82-10.55-6.65-10.63,0,0-2.25-3.39-10.05-1.77a14.486,14.486,0,0,0-11.48,10.36c-1.96,6.26,1.96,19.69,7.12,21.03Z" transform="translate(-255.312 -163.964)" fill="#164353"/>
          <path id="Tracé_161" data-name="Tracé 161" d="M284.1,185.68s2.9-4.04,4-.06c1.27,4.61-2.68,7.21-3.76,5.85S284.1,185.68,284.1,185.68Z" transform="translate(-255.312 -163.964)" fill="#f1ac70"/>
          <path id="Tracé_162" data-name="Tracé 162" d="M259.82,189.94s-4.05-2.89-3.8,1.23c.28,4.78,4.86,5.96,5.44,4.33S259.82,189.94,259.82,189.94Z" transform="translate(-255.312 -163.964)" fill="#f1ac70"/>
          <path id="Tracé_163" data-name="Tracé 163" d="M275.11,204.63c7.71-1.27,11.23-7.02,8.74-22.12-1.29-7.79-6.04-11.91-14.67-10.49s-11.48,6.8-10.2,14.59C261.66,202.84,267.15,205.95,275.11,204.63Z" transform="translate(-255.312 -163.964)" fill="#f1ac70"/>
          <path id="Tracé_164" data-name="Tracé 164" d="M262.42,191.58a1.85,1.85,0,1,0,1.82-1.43A1.655,1.655,0,0,0,262.42,191.58Z" transform="translate(-255.312 -163.964)" fill="#df914d"/>
          <path id="Tracé_165" data-name="Tracé 165" d="M278.34,189.38a1.845,1.845,0,1,0,1.42-1.81A1.652,1.652,0,0,0,278.34,189.38Z" transform="translate(-255.312 -163.964)" fill="#df914d"/>
          <g id="Groupe_37" data-name="Groupe 37" transform="translate(8.889 16.682)">
            <path id="Tracé_166" data-name="Tracé 166" d="M264.59,183.16a.36.36,0,0,1-.22-.07.386.386,0,0,1-.1-.54,5.288,5.288,0,0,1,3.33-1.9.382.382,0,0,1,.44.34.392.392,0,0,1-.33.44,4.479,4.479,0,0,0-2.79,1.56A.417.417,0,0,1,264.59,183.16Z" transform="translate(-264.201 -180.646)" fill="#1a4850"/>
          </g>
          <g id="Groupe_38" data-name="Groupe 38" transform="translate(19.941 15.289)">
            <path id="Tracé_167" data-name="Tracé 167" d="M279.1,180.77a.458.458,0,0,1-.24-.08,4.441,4.441,0,0,0-3.14-.58.388.388,0,0,1-.46-.31.4.4,0,0,1,.31-.46,5.161,5.161,0,0,1,3.76.73.4.4,0,0,1,.08.55A.375.375,0,0,1,279.1,180.77Z" transform="translate(-275.253 -179.254)" fill="#1a4850"/>
          </g>
          <path id="Tracé_168" data-name="Tracé 168" d="M265.99,187.14c.16.96.72,1.66,1.25,1.57s.83-.93.68-1.89-.72-1.66-1.25-1.57S265.84,186.18,265.99,187.14Z" transform="translate(-255.312 -163.964)" fill="#1a4850"/>
          <path id="Tracé_169" data-name="Tracé 169" d="M276.29,185.44c.16.96.72,1.66,1.25,1.57s.83-.93.68-1.89-.72-1.66-1.25-1.57S276.13,184.48,276.29,185.44Z" transform="translate(-255.312 -163.964)" fill="#1a4850"/>
          <path id="Tracé_170" data-name="Tracé 170" d="M279.18,194.13s-6.69,1.79-10.4,1.08c0,0,2.56,3.23,6.22,2.3S279.18,194.13,279.18,194.13Z" transform="translate(-255.312 -163.964)" fill="#1a4850"/>
          <path id="Tracé_171" data-name="Tracé 171" d="M279.49,175.5s-8.7,6.3-19.62,6.78l.31,9.72s-10.18-18.75,9.95-22.08,14.27,17.63,14.27,17.63S283.78,178.52,279.49,175.5Z" transform="translate(-255.312 -163.964)" fill="#0e3944"/>
          <g id="Groupe_39" data-name="Groupe 39" transform="translate(15.988 19.476)">
            <path id="Tracé_172" data-name="Tracé 172" d="M272.38,191.52l-.06-.84c.01,0,1.17-.09,1.47-.81.12-.3-.37-1.24-.81-2.07a15.872,15.872,0,0,1-1.68-4.19l.83-.17a15.391,15.391,0,0,0,1.6,3.97c.65,1.23,1.11,2.13.84,2.79C274.07,191.4,272.45,191.51,272.38,191.52Z" transform="translate(-271.3 -183.44)" fill="#df914d"/>
          </g>
          <path id="Tracé_173" data-name="Tracé 173" d="M284.21,175.52c-14.63-6.35-28.44,6.82-28.44,6.82s-1.61-10.67,1.21-13.17a16.316,16.316,0,0,1,2.34-1.74c6.46-4.07,15.05-4,19-2.6a4.819,4.819,0,0,1,1.79,1C282.44,168.25,284.21,175.52,284.21,175.52Z" transform="translate(-255.312 -163.964)" fill="#ce364c"/>
          <path id="Tracé_174" data-name="Tracé 174" d="M282.44,173.15a34.629,34.629,0,0,0-23.75,5.15s-.73-6.88.63-10.87c6.46-4.07,15.05-4,19-2.6C280.62,167.45,282.44,173.15,282.44,173.15Z" transform="translate(-255.312 -163.964)" fill="#cfd8dc"/>
          <path id="Tracé_175" data-name="Tracé 175" d="M256.98,181.09s1.95-8.27,4.57-10.61c4.37-3.88,16.64-5.21,23.08-2.88s0,9.38,0,9.38S274.36,169.62,256.98,181.09Z" transform="translate(-255.312 -163.964)" fill="#a02e44"/>
        </g>
        <path id="Tracé_176" data-name="Tracé 176" d="M275.96,236.07a40.932,40.932,0,0,0,13.58,12.36s10.7-9.29,24.58-8.45c0,0-11.5,20.75-21.38,23.05-5.19,1.21-23.95-11.22-23.95-11.22S272.53,238.6,275.96,236.07Z" transform="translate(-250.82 -163.964)" fill="#f1ac70"/>
        <path id="Tracé_177" data-name="Tracé 177" d="M257.46,221.97c4.6-7.48,15.2,3.58,18.81,11.48s6.24,9.58,6.24,9.58-10.6,4.43-10.52,12.37C271.99,255.39,247.43,238.3,257.46,221.97Z" transform="translate(-250.82 -163.964)" fill="#adbec4"/>
        <path id="Tracé_178" data-name="Tracé 178" d="M289.53,245.01s6.45-6.33,27.68-14.6l-2.74-8.62c2.43-3.2,6.91-3.2,6.91-3.2s10.87,15.35,9,19.94C329.21,241.4,306.53,244.4,289.53,245.01Z" transform="translate(-250.82 -163.964)" fill="#f19c52"/>
        <path id="Tracé_179" data-name="Tracé 179" d="M312.77,232.49a5.666,5.666,0,0,1,.95-2.01c.78-1.11.57-3.12.85-3.75s1.95-3.18,3.06-3.67,2.56-1.31,2.87.1-1.99,1.01-3.01,3.03a8.94,8.94,0,0,1,4.04-.31c1.79.42,2.29,2.06.09,2a10,10,0,0,0-4.03,1.21s2.3.35,1.93,1.4C319,231.96,316.2,231.06,312.77,232.49Z" transform="translate(-250.82 -163.964)" fill="#f1ac70"/>
      </g>
      <g id="Groupe_55" data-name="Groupe 55" transform="translate(80.184 62.145)">
        <path id="Tracé_180" data-name="Tracé 180" d="M155.82,261.39c1.9,4.86,9.67,13.18,9.67,13.18s18.98-11.38,27.74-6.59,15.72,7.71,21.4,5.62-18.68-46.38-18.68-46.38l-31.58-12.05s-.69,7.99-4.3,9.41-7.46,14.6-7.2,17.1S155.82,261.39,155.82,261.39Z" transform="translate(-94.32 -156.223)" fill="#3e6575"/>
        <path id="Tracé_181" data-name="Tracé 181" d="M191.35,274.87s-8.14,15.96-24.95,36.4c0,0-1.72,24.31-46.18,62.56l-4.65-3.66s26.47-41.47,31.77-54.19-2.93-24.37,21.44-56.53Z" transform="translate(-94.32 -156.223)" fill="#ef6e4b"/>
        <path id="Tracé_182" data-name="Tracé 182" d="M165.4,246.62c-6.991,33.989-28.92,74.277-28.92,74.277L117.207,353.93s18.887,9.247,31.932,14.865l34.134-55.606Z" transform="translate(-94.24 -156.223)" fill="#662c33"/>
        <path id="Tracé_183" data-name="Tracé 183" d="M201.99,273.61s3.47,17.58,2.9,44.04c0,0,13.68,20.17,2.39,77.72h-5.92s-4.84-48.96-8.54-62.23-17.37-17.34-18.11-57.68Z" transform="translate(-94.32 -156.223)" fill="#ff8b66"/>
        <g id="Groupe_43" data-name="Groupe 43" transform="translate(69.953 90.297)">
          <path id="Tracé_184" data-name="Tracé 184" d="M215.488,370.266s-13.852,5.392-38.237,2.912l-.385-5.958-.1-1.537-2.524-38.555a150.276,150.276,0,0,1-4.763-16.527c-.286-1.186-.572-2.427-.846-3.721-3.283-15.179-6.2-37.234-2.922-60.259l5.148.512.721.081,12.537,1.779h4.208l2.427-1.058h2.1s25.566,38.481,22.234,105.831l.236,9.383.025,1.537Z" transform="translate(-164.273 -246.52)" fill="#8b383e"/>
          <g id="Groupe_42" data-name="Groupe 42" transform="translate(3.25)">
            <path id="Tracé_185" data-name="Tracé 185" d="M170.14,246.85c-.39,1.14-3.01,9.63-1.69,23.5-.23-.44-.46-.9-.68-1.38-.99-12.69,1.29-20.61,1.79-22.16.07-.19.1-.28.1-.29l.52.19C170.19,246.73,170.17,246.77,170.14,246.85Z" transform="translate(-167.524 -246.52)" fill="#662c33"/>
            <path id="Tracé_186" data-name="Tracé 186" d="M205.35,368.149c-3.94,2.81-10.63,3.589-16.98,3.589a107.662,107.662,0,0,1-13.98-1.029l-.08-1.586c4.99.668,18.11,2.115,26.57-.473l-.54-24.874c.13-29.02-7.513-55.1-10.553-72.214-7.71-3.9-7.318-17.8-7.768-22.275a9.076,9.076,0,0,1,0-1.475h0a6.633,6.633,0,0,0,0,1.558c.5,4.647.958,18.241,7.768,22.192-2.05-11.157-5.491-19.159-6.311-22.192a2.934,2.934,0,0,1,0-1.558h0c.02.056-.42-.872,0,.77,2.58,9.738,17.635,47.115,17.415,95.11l.54,24.735a14.1,14.1,0,0,0,3.89-1.92Z" transform="translate(-157.495 -246.52)" fill="#662c33"/>
          </g>
        </g>
        <path id="Tracé_187" data-name="Tracé 187" d="M176.98,186.39c-4.42-2.43-36.26,10.05-36.26,10.05s-4.71,8.4-1.77,11.7,13.36,1.84,16.55,0,11.65-3.24,11.65-3.24Z" transform="translate(-94.32 -156.223)" fill="#8bbddb"/>
        <path id="Tracé_188" data-name="Tracé 188" d="M205.14,159.88A16.632,16.632,0,0,1,214.12,170c2.41,7.58-4.79,26.76-2.3,35.58s2.1,25.47-5.66,28.99-23.69-2.78-27.11-12.4-1.94-46.08,4.63-58.47C190.26,151.29,203.56,157.54,205.14,159.88Z" transform="translate(-94.32 -156.223)" fill="#f24052"/>
        <path id="Tracé_189" data-name="Tracé 189" d="M197.58,192.57c1.73,1.87,6.2-1.46,6.2-1.46s-.09,16.54-4.9,17.8S181.82,195.88,182.33,192,193.74,188.42,197.58,192.57Z" transform="translate(-94.32 -156.223)" fill="#8bbddb"/>
        <path id="Tracé_190" data-name="Tracé 190" d="M179.06,188.44a33.861,33.861,0,0,0,13.33,6.09c8.47,1.96,13.06-2.02,17.39,3.44,6.5,8.2-4.08,23.31-9.64,31.14-2.07,2.92-6.45,11.02-7.34,18.78,0,0-14.7,4.27-27.37-1.27l-.95-18.03C164.49,228.59,156.5,204.29,179.06,188.44Z" transform="translate(-94.32 -156.223)" fill="#0e3944"/>
        <path id="Tracé_191" data-name="Tracé 191" d="M194.25,205.98s6.71-16,8.66-17.02,6.88,1.43,7.87,3.62,0,6.96,0,6.96S205.48,193.49,194.25,205.98Z" transform="translate(-94.32 -156.223)" fill="#8bbddb"/>
        <path id="Tracé_192" data-name="Tracé 192" d="M226.41,273.6c-3.05,6.25-10.55,8.05-10.55,8.05s-.57-.87-1.52-2.42c-.1-.16-.21-.33-.31-.51-5.9-9.56-23.91-40.15-23.56-56.06a41.492,41.492,0,0,1,12.81-29.44c6.3,1.5,8.28,3.22,8.28,3.22a77.849,77.849,0,0,1,.18,23.83c-1.94,13-5.47,16.44-3.7,17.42s0,2.91,0,2.91,10.45,14.56,12.4,19.09c1.27,2.95,3.42,7.97,4.76,11.1.09.22.18.44.27.64C226.05,272.75,226.41,273.6,226.41,273.6Z" transform="translate(-94.32 -156.223)" fill="#6097b2"/>
        <path id="Tracé_193" data-name="Tracé 193" d="M208.27,196.44s-7.48,5.55-3.12,14.02l20.73,21.47c-11.38,12.13-12.51,17.11-20.73,22.7l3.12,4.84s28.81-22.14,28.85-27.53C237.14,229.61,219.52,201.71,208.27,196.44Z" transform="translate(-94.32 -156.223)" fill="#ff8b66"/>
        <path id="Tracé_194" data-name="Tracé 194" d="M204.69,254.62a62.607,62.607,0,0,0-6.44,1.06c-2.49.62-5.81,1.24-5.91,1.76s5.5,0,5.5,0-4.56,1.87-4.67,2.6,5.81-.52,5.81-.52-3.73,2.28-3.53,2.9,4.81-.93,4.81-.93a14.611,14.611,0,0,1-1.74,3.21s.89.49,2.7-1.52,4.69-1.36,6.98-3.14C210.47,258.26,206.77,254.35,204.69,254.62Z" transform="translate(-94.32 -156.223)" fill="#ff8b66"/>
        <path id="Tracé_195" data-name="Tracé 195" d="M183.5,191.1s-5.69,3.68-9.29,12.56-14.94,25.6-17.59,29.91-.81,27.82-.81,27.82-3.33-14.25-4.81-19.8,4.78-19.27,5.72-20,5.75.6,4.83-4.97,11.98-29.57,15.43-30.24C176.98,186.39,182.5,187.42,183.5,191.1Z" transform="translate(-94.32 -156.223)" fill="#6097b2"/>
        <path id="Tracé_196" data-name="Tracé 196" d="M165.9,192.3a4.647,4.647,0,0,1-.34.56,14.514,14.514,0,0,1-3.69,3.33s-4.34,6.08-4.39,6.78c-.04.6-7.54,6.04-10.87,5.93h-.01a1.611,1.611,0,0,1-1.1-.38c-1.98-1.87,6.73-17.52,8.65-20.9.12-.22.22-.39.29-.5a.694.694,0,0,1,.08-.14s-1.53-5.71,4.86-4.64c5.32.88,6.37,5.11,6.93,7.94A2.946,2.946,0,0,1,165.9,192.3Z" transform="translate(-94.32 -156.223)" fill="#6097b2"/>
        <path id="Tracé_197" data-name="Tracé 197" d="M143.57,198.22c4.39-5.77,19.85-16.97,27.99-20.29l2.04,3.78s-15.73,13.83-19.43,19.75-8.27,8.36-12.65,6.39S142.65,199.43,143.57,198.22Z" transform="translate(-94.32 -156.223)" fill="#ff8b66"/>
        <path id="Tracé_198" data-name="Tracé 198" d="M164.37,191.11l-.83.95-.42.49-1.38,1.58s-3.46,4.2-3.33,5.88c.1,1.21-6.57,6.63-11.79,8.88-2.12.92-4.01,1.32-5.11.69-3.77-2.18-2.93-8.72-.79-13.15,1.87-3.86,10.11-8.85,12.24-10.07a4.325,4.325,0,0,1,.49-.29l.01-.01.79-3.06s2.88-1.73,5.14-.67c0,0-5,.21-4.17,2.15C156.06,186.45,162.98,191.05,164.37,191.11Z" transform="translate(-94.32 -156.223)" fill="#8bbddb"/>
        <g id="Groupe_44" data-name="Groupe 44" transform="translate(76.04 6.689)">
          <path id="Tracé_199" data-name="Tracé 199" d="M182.51,175.09c-5.03,2.07-4.31,6.62-8.92,6.62-2.85,0-3.23-3.26-3.23-3.26a35.223,35.223,0,0,0,2.29-9.8c.19-2.26.94-1.39.94-1.39,0-.21-.01-.41-.02-.61-.07-1.52-.34-2.63.65-1.98,1.13.73,1.52,5.04,1.52,5.04.93-6.28-.46-7.22.63-6.66,1.49.76,1.5,6.31,1.5,6.47,1.2-3.65.88-5.74,1.71-4.91s-.42,7.55-.92,10.01c-.11.56-.19.9-.19.9C182.47,173.57,182.51,175.09,182.51,175.09Z" transform="translate(-170.36 -162.912)" fill="#ff8b66"/>
          <path id="Tracé_200" data-name="Tracé 200" d="M178.67,174.63c-.11.56-.19.9-.19.9a3.683,3.683,0,0,0-3.19,1.81A3.293,3.293,0,0,1,178.67,174.63Z" transform="translate(-170.36 -162.912)" fill="#ef6e4b"/>
          <path id="Tracé_201" data-name="Tracé 201" d="M173.88,171.76c.03-.53.26-3.59-.28-4.51,0-.21-.01-.41-.02-.61C174.73,166.89,174,171.12,173.88,171.76Z" transform="translate(-170.36 -162.912)" fill="#ef6e4b"/>
        </g>
        <path id="Tracé_202" data-name="Tracé 202" d="M177,198.25s3.4-9.21,4.48-11.27,6.71-1.7,10.98-.91,5.13,6.5,5.13,6.5S184.62,186.45,177,198.25Z" transform="translate(-94.32 -156.223)" fill="#8bbddb"/>
        <path id="Tracé_203" data-name="Tracé 203" d="M198.88,180.12a37.137,37.137,0,0,0-4.01,15.86s-6.61,4.5-8.98-1.14a42.838,42.838,0,0,0,1.3-17.33C186.38,170.84,198.88,180.12,198.88,180.12Z" transform="translate(-94.32 -156.223)" fill="#ef6e4b"/>
        <g id="Groupe_48" data-name="Groupe 48" transform="translate(87.158 1.289)">
          <path id="Tracé_204" data-name="Tracé 204" d="M185.89,169.69s-1.21-4.31-3.36-1.28c-2.49,3.51.05,6.92,1.38,6.11S185.89,169.69,185.89,169.69Z" transform="translate(-181.478 -157.512)" fill="#ff8b66"/>
          <path id="Tracé_205" data-name="Tracé 205" d="M205.12,180.77s4.31-1.2,2.84,2.21c-1.71,3.95-5.94,3.55-5.94,1.99S205.12,180.77,205.12,180.77Z" transform="translate(-181.478 -157.512)" fill="#ff8b66"/>
          <path id="Tracé_206" data-name="Tracé 206" d="M187.66,188.48c-6.13-3.45-7.33-9.4-.57-21.4,3.49-6.19,8.77-8.21,15.64-4.35s7.61,9.29,4.13,15.48C199.59,191.11,193.99,192.05,187.66,188.48Z" transform="translate(-181.478 -157.512)" fill="#ff8b66"/>
          <path id="Tracé_207" data-name="Tracé 207" d="M202.41,181.35a1.665,1.665,0,1,1-1.1-1.77A1.481,1.481,0,0,1,202.41,181.35Z" transform="translate(-181.478 -157.512)" fill="#db614d"/>
          <path id="Tracé_208" data-name="Tracé 208" d="M189.62,174.59a1.666,1.666,0,1,1-.65-1.98A1.49,1.49,0,0,1,189.62,174.59Z" transform="translate(-181.478 -157.512)" fill="#db614d"/>
          <g id="Groupe_45" data-name="Groupe 45" transform="translate(19.402 12.969)">
            <path id="Tracé_209" data-name="Tracé 209" d="M203.29,173.59a.352.352,0,0,1-.34-.27,4.019,4.019,0,0,0-1.88-2.18.349.349,0,1,1,.32-.62,4.7,4.7,0,0,1,2.23,2.63.357.357,0,0,1-.25.43A.2.2,0,0,1,203.29,173.59Z" transform="translate(-200.881 -170.481)" fill="#1a4850"/>
          </g>
          <g id="Groupe_46" data-name="Groupe 46" transform="translate(9.915 8.759)">
            <path id="Tracé_210" data-name="Tracé 210" d="M194.87,167.6a.407.407,0,0,1-.18-.05,3.987,3.987,0,0,0-2.84-.47.351.351,0,1,1-.21-.67,4.675,4.675,0,0,1,3.41.55.347.347,0,0,1,.12.48A.353.353,0,0,1,194.87,167.6Z" transform="translate(-191.394 -166.27)" fill="#1a4850"/>
          </g>
          <path id="Tracé_211" data-name="Tracé 211" d="M200.76,176.5c-.43.76-1.12,1.18-1.54.95s-.42-1.05.01-1.81,1.12-1.18,1.54-.95S201.19,175.74,200.76,176.5Z" transform="translate(-181.478 -157.512)" fill="#1a4850"/>
          <path id="Tracé_212" data-name="Tracé 212" d="M192.17,171.89c-.43.76-1.12,1.18-1.54.95s-.42-1.05.01-1.81,1.12-1.18,1.54-.95S192.6,171.13,192.17,171.89Z" transform="translate(-181.478 -157.512)" fill="#1a4850"/>
          <path id="Tracé_213" data-name="Tracé 213" d="M189.19,179.7s3.52,2.68,6.06,2.76c0,0-2.7,2.2-4.64.77A3.485,3.485,0,0,1,189.19,179.7Z" transform="translate(-181.478 -157.512)" fill="#1a4850"/>
          <path id="Tracé_214" data-name="Tracé 214" d="M198.91,174.96s1.61-1.56,2.27-1.01.31,2.47.31,2.47l1.41.04-1.17-.47s.38-1.99-.35-2.41C200.36,172.99,198.91,174.96,198.91,174.96Z" transform="translate(-181.478 -157.512)" fill="#1a4850"/>
          <path id="Tracé_215" data-name="Tracé 215" d="M192.83,171.84s.5-2.19-.31-2.47-2.27,1.01-2.27,1.01l-.76-1.19,1.01.75s1.51-1.36,2.24-.95C193.77,169.58,192.83,171.84,192.83,171.84Z" transform="translate(-181.478 -157.512)" fill="#1a4850"/>
          <path id="Tracé_216" data-name="Tracé 216" d="M204.35,165.3a3.51,3.51,0,0,0-5.23-.63c-3.03,2.42-9.87,6.3-13.23,5.02s7.36-15.61,16.67-11.41,8.47,17.86,4.6,22.2-2.04.3-2.04.3a49.032,49.032,0,0,1,1.55-10.25C207.97,166.44,204.35,165.3,204.35,165.3Z" transform="translate(-181.478 -157.512)" fill="#f24052"/>
          <g id="Groupe_47" data-name="Groupe 47" transform="translate(12.022 17.804)">
            <path id="Tracé_217" data-name="Tracé 217" d="M194.03,178.3a1.982,1.982,0,0,1-.53-.07l.19-.74a.872.872,0,0,0,1.08-.36.919.919,0,0,0,.01-.99c-.1-.1-.26-.09-.49.03l-.35-.67a1.088,1.088,0,0,1,1.39.12,1.656,1.656,0,0,1,.09,1.9A1.531,1.531,0,0,1,194.03,178.3Z" transform="translate(-193.5 -175.316)" fill="#db614d"/>
          </g>
        </g>
        <g id="Groupe_50" data-name="Groupe 50" transform="translate(108.052 40.033)">
          <path id="Tracé_218" data-name="Tracé 218" d="M238.9,231.07c-.37,5.38-13.69,22.92-15.91,23.54a6.121,6.121,0,0,0-1.72.85c-.23.17-.47.34-.69.52a16.355,16.355,0,0,0-2.22,2.2c-3.89-.26-14.8-5.31-11.29-6.42a2.819,2.819,0,0,0,.7-.37,4.2,4.2,0,0,0,.46-.36c4.13-3.46,12.17-17.52,12.22-18.59.04-1.17,1.43-1.39,1.43-1.39s-7.58-11.14-11.98-12.48-6.62-6.66-6.62-6.66c-4.34-18.37,8.28-15.49,8.28-15.49C220.87,201.98,239.27,225.67,238.9,231.07Z" transform="translate(-202.372 -196.256)" fill="#8bbddb"/>
          <g id="Groupe_49" data-name="Groupe 49" transform="translate(5.398 54.774)">
            <path id="Tracé_219" data-name="Tracé 219" d="M221.27,255.46c-.23.17-.47.34-.69.52a27.683,27.683,0,0,1-12.81-4.59,4.2,4.2,0,0,0,.46-.36A26.818,26.818,0,0,0,221.27,255.46Z" transform="translate(-207.77 -251.03)" fill="#3e6575"/>
          </g>
        </g>
        <g id="Groupe_51" data-name="Groupe 51" transform="translate(58.64 29.867)">
          <path id="Tracé_220" data-name="Tracé 220" d="M165.9,192.3a4.647,4.647,0,0,1-.34.56,13.569,13.569,0,0,1-2.44-.3,18.377,18.377,0,0,1-8.96-4.93c-.46-.44-.85-.87-1.2-1.25a4.325,4.325,0,0,1,.49-.29c.29.32.62.68,1,1.04a17.681,17.681,0,0,0,9.09,4.94A13.785,13.785,0,0,0,165.9,192.3Z" transform="translate(-152.96 -186.09)" fill="#3e6575"/>
        </g>
        <g id="Groupe_52" data-name="Groupe 52" transform="translate(119.71 114.567)">
          <path id="Tracé_221" data-name="Tracé 221" d="M225.48,271.43a15.658,15.658,0,0,1-11.14,7.81c-.1-.16-.21-.33-.31-.51a15.231,15.231,0,0,0,11.18-7.94C225.3,271.01,225.39,271.23,225.48,271.43Z" transform="translate(-214.03 -270.79)" fill="#3e6575"/>
        </g>
        <g id="Groupe_53" data-name="Groupe 53" transform="translate(0 206.577)">
          <path id="Tracé_222" data-name="Tracé 222" d="M124.44,372.45a19.619,19.619,0,0,0-2.83,3.87c-1.44,2.51.14,4.82-6.84,10.64,0,0-14.09-8.25-20.45-18.85a4.1,4.1,0,0,1,3.19-3.74c1.65-.38,6.21,1.75,10.58,2.58.62.11,1.24.21,1.85.26a10.466,10.466,0,0,0,2.24-.01,6.543,6.543,0,0,0,1.89-.46h.01a5.628,5.628,0,0,0,3.28-3.94s3.74,2.13,1.24,5.74C118.6,368.53,123.04,366.59,124.44,372.45Z" transform="translate(-94.32 -362.8)" fill="#cfd8dc"/>
          <path id="Tracé_223" data-name="Tracé 223" d="M114.77,386.96s-14.09-8.25-20.45-18.85c0,0,2.36-.5,4.32,3.01S115.91,382.62,114.77,386.96Z" transform="translate(-94.32 -362.8)" fill="#adbec4"/>
          <path id="Tracé_224" data-name="Tracé 224" d="M114.82,370.29c-1.14,1.81-1.12-1.53-2.64-3.1a6.543,6.543,0,0,0,1.89-.46h.01C114.75,367.47,115.72,368.88,114.82,370.29Z" transform="translate(-94.32 -362.8)" fill="#adbec4"/>
          <path id="Tracé_225" data-name="Tracé 225" d="M110.39,370.39c-1.21,1.14-1.6-1.84-2.31-3.44.62.11,1.24.21,1.85.26C110.65,368.17,111.31,369.51,110.39,370.39Z" transform="translate(-94.32 -362.8)" fill="#adbec4"/>
        </g>
        <g id="Groupe_54" data-name="Groupe 54" transform="translate(96.491 231.98)">
          <path id="Tracé_226" data-name="Tracé 226" d="M211.11,409.06H191.18a11.76,11.76,0,0,1,0-5.83c.36-1.32,2.42-2.55,4.34-4.27a17.024,17.024,0,0,0,1.52-1.54,8.725,8.725,0,0,0,1.01-1.45,6.9,6.9,0,0,0,.82-2.08,9.111,9.111,0,0,0-.67-5.42s6.78-1.42,9.2,2.28c0,0,.23-1.71,2.39-.57a31.768,31.768,0,0,0,.11,6.31C210.34,399.34,213.01,400.17,211.11,409.06Z" transform="translate(-190.811 -388.202)" fill="#cfd8dc"/>
          <path id="Tracé_227" data-name="Tracé 227" d="M205.93,397.05a.89.89,0,0,1-.67.3,1,1,0,0,1-.59-.2,7.283,7.283,0,0,0-6.62-1.2,6.9,6.9,0,0,0,.82-2.08c1.33-.49,3.84-.78,6.94,1.87A.909.909,0,0,1,205.93,397.05Z" transform="translate(-190.811 -388.202)" fill="#adbec4"/>
          <path id="Tracé_228" data-name="Tracé 228" d="M204.25,400.36l-.11.17a.914.914,0,0,1-1.22.3c-1.35-.8-4.4-2.31-7.39-1.88a17.024,17.024,0,0,0,1.52-1.54,7.964,7.964,0,0,1,7.01,1.74A.927.927,0,0,1,204.25,400.36Z" transform="translate(-190.811 -388.202)" fill="#adbec4"/>
        </g>
      </g>
    </g>
  </g>
</svg>
